Bevan.ufo
<glyph name="numbersign" format="1">
  <advance width="1411"/>
  <unicode hex="0023"/>
  <outline>
    <contour>
      <point x="269" y="1246" type="line" smooth="no"/>
      <point x="206" y="947" type="line" smooth="no"/>
      <point x="342" y="947" type="line" smooth="no"/>
      <point x="262" y="585" type="line" smooth="no"/>
      <point x="122" y="585" type="line" smooth="no"/>
      <point x="59" y="286" type="line" smooth="no"/>
      <point x="195" y="286" type="line" smooth="no"/>
      <point x="132" y="0" type="line" smooth="no"/>
      <point x="445" y="0" type="line" smooth="no"/>
      <point x="510" y="286" type="line" smooth="no"/>
      <point x="674" y="286" type="line" smooth="no"/>
      <point x="611" y="0" type="line" smooth="no"/>
      <point x="924" y="0" type="line" smooth="no"/>
      <point x="989" y="286" type="line" smooth="no"/>
      <point x="1139" y="286" type="line" smooth="no"/>
      <point x="1202" y="585" type="line" smooth="no"/>
      <point x="1058" y="585" type="line" smooth="no"/>
      <point x="1141" y="947" type="line" smooth="no"/>
      <point x="1286" y="947" type="line" smooth="no"/>
      <point x="1349" y="1246" type="line" smooth="no"/>
      <point x="1209" y="1246" type="line" smooth="no"/>
      <point x="1296" y="1623" type="line" smooth="no"/>
      <point x="972" y="1623" type="line" smooth="no"/>
      <point x="888" y="1246" type="line" smooth="no"/>
      <point x="730" y="1246" type="line" smooth="no"/>
      <point x="817" y="1623" type="line" smooth="no"/>
      <point x="493" y="1623" type="line" smooth="no"/>
      <point x="409" y="1246" type="line" smooth="no"/>
    </contour>
    <contour>
      <point x="662" y="947" type="line" smooth="no"/>
      <point x="821" y="947" type="line" smooth="no"/>
      <point x="741" y="585" type="line" smooth="no"/>
      <point x="579" y="585" type="line" smooth="no"/>
    </contour>
  </outline>
</glyph>
<glyph name="dollar" format="1">
  <advance width="1327"/>
  <unicode hex="0024"/>
  <outline>
    <contour>
      <point x="63" y="66" type="line" smooth="no"/>
      <point x="258" y="66" type="line" smooth="no"/>
      <point x="302" y="128" type="line" smooth="no"/>
      <point x="414" y="76"/>
      <point x="553" y="48" type="qcurve" smooth="no"/>
      <point x="553" y="-166" type="line" smooth="no"/>
      <point x="784" y="-166" type="line" smooth="no"/>
      <point x="784" y="35" type="line" smooth="no"/>
      <point x="915" y="41"/>
      <point x="1137" y="172"/>
      <point x="1265" y="391"/>
      <point x="1262" y="518" type="qcurve" smooth="yes"/>
      <point x="1260" y="603"/>
      <point x="1206" y="742"/>
      <point x="1121" y="840"/>
      <point x="995" y="919"/>
      <point x="866" y="969"/>
      <point x="784" y="991" type="qcurve" smooth="no"/>
      <point x="784" y="1219" type="line" smooth="yes"/>
      <point x="784" y="1225"/>
      <point x="795" y="1225" type="qcurve" smooth="yes"/>
      <point x="805" y="1225"/>
      <point x="815" y="1214" type="qcurve" smooth="no"/>
      <point x="899" y="1136"/>
      <point x="922" y="1040" type="qcurve" smooth="no"/>
      <point x="932" y="1030" type="line" smooth="no"/>
      <point x="958" y="1028"/>
      <point x="969" y="1028" type="qcurve" smooth="yes"/>
      <point x="976" y="1028"/>
      <point x="1025" y="1030"/>
      <point x="1026" y="1030" type="qcurve" smooth="yes"/>
      <point x="1147" y="1034" type="line" smooth="no"/>
      <point x="1153" y="1040" type="line" smooth="no"/>
      <point x="1153" y="1466" type="line" smooth="yes"/>
      <point x="1153" y="1467"/>
      <point x="1147" y="1473" type="line" smooth="yes"/>
      <point x="1146" y="1473"/>
      <point x="1132" y="1477"/>
      <point x="1130" y="1477" type="qcurve" smooth="yes"/>
      <point x="973" y="1477" type="line" smooth="no"/>
      <point x="946" y="1450" type="line" smooth="no"/>
      <point x="930" y="1434" type="line" smooth="no"/>
      <point x="838" y="1476"/>
      <point x="786" y="1494" type="qcurve" smooth="no"/>
      <point x="786" y="1704" type="line" smooth="no"/>
      <point x="559" y="1704" type="line" smooth="no"/>
      <point x="559" y="1513" type="line" smooth="no"/>
      <point x="332" y="1501"/>
      <point x="57" y="1260"/>
      <point x="57" y="1053" type="qcurve" smooth="yes"/>
      <point x="57" y="989"/>
      <point x="85" y="880"/>
      <point x="130" y="799"/>
      <point x="206" y="729"/>
      <point x="282" y="680"/>
      <point x="393" y="634"/>
      <point x="487" y="604"/>
      <point x="553" y="586" type="qcurve" smooth="no"/>
      <point x="553" y="298" type="line" smooth="no"/>
      <point x="480" y="298"/>
      <point x="317" y="460"/>
      <point x="310" y="545" type="qcurve" smooth="no"/>
      <point x="63" y="545" type="line" smooth="no"/>
    </contour>
    <contour>
      <point x="884" y="399" type="qcurve" smooth="no"/>
      <point x="884" y="365"/>
      <point x="821" y="307"/>
      <point x="784" y="307" type="qcurve" smooth="no"/>
      <point x="784" y="527" type="line" smooth="no"/>
      <point x="839" y="519"/>
      <point x="889" y="441"/>
    </contour>
    <contour>
      <point x="443" y="1180" type="qcurve" smooth="yes"/>
      <point x="443" y="1217"/>
      <point x="514" y="1272"/>
      <point x="557" y="1270" type="qcurve" smooth="no"/>
      <point x="557" y="1059" type="line" smooth="no"/>
      <point x="506" y="1070"/>
      <point x="443" y="1136"/>
    </contour>
  </outline>
</glyph>
<glyph name="quotesingle" format="1">
  <advance width="1707"/>
  <unicode hex="0027"/>
  <outline>
    <contour>
      <point x="420" y="945" type="line" smooth="no"/>
      <point x="720" y="945" type="line" smooth="no"/>
      <point x="820" y="1624" type="line" smooth="no"/>
      <point x="340" y="1624" type="line" smooth="no"/>
    </contour>
  </outline>
</glyph>
<glyph name="parenleft" format="1">
  <advance width="1780"/>
  <unicode hex="0028"/>
  <outline>
    <contour>
      <point x="1096" y="1321" type="line" smooth="no"/>
      <point x="1019" y="1319"/>
      <point x="899" y="1278"/>
      <point x="823" y="1201"/>
      <point x="772" y="1112"/>
      <point x="747" y="991"/>
      <point x="738" y="886"/>
      <point x="738" y="820" type="qcurve" smooth="yes"/>
      <point x="738" y="742"/>
      <point x="755" y="608"/>
      <point x="802" y="471"/>
      <point x="878" y="375"/>
      <point x="1006" y="314"/>
      <point x="1090" y="314" type="qcurve" smooth="no"/>
      <point x="1090" y="-17" type="line" smooth="no"/>
      <point x="917" y="-17"/>
      <point x="632" y="73"/>
      <point x="434" y="229"/>
      <point x="297" y="442"/>
      <point x="234" y="685"/>
      <point x="234" y="819" type="qcurve" smooth="yes"/>
      <point x="234" y="1026"/>
      <point x="330" y="1331"/>
      <point x="535" y="1546"/>
      <point x="866" y="1653"/>
      <point x="1096" y="1653" type="qcurve" smooth="no"/>
    </contour>
  </outline>
</glyph>
<glyph name="parenright" format="1">
  <advance width="1780"/>
  <unicode hex="0029"/>
  <outline>
    <contour>
      <point x="234" y="1321" type="line" smooth="no"/>
      <point x="311" y="1319"/>
      <point x="431" y="1278"/>
      <point x="507" y="1201"/>
      <point x="558" y="1112"/>
      <point x="583" y="991"/>
      <point x="592" y="886"/>
      <point x="592" y="820" type="qcurve" smooth="yes"/>
      <point x="592" y="742"/>
      <point x="575" y="608"/>
      <point x="528" y="471"/>
      <point x="452" y="375"/>
      <point x="324" y="314"/>
      <point x="240" y="314" type="qcurve" smooth="no"/>
      <point x="240" y="-17" type="line" smooth="no"/>
      <point x="413" y="-17"/>
      <point x="698" y="73"/>
      <point x="896" y="229"/>
      <point x="1033" y="442"/>
      <point x="1096" y="685"/>
      <point x="1096" y="819" type="qcurve" smooth="yes"/>
      <point x="1096" y="1026"/>
      <point x="1000" y="1331"/>
      <point x="795" y="1546"/>
      <point x="464" y="1653"/>
      <point x="234" y="1653" type="qcurve" smooth="no"/>
    </contour>
  </outline>
</glyph>
<glyph name="asterisk" format="1">
  <advance width="1707"/>
  <unicode hex="002a"/>
  <outline>
    <contour>
      <point x="252" y="1328" type="qcurve" smooth="no"/>
      <point x="229" y="1294"/>
      <point x="222" y="1212"/>
      <point x="266" y="1126"/>
      <point x="313" y="1095" type="qcurve" smooth="yes"/>
      <point x="361" y="1063"/>
      <point x="497" y="1011"/>
      <point x="687" y="955"/>
      <point x="716" y="945" type="qcurve" smooth="no"/>
      <point x="684" y="934"/>
      <point x="499" y="879"/>
      <point x="361" y="826"/>
      <point x="313" y="795" type="qcurve" smooth="yes"/>
      <point x="266" y="764"/>
      <point x="222" y="678"/>
      <point x="229" y="596"/>
      <point x="252" y="562" type="qcurve" smooth="no"/>
      <point x="287" y="507"/>
      <point x="414" y="481"/>
      <point x="491" y="526" type="qcurve" smooth="no"/>
      <point x="524" y="548"/>
      <point x="606" y="626"/>
      <point x="757" y="804" type="line" smooth="no"/>
      <point x="710" y="647"/>
      <point x="692" y="576"/>
      <point x="672" y="469"/>
      <point x="672" y="429" type="qcurve" smooth="yes"/>
      <point x="672" y="345"/>
      <point x="768" y="249"/>
      <point x="898" y="249"/>
      <point x="994" y="345"/>
      <point x="994" y="429" type="qcurve" smooth="yes"/>
      <point x="994" y="469"/>
      <point x="974" y="578"/>
      <point x="957" y="642"/>
      <point x="908" y="804" type="line" smooth="no"/>
      <point x="1062" y="624"/>
      <point x="1142" y="548"/>
      <point x="1175" y="526" type="qcurve" smooth="no"/>
      <point x="1252" y="481"/>
      <point x="1379" y="507"/>
      <point x="1414" y="562" type="qcurve" smooth="no"/>
      <point x="1437" y="596"/>
      <point x="1444" y="678"/>
      <point x="1400" y="764"/>
      <point x="1353" y="795" type="qcurve" smooth="yes"/>
      <point x="1305" y="826"/>
      <point x="1167" y="879"/>
      <point x="982" y="933"/>
      <point x="949" y="945" type="qcurve" smooth="no"/>
      <point x="978" y="955"/>
      <point x="1168" y="1011"/>
      <point x="1305" y="1063"/>
      <point x="1353" y="1095" type="qcurve" smooth="yes"/>
      <point x="1400" y="1126"/>
      <point x="1444" y="1212"/>
      <point x="1437" y="1294"/>
      <point x="1414" y="1328" type="qcurve" smooth="no"/>
      <point x="1379" y="1383"/>
      <point x="1252" y="1409"/>
      <point x="1175" y="1364" type="qcurve" smooth="no"/>
      <point x="1142" y="1342"/>
      <point x="1063" y="1267"/>
      <point x="908" y="1086" type="line" smooth="no"/>
      <point x="962" y="1268"/>
      <point x="984" y="1355"/>
      <point x="994" y="1429"/>
      <point x="994" y="1461" type="qcurve" smooth="yes"/>
      <point x="994" y="1545"/>
      <point x="898" y="1641"/>
      <point x="768" y="1641"/>
      <point x="672" y="1545"/>
      <point x="672" y="1461" type="qcurve" smooth="yes"/>
      <point x="672" y="1421"/>
      <point x="692" y="1313"/>
      <point x="710" y="1245"/>
      <point x="757" y="1086" type="line" smooth="no"/>
      <point x="650" y="1214"/>
      <point x="604" y="1265"/>
      <point x="524" y="1342"/>
      <point x="491" y="1364" type="qcurve" smooth="no"/>
      <point x="414" y="1409"/>
      <point x="287" y="1383"/>
    </contour>
  </outline>
</glyph>
<glyph name="plus" format="1">
  <advance width="791"/>
  <unicode hex="002b"/>
  <outline>
    <contour>
      <point x="0" y="517" type="line" smooth="no"/>
      <point x="272" y="517" type="line" smooth="no"/>
      <point x="272" y="238" type="line" smooth="no"/>
      <point x="527" y="238" type="line" smooth="no"/>
      <point x="527" y="517" type="line" smooth="no"/>
      <point x="792" y="517" type="line" smooth="no"/>
      <point x="792" y="762" type="line" smooth="no"/>
      <point x="527" y="762" type="line" smooth="no"/>
      <point x="527" y="1051" type="line" smooth="no"/>
      <point x="272" y="1051" type="line" smooth="no"/>
      <point x="272" y="762" type="line" smooth="no"/>
      <point x="0" y="762" type="line" smooth="no"/>
    </contour>
  </outline>
</glyph>
<glyph name="comma" format="1">
  <advance width="1707"/>
  <unicode hex="002c"/>
  <outline>
    <contour>
      <point x="290" y="-448" type="line" smooth="no"/>
      <point x="564" y="-448"/>
      <point x="824" y="-189"/>
      <point x="824" y="89" type="qcurve" smooth="yes"/>
      <point x="824" y="212"/>
      <point x="800" y="366" type="qcurve" smooth="no"/>
      <point x="290" y="366" type="line" smooth="no"/>
      <point x="290" y="0" type="line" smooth="no"/>
      <point x="479" y="0" type="line" smooth="no"/>
      <point x="479" y="-42"/>
      <point x="477" y="-87"/>
      <point x="466" y="-147"/>
      <point x="442" y="-179"/>
      <point x="401" y="-210"/>
      <point x="335" y="-223"/>
      <point x="290" y="-223" type="qcurve" smooth="no"/>
    </contour>
  </outline>
</glyph>
<glyph name="hyphen" format="1">
  <advance width="774"/>
  <unicode hex="002d"/>
  <outline>
    <contour>
      <point x="70" y="836" type="line" smooth="no"/>
      <point x="70" y="537" type="line" smooth="no"/>
      <point x="717" y="537" type="line" smooth="no"/>
      <point x="717" y="836" type="line" smooth="no"/>
    </contour>
  </outline>
</glyph>
<glyph name="period" format="1">
  <advance width="1090"/>
  <unicode hex="002e"/>
  <outline>
    <contour>
      <point x="557" y="-27" type="qcurve" smooth="yes"/>
      <point x="438" y="-27"/>
      <point x="280" y="108"/>
      <point x="280" y="223" type="qcurve" smooth="yes"/>
      <point x="280" y="336"/>
      <point x="435" y="468"/>
      <point x="557" y="468" type="qcurve" smooth="yes"/>
      <point x="684" y="468"/>
      <point x="844" y="336"/>
      <point x="844" y="223" type="qcurve" smooth="yes"/>
      <point x="844" y="108"/>
      <point x="679" y="-27"/>
    </contour>
  </outline>
</glyph>
<glyph name="slash" format="1">
  <advance width="1012"/>
  <unicode hex="002f"/>
  <outline>
    <contour>
      <point x="430" y="0" type="line" smooth="no"/>
      <point x="932" y="1623" type="line" smooth="no"/>
      <point x="568" y="1623" type="line" smooth="no"/>
      <point x="77" y="0" type="line" smooth="no"/>
    </contour>
  </outline>
</glyph>
<glyph name="zero" format="1">
  <advance width="1358"/>
  <unicode hex="0030"/>
  <outline>
    <contour>
      <point x="471" y="-27"/>
      <point x="190" y="159"/>
      <point x="57" y="479"/>
      <point x="57" y="695" type="qcurve" smooth="yes"/>
      <point x="57" y="837"/>
      <point x="144" y="1082"/>
      <point x="302" y="1261"/>
      <point x="535" y="1364"/>
      <point x="813" y="1364"/>
      <point x="1046" y="1261"/>
      <point x="1204" y="1082"/>
      <point x="1291" y="837"/>
      <point x="1291" y="695" type="qcurve" smooth="yes"/>
      <point x="1291" y="479"/>
      <point x="1158" y="159"/>
      <point x="877" y="-27"/>
    </contour>
    <contour>
      <point x="674" y="349" type="qcurve" smooth="yes"/>
      <point x="718" y="349"/>
      <point x="775" y="411"/>
      <point x="799" y="521"/>
      <point x="806" y="610"/>
      <point x="806" y="669" type="qcurve" smooth="yes"/>
      <point x="806" y="678"/>
      <point x="806.142" y="697.067" type="qcurve" smooth="yes"/>
      <point x="806" y="724"/>
      <point x="807" y="781"/>
      <point x="801" y="840"/>
      <point x="793" y="894"/>
      <point x="773" y="942"/>
      <point x="745" y="978"/>
      <point x="702" y="998"/>
      <point x="674" y="998" type="qcurve" smooth="yes"/>
      <point x="642" y="998"/>
      <point x="593" y="971"/>
      <point x="566" y="924"/>
      <point x="548" y="863"/>
      <point x="540" y="728"/>
      <point x="541.858" y="697.067" type="qcurve" smooth="no"/>
      <point x="542" y="678"/>
      <point x="542" y="669" type="qcurve" smooth="yes"/>
      <point x="542" y="623"/>
      <point x="545" y="553"/>
      <point x="561" y="457"/>
      <point x="587" y="394"/>
      <point x="639" y="349"/>
    </contour>
  </outline>
</glyph>
<glyph name="two" format="1">
  <advance width="1294"/>
  <unicode hex="0032"/>
  <outline>
    <contour>
      <point x="1237" y="0" type="line" smooth="no"/>
      <point x="1237" y="471" type="line" smooth="no"/>
      <point x="1064" y="471" type="line" smooth="no"/>
      <point x="1064" y="426"/>
      <point x="1030" y="367"/>
      <point x="965" y="337"/>
      <point x="896" y="325"/>
      <point x="848" y="324" type="qcurve" smooth="no"/>
      <point x="687" y="324" type="line" smooth="no"/>
      <point x="856" y="452"/>
      <point x="1006" y="586"/>
      <point x="1047" y="639" type="qcurve" smooth="yes"/>
      <point x="1153" y="775"/>
      <point x="1153" y="928" type="qcurve" smooth="yes"/>
      <point x="1153" y="1034"/>
      <point x="1071" y="1207"/>
      <point x="928" y="1320"/>
      <point x="740" y="1383"/>
      <point x="631" y="1387" type="qcurve" smooth="yes"/>
      <point x="550" y="1390"/>
      <point x="387" y="1357"/>
      <point x="239" y="1284"/>
      <point x="124" y="1180"/>
      <point x="56" y="1034"/>
      <point x="57" y="950" type="qcurve" smooth="no"/>
      <point x="54" y="844"/>
      <point x="129" y="654"/>
      <point x="205" y="586" type="qcurve" smooth="no"/>
      <point x="431" y="760" type="line" smooth="no"/>
      <point x="424" y="767"/>
      <point x="403" y="790"/>
      <point x="369" y="858"/>
      <point x="369" y="889" type="qcurve" smooth="yes"/>
      <point x="369" y="951"/>
      <point x="439" y="1031"/>
      <point x="504" y="1031" type="qcurve" smooth="yes"/>
      <point x="557" y="1031"/>
      <point x="637" y="936"/>
      <point x="641" y="859" type="qcurve" smooth="no"/>
      <point x="641" y="796"/>
      <point x="608" y="691"/>
      <point x="536" y="597"/>
      <point x="473" y="535"/>
      <point x="416" y="487" type="qcurve" smooth="yes"/>
      <point x="287" y="377"/>
      <point x="94" y="303" type="qcurve" smooth="no"/>
      <point x="94" y="0" type="line" smooth="no"/>
    </contour>
  </outline>
</glyph>
<glyph name="six" format="1">
  <advance width="1354"/>
  <unicode hex="0036"/>
  <outline>
    <contour>
      <point x="586" y="1345" type="line" smooth="no"/>
      <point x="297" y="1050"/>
      <point x="218" y="953"/>
      <point x="166" y="873"/>
      <point x="109" y="772"/>
      <point x="75" y="682"/>
      <point x="53" y="582"/>
      <point x="53" y="534" type="qcurve" smooth="yes"/>
      <point x="53" y="370"/>
      <point x="222" y="116"/>
      <point x="506" y="-18"/>
      <point x="680" y="-18" type="qcurve" smooth="yes"/>
      <point x="842" y="-18"/>
      <point x="1125" y="126"/>
      <point x="1299" y="386"/>
      <point x="1300" y="544" type="qcurve" smooth="yes"/>
      <point x="1302" y="755"/>
      <point x="1043" y="1012"/>
      <point x="827" y="1023" type="qcurve" smooth="no"/>
      <point x="837" y="1050"/>
      <point x="982" y="1207"/>
      <point x="1122" y="1344"/>
      <point x="1122" y="1345" type="qcurve" smooth="no"/>
    </contour>
    <contour>
      <point x="569" y="550" type="qcurve" smooth="yes"/>
      <point x="569" y="588"/>
      <point x="571" y="636"/>
      <point x="584" y="704"/>
      <point x="607" y="744"/>
      <point x="653" y="774"/>
      <point x="686" y="775" type="qcurve" smooth="yes"/>
      <point x="716" y="775"/>
      <point x="759" y="737"/>
      <point x="778" y="691"/>
      <point x="789" y="613"/>
      <point x="790" y="576"/>
      <point x="790" y="544" type="qcurve" smooth="yes"/>
      <point x="790" y="327"/>
      <point x="674" y="327" type="qcurve" smooth="yes"/>
      <point x="640" y="327"/>
      <point x="595" y="376"/>
      <point x="576" y="455"/>
      <point x="569" y="517"/>
    </contour>
  </outline>
</glyph>
<glyph name="seven" format="1">
  <advance width="1247"/>
  <unicode hex="0037"/>
  <outline>
    <contour>
      <point x="63" y="878" type="line" smooth="no"/>
      <point x="281" y="878" type="line" smooth="no"/>
      <point x="281" y="963"/>
      <point x="343" y="1020"/>
      <point x="412" y="1020" type="qcurve" smooth="yes"/>
      <point x="653" y="1020" type="line" smooth="no"/>
      <point x="148" y="0" type="line" smooth="no"/>
      <point x="680" y="0" type="line" smooth="no"/>
      <point x="1206" y="1067" type="line" smooth="no"/>
      <point x="1206" y="1337" type="line" smooth="no"/>
      <point x="63" y="1337" type="line" smooth="no"/>
    </contour>
  </outline>
</glyph>
<glyph name="eight" format="1">
  <advance width="1337"/>
  <unicode hex="0038"/>
  <outline>
    <contour>
      <point x="591" y="-18"/>
      <point x="440" y="0"/>
      <point x="273" y="54"/>
      <point x="152" y="138"/>
      <point x="72" y="282"/>
      <point x="72" y="375" type="qcurve" smooth="yes"/>
      <point x="72" y="630"/>
      <point x="333" y="730" type="qcurve" smooth="no"/>
      <point x="246" y="763"/>
      <point x="149" y="911"/>
      <point x="149" y="1010" type="qcurve" smooth="yes"/>
      <point x="149" y="1096"/>
      <point x="221" y="1230"/>
      <point x="330" y="1309"/>
      <point x="476" y="1359"/>
      <point x="606" y="1377"/>
      <point x="738" y="1377"/>
      <point x="868" y="1359"/>
      <point x="1014" y="1309"/>
      <point x="1123" y="1230"/>
      <point x="1195" y="1096"/>
      <point x="1195" y="1010" type="qcurve" smooth="yes"/>
      <point x="1195" y="911"/>
      <point x="1098" y="763"/>
      <point x="1011" y="730" type="qcurve" smooth="no"/>
      <point x="1272" y="630"/>
      <point x="1272" y="375" type="qcurve" smooth="yes"/>
      <point x="1272" y="282"/>
      <point x="1192" y="138"/>
      <point x="1071" y="54"/>
      <point x="904" y="0"/>
      <point x="753" y="-18"/>
    </contour>
    <contour>
      <point x="592" y="578"/>
      <point x="592" y="406" type="qcurve" smooth="yes"/>
      <point x="592" y="240"/>
      <point x="752" y="240"/>
      <point x="752" y="406" type="qcurve" smooth="yes"/>
      <point x="752" y="578"/>
    </contour>
    <contour>
      <point x="646" y="1121"/>
      <point x="611" y="1098"/>
      <point x="597" y="1053"/>
      <point x="592" y="1014"/>
      <point x="592" y="986" type="qcurve" smooth="yes"/>
      <point x="592" y="824"/>
      <point x="752" y="824"/>
      <point x="752" y="986" type="qcurve" smooth="yes"/>
      <point x="752" y="1014"/>
      <point x="747" y="1053"/>
      <point x="733" y="1098"/>
      <point x="698" y="1121"/>
    </contour>
  </outline>
</glyph>
<glyph name="nine" format="1">
  <advance width="1354"/>
  <unicode hex="0039"/>
  <outline>
    <contour>
      <point x="227" y="0" type="line" smooth="no"/>
      <point x="764" y="0" type="line" smooth="no"/>
      <point x="1057" y="306"/>
      <point x="1131" y="400"/>
      <point x="1212" y="522"/>
      <point x="1263" y="630"/>
      <point x="1296" y="755"/>
      <point x="1296" y="813" type="qcurve" smooth="yes"/>
      <point x="1296" y="971"/>
      <point x="1137" y="1225"/>
      <point x="858" y="1368"/>
      <point x="686" y="1368" type="qcurve" smooth="yes"/>
      <point x="404" y="1368"/>
      <point x="45" y="1036"/>
      <point x="45" y="782" type="qcurve" smooth="yes"/>
      <point x="45" y="586"/>
      <point x="323" y="321"/>
      <point x="530" y="321" type="qcurve" smooth="no"/>
      <point x="489" y="269"/>
      <point x="282" y="54.5" type="line" smooth="yes"/>
    </contour>
    <contour>
      <point x="567" y="782" type="qcurve" smooth="yes"/>
      <point x="567" y="1012"/>
      <point x="678" y="1012" type="qcurve" smooth="yes"/>
      <point x="708" y="1012"/>
      <point x="750" y="960"/>
      <point x="767" y="879"/>
      <point x="774" y="817"/>
      <point x="774" y="790" type="qcurve" smooth="yes"/>
      <point x="774" y="573"/>
      <point x="676" y="573" type="qcurve" smooth="yes"/>
      <point x="567" y="573"/>
    </contour>
  </outline>
</glyph>
<glyph name="colon" format="1">
  <advance width="735"/>
  <unicode hex="003a"/>
  <outline>
    <contour>
      <point x="363" y="596" type="qcurve" smooth="yes"/>
      <point x="244" y="596"/>
      <point x="86" y="731"/>
      <point x="86" y="846" type="qcurve" smooth="yes"/>
      <point x="86" y="959"/>
      <point x="241" y="1091"/>
      <point x="363" y="1091" type="qcurve" smooth="yes"/>
      <point x="490" y="1091"/>
      <point x="650" y="959"/>
      <point x="650" y="846" type="qcurve" smooth="yes"/>
      <point x="650" y="731"/>
      <point x="485" y="596"/>
    </contour>
    <contour>
      <point x="363" y="-18" type="qcurve" smooth="yes"/>
      <point x="244" y="-18"/>
      <point x="86" y="117"/>
      <point x="86" y="232" type="qcurve" smooth="yes"/>
      <point x="86" y="345"/>
      <point x="241" y="477"/>
      <point x="363" y="477" type="qcurve" smooth="yes"/>
      <point x="490" y="477"/>
      <point x="650" y="345"/>
      <point x="650" y="232" type="qcurve" smooth="yes"/>
      <point x="650" y="117"/>
      <point x="485" y="-18"/>
    </contour>
  </outline>
</glyph>
<glyph name="semicolon" format="1">
  <advance width="734"/>
  <unicode hex="003b"/>
  <outline>
    <contour>
      <point x="108" y="-448" type="line" smooth="no"/>
      <point x="382" y="-448"/>
      <point x="642" y="-189"/>
      <point x="642" y="89" type="qcurve" smooth="yes"/>
      <point x="642" y="212"/>
      <point x="618" y="366" type="qcurve" smooth="no"/>
      <point x="108" y="366" type="line" smooth="no"/>
      <point x="108" y="0" type="line" smooth="no"/>
      <point x="297" y="0" type="line" smooth="no"/>
      <point x="297" y="-42"/>
      <point x="295" y="-87"/>
      <point x="284" y="-147"/>
      <point x="260" y="-179"/>
      <point x="219" y="-210"/>
      <point x="153" y="-223"/>
      <point x="108" y="-223" type="qcurve" smooth="no"/>
    </contour>
    <contour>
      <point x="375" y="595" type="qcurve" smooth="yes"/>
      <point x="256" y="595"/>
      <point x="98" y="730"/>
      <point x="98" y="845" type="qcurve" smooth="yes"/>
      <point x="98" y="958"/>
      <point x="253" y="1090"/>
      <point x="375" y="1090" type="qcurve" smooth="yes"/>
      <point x="502" y="1090"/>
      <point x="662" y="958"/>
      <point x="662" y="845" type="qcurve" smooth="yes"/>
      <point x="662" y="730"/>
      <point x="497" y="595"/>
    </contour>
  </outline>
</glyph>
<glyph name="less" format="1">
  <advance width="840"/>
  <unicode hex="003c"/>
  <outline>
    <contour>
      <point x="13" y="946" type="line" smooth="no"/>
      <point x="728" y="1542" type="line" smooth="no"/>
      <point x="728" y="1077" type="line" smooth="no"/>
      <point x="395" y="761" type="line" smooth="no"/>
      <point x="728" y="445" type="line" smooth="no"/>
      <point x="728" y="-20" type="line" smooth="no"/>
      <point x="13" y="576" type="line" smooth="no"/>
    </contour>
  </outline>
</glyph>
<glyph name="at" format="1">
  <advance width="2037"/>
  <unicode hex="0040"/>
  <outline>
    <contour>
      <point x="1415" y="603" type="line" smooth="yes"/>
      <point x="1415" y="676"/>
      <point x="1380" y="794"/>
      <point x="1329" y="867"/>
      <point x="1250" y="921"/>
      <point x="1184" y="947"/>
      <point x="1097" y="962"/>
      <point x="1051" y="964"/>
      <point x="1022" y="964" type="qcurve" smooth="yes"/>
      <point x="911" y="964"/>
      <point x="742" y="903"/>
      <point x="645" y="796"/>
      <point x="597" y="665"/>
      <point x="597" y="588" type="qcurve" smooth="yes"/>
      <point x="597" y="409"/>
      <point x="764" y="190"/>
      <point x="883" y="190" type="qcurve" smooth="yes"/>
      <point x="940" y="190"/>
      <point x="1061" y="245"/>
      <point x="1096" y="294" type="qcurve" smooth="no"/>
      <point x="1134" y="204" type="line" smooth="no"/>
      <point x="1284" y="204" type="line" smooth="yes"/>
      <point x="1435" y="204"/>
      <point x="1659" y="274"/>
      <point x="1794" y="403"/>
      <point x="1859" y="572"/>
      <point x="1859" y="677" type="qcurve" smooth="yes"/>
      <point x="1859" y="821"/>
      <point x="1742" y="1074"/>
      <point x="1527" y="1263"/>
      <point x="1201" y="1372"/>
      <point x="1004" y="1372" type="qcurve" smooth="yes"/>
      <point x="793" y="1372"/>
      <point x="447" y="1244"/>
      <point x="221" y="1024"/>
      <point x="99" y="733"/>
      <point x="99" y="567" type="qcurve" smooth="yes"/>
      <point x="99" y="409"/>
      <point x="227" y="132"/>
      <point x="464" y="-77"/>
      <point x="830" y="-198"/>
      <point x="1054" y="-198" type="qcurve" smooth="yes"/>
      <point x="1159" y="-198"/>
      <point x="1269" y="-169" type="qcurve" smooth="no"/>
      <point x="1217" y="59" type="line" smooth="no"/>
      <point x="1141" y="37"/>
      <point x="1054" y="37" type="qcurve" smooth="yes"/>
      <point x="898" y="37"/>
      <point x="651" y="120"/>
      <point x="495" y="265"/>
      <point x="414" y="456"/>
      <point x="414" y="567" type="qcurve" smooth="yes"/>
      <point x="414" y="819"/>
      <point x="720" y="1117"/>
      <point x="1004" y="1117" type="qcurve" smooth="yes"/>
      <point x="1284" y="1117"/>
      <point x="1574" y="877"/>
      <point x="1574" y="677" type="qcurve" smooth="yes"/>
      <point x="1574" y="604"/>
      <point x="1554" y="497"/>
      <point x="1524" y="440"/>
      <point x="1478" y="407"/>
      <point x="1440" y="398"/>
      <point x="1416" y="398" type="qcurve" smooth="no"/>
    </contour>
    <contour>
      <point x="940" y="582" type="qcurve" smooth="yes"/>
      <point x="940" y="632"/>
      <point x="946" y="706"/>
      <point x="962" y="778"/>
      <point x="995" y="817"/>
      <point x="1020" y="817" type="qcurve" smooth="yes"/>
      <point x="1062" y="817"/>
      <point x="1096" y="754"/>
      <point x="1096" y="671" type="qcurve" smooth="yes"/>
      <point x="1096" y="409" type="line" smooth="no"/>
      <point x="1068" y="374"/>
      <point x="1013" y="374" type="qcurve" smooth="yes"/>
      <point x="980" y="374"/>
      <point x="940" y="489"/>
    </contour>
  </outline>
</glyph>
<glyph name="B" format="1">
  <advance width="1659"/>
  <unicode hex="0042"/>
  <outline>
    <contour>
      <point x="68" y="0" type="line" smooth="no"/>
      <point x="1010" y="0" type="line" smooth="yes"/>
      <point x="1139" y="0"/>
      <point x="1346" y="46"/>
      <point x="1507" y="143"/>
      <point x="1595" y="308"/>
      <point x="1595" y="420" type="qcurve" smooth="yes"/>
      <point x="1595" y="589"/>
      <point x="1431" y="805"/>
      <point x="1281" y="848" type="qcurve" smooth="no"/>
      <point x="1281" y="850" type="line" smooth="no"/>
      <point x="1390" y="891"/>
      <point x="1526" y="1080"/>
      <point x="1526" y="1204" type="qcurve" smooth="yes"/>
      <point x="1526" y="1304"/>
      <point x="1466" y="1452"/>
      <point x="1361" y="1546"/>
      <point x="1196" y="1602"/>
      <point x="1011" y="1623"/>
      <point x="889" y="1623" type="qcurve" smooth="yes"/>
      <point x="75" y="1622" type="line" smooth="no"/>
      <point x="75" y="1270" type="line" smooth="no"/>
      <point x="241" y="1270" type="line" smooth="no"/>
      <point x="240" y="359" type="line" smooth="no"/>
      <point x="68" y="359" type="line" smooth="no"/>
    </contour>
    <contour>
      <point x="842" y="700" type="qcurve" smooth="yes"/>
      <point x="871" y="700"/>
      <point x="917" y="695"/>
      <point x="974" y="674"/>
      <point x="1013" y="638"/>
      <point x="1040" y="572"/>
      <point x="1040" y="527" type="qcurve" smooth="yes"/>
      <point x="1040" y="502"/>
      <point x="1033" y="460"/>
      <point x="1020" y="429"/>
      <point x="1002" y="403"/>
      <point x="979" y="386"/>
      <point x="951" y="373"/>
      <point x="920" y="366"/>
      <point x="886" y="361"/>
      <point x="849" y="359"/>
      <point x="810" y="358"/>
      <point x="789.697" y="358.948" type="qcurve" smooth="yes"/>
      <point x="775" y="359"/>
      <point x="768" y="359" type="qcurve" smooth="no"/>
      <point x="768" y="699" type="line" smooth="no"/>
      <point x="831" y="700"/>
    </contour>
    <contour>
      <point x="768" y="1270" type="line" smooth="no"/>
      <point x="894" y="1270" type="line" smooth="yes"/>
      <point x="950" y="1270"/>
      <point x="1032" y="1198"/>
      <point x="1032" y="1131" type="qcurve" smooth="yes"/>
      <point x="1032" y="1076"/>
      <point x="999" y="1005"/>
      <point x="931" y="972"/>
      <point x="862" y="961"/>
      <point x="809" y="961" type="qcurve" smooth="yes"/>
      <point x="768" y="961" type="line" smooth="no"/>
    </contour>
  </outline>
</glyph>
<glyph name="D" format="1">
  <advance width="1780"/>
  <unicode hex="0044"/>
  <outline>
    <contour>
      <point x="74" y="0" type="line" smooth="no"/>
      <point x="876" y="0" type="line" smooth="yes"/>
      <point x="1078" y="0"/>
      <point x="1404" y="134"/>
      <point x="1610" y="361"/>
      <point x="1720" y="653"/>
      <point x="1720" y="816" type="qcurve" smooth="yes"/>
      <point x="1720" y="1212"/>
      <point x="1310" y="1623"/>
      <point x="898" y="1623" type="qcurve" smooth="yes"/>
      <point x="68" y="1623" type="line" smooth="no"/>
      <point x="68" y="1271" type="line" smooth="no"/>
      <point x="237" y="1271" type="line" smooth="no"/>
      <point x="237" y="359" type="line" smooth="no"/>
      <point x="74" y="359" type="line" smooth="no"/>
    </contour>
    <contour>
      <point x="784" y="359" type="line" smooth="no"/>
      <point x="784" y="1271" type="line" smooth="no"/>
      <point x="831" y="1271" type="line" smooth="yes"/>
      <point x="905" y="1271"/>
      <point x="1015" y="1214"/>
      <point x="1077" y="1127"/>
      <point x="1114" y="1001"/>
      <point x="1126" y="886"/>
      <point x="1126" y="817" type="qcurve" smooth="yes"/>
      <point x="1126" y="750"/>
      <point x="1111" y="630"/>
      <point x="1069" y="505"/>
      <point x="1003" y="416"/>
      <point x="892" y="359"/>
      <point x="819" y="359" type="qcurve" smooth="yes"/>
    </contour>
  </outline>
</glyph>
<glyph name="E" format="1">
  <advance width="1421"/>
  <unicode hex="0045"/>
  <outline>
    <contour>
      <point x="1341" y="969" type="line" smooth="no"/>
      <point x="1341" y="1623" type="line" smooth="no"/>
      <point x="73" y="1623" type="line" smooth="no"/>
      <point x="73" y="1270" type="line" smooth="no"/>
      <point x="231" y="1270" type="line" smooth="no"/>
      <point x="231" y="359" type="line" smooth="no"/>
      <point x="73" y="359" type="line" smooth="no"/>
      <point x="73" y="0" type="line" smooth="no"/>
      <point x="1352" y="0" type="line" smooth="no"/>
      <point x="1352" y="687" type="line" smooth="no"/>
      <point x="1079" y="687" type="line" smooth="no"/>
      <point x="1016" y="420" type="line" smooth="no"/>
      <point x="1003" y="359" type="line" smooth="no"/>
      <point x="784" y="359" type="line" smooth="no"/>
      <point x="784" y="636" type="line" smooth="no"/>
      <point x="989" y="636" type="line" smooth="no"/>
      <point x="989" y="988" type="line" smooth="no"/>
      <point x="784" y="988" type="line" smooth="no"/>
      <point x="784" y="1270" type="line" smooth="no"/>
      <point x="997" y="1270" type="line" smooth="no"/>
      <point x="1073" y="968" type="line" smooth="no"/>
    </contour>
  </outline>
</glyph>
<glyph name="F" format="1">
  <advance width="1411"/>
  <unicode hex="0046"/>
  <outline>
    <contour>
      <point x="993" y="999" type="line" smooth="no"/>
      <point x="791" y="999" type="line" smooth="no"/>
      <point x="791" y="1270" type="line" smooth="no"/>
      <point x="995" y="1270" type="line" smooth="no"/>
      <point x="1059" y="959" type="line" smooth="no"/>
      <point x="1343" y="959" type="line" smooth="no"/>
      <point x="1343" y="1623" type="line" smooth="no"/>
      <point x="68" y="1623" type="line" smooth="no"/>
      <point x="68" y="1270" type="line" smooth="no"/>
      <point x="226" y="1270" type="line" smooth="no"/>
      <point x="226" y="359" type="line" smooth="no"/>
      <point x="68" y="359" type="line" smooth="no"/>
      <point x="68" y="0" type="line" smooth="no"/>
      <point x="945" y="0" type="line" smooth="no"/>
      <point x="945" y="359" type="line" smooth="no"/>
      <point x="791" y="359" type="line" smooth="no"/>
      <point x="791" y="643" type="line" smooth="no"/>
      <point x="993" y="643" type="line" smooth="no"/>
    </contour>
  </outline>
</glyph>
<glyph name="G" format="1">
  <advance width="1690"/>
  <unicode hex="0047"/>
  <outline>
    <contour>
      <point x="1348" y="0" type="line" smooth="no"/>
      <point x="1624" y="0" type="line" smooth="no"/>
      <point x="1624" y="862" type="line" smooth="no"/>
      <point x="999" y="862" type="line" smooth="no"/>
      <point x="999" y="558" type="line" smooth="no"/>
      <point x="1159" y="557" type="line" smooth="no"/>
      <point x="1167" y="528"/>
      <point x="1167" y="476" type="qcurve" smooth="yes"/>
      <point x="1167" y="403"/>
      <point x="1053" y="318"/>
      <point x="977" y="318" type="qcurve" smooth="yes"/>
      <point x="662" y="318"/>
      <point x="662" y="759" type="qcurve" smooth="yes"/>
      <point x="662" y="822"/>
      <point x="670" y="927"/>
      <point x="692" y="1054"/>
      <point x="737" y="1151"/>
      <point x="805" y="1235"/>
      <point x="913" y="1280"/>
      <point x="983" y="1280" type="qcurve" smooth="yes"/>
      <point x="1046" y="1280"/>
      <point x="1141" y="1243"/>
      <point x="1198" y="1186"/>
      <point x="1238" y="1092"/>
      <point x="1257" y="1006"/>
      <point x="1264" y="945" type="qcurve" smooth="no"/>
      <point x="1552" y="945" type="line" smooth="no"/>
      <point x="1552" y="1623" type="line" smooth="no"/>
      <point x="1237" y="1623" type="line" smooth="no"/>
      <point x="1193" y="1561" type="line" smooth="no"/>
      <point x="1065" y="1652"/>
      <point x="860" y="1652" type="qcurve" smooth="yes"/>
      <point x="669" y="1652"/>
      <point x="360" y="1516"/>
      <point x="162" y="1280"/>
      <point x="57" y="970"/>
      <point x="57" y="792" type="qcurve" smooth="yes"/>
      <point x="57" y="638"/>
      <point x="142" y="374"/>
      <point x="296" y="179"/>
      <point x="508" y="41"/>
      <point x="766" y="-29"/>
      <point x="911" y="-29" type="qcurve" smooth="yes"/>
      <point x="1161" y="-29"/>
      <point x="1306" y="101" type="qcurve" smooth="no"/>
    </contour>
  </outline>
</glyph>
<glyph name="H" format="1">
  <advance width="1837"/>
  <unicode hex="0048"/>
  <outline>
    <contour>
      <point x="70" y="0" type="line" smooth="no"/>
      <point x="879" y="0" type="line" smooth="no"/>
      <point x="880" y="359" type="line" smooth="no"/>
      <point x="784" y="359" type="line" smooth="no"/>
      <point x="784" y="635" type="line" smooth="no"/>
      <point x="1053" y="635" type="line" smooth="no"/>
      <point x="1053" y="359" type="line" smooth="no"/>
      <point x="969" y="359" type="line" smooth="no"/>
      <point x="969" y="0" type="line" smooth="no"/>
      <point x="1769" y="0" type="line" smooth="no"/>
      <point x="1769" y="359" type="line" smooth="no"/>
      <point x="1622" y="359" type="line" smooth="no"/>
      <point x="1622" y="1270" type="line" smooth="no"/>
      <point x="1763" y="1270" type="line" smooth="no"/>
      <point x="1763" y="1623" type="line" smooth="no"/>
      <point x="965" y="1623" type="line" smooth="no"/>
      <point x="965" y="1270" type="line" smooth="no"/>
      <point x="1053" y="1270" type="line" smooth="no"/>
      <point x="1053" y="986" type="line" smooth="no"/>
      <point x="784" y="986" type="line" smooth="no"/>
      <point x="784" y="1270" type="line" smooth="no"/>
      <point x="879" y="1270" type="line" smooth="no"/>
      <point x="879" y="1623" type="line" smooth="no"/>
      <point x="70" y="1623" type="line" smooth="no"/>
      <point x="70" y="1270" type="line" smooth="no"/>
      <point x="217" y="1270" type="line" smooth="no"/>
      <point x="217" y="359" type="line" smooth="no"/>
      <point x="70" y="359" type="line" smooth="no"/>
    </contour>
  </outline>
</glyph>
<glyph name="I" format="1">
  <advance width="1012"/>
  <unicode hex="0049"/>
  <outline>
    <contour>
      <point x="938" y="1623" type="line" smooth="no"/>
      <point x="74" y="1623" type="line" smooth="no"/>
      <point x="74" y="1270" type="line" smooth="no"/>
      <point x="217" y="1270" type="line" smooth="no"/>
      <point x="217" y="359" type="line" smooth="no"/>
      <point x="70" y="359" type="line" smooth="no"/>
      <point x="70" y="0" type="line" smooth="no"/>
      <point x="932" y="0" type="line" smooth="no"/>
      <point x="932" y="359" type="line" smooth="no"/>
      <point x="791" y="359" type="line" smooth="no"/>
      <point x="791" y="1270" type="line" smooth="no"/>
      <point x="938" y="1270" type="line" smooth="no"/>
    </contour>
  </outline>
</glyph>
<glyph name="J" format="1">
  <advance width="1348"/>
  <unicode hex="004a"/>
  <outline>
    <contour>
      <point x="52" y="-13" type="line" smooth="no"/>
      <point x="322" y="-13" type="line" smooth="no"/>
      <point x="359" y="79" type="line" smooth="no"/>
      <point x="448" y="-30"/>
      <point x="647" y="-30" type="qcurve" smooth="yes"/>
      <point x="881" y="-30"/>
      <point x="1143" y="245"/>
      <point x="1143" y="475" type="qcurve" smooth="yes"/>
      <point x="1143" y="1270" type="line" smooth="no"/>
      <point x="1290" y="1270" type="line" smooth="no"/>
      <point x="1290" y="1623" type="line" smooth="no"/>
      <point x="436" y="1623" type="line" smooth="no"/>
      <point x="436" y="1270" type="line" smooth="no"/>
      <point x="590" y="1270" type="line" smooth="no"/>
      <point x="590" y="572" type="line" smooth="yes"/>
      <point x="590" y="462"/>
      <point x="536" y="365"/>
      <point x="479" y="365" type="qcurve" smooth="yes"/>
      <point x="454" y="365"/>
      <point x="413" y="387"/>
      <point x="388" y="417"/>
      <point x="370" y="469"/>
      <point x="361" y="509"/>
      <point x="357" y="573"/>
      <point x="356" y="605"/>
      <point x="356" y="633" type="qcurve" smooth="no"/>
      <point x="52" y="633" type="line" smooth="no"/>
    </contour>
  </outline>
</glyph>
<glyph name="M" format="1">
  <advance width="2353"/>
  <unicode hex="004d"/>
  <outline>
    <contour>
      <point x="567" y="999" type="line" smooth="no"/>
      <point x="983" y="0" type="line" smooth="no"/>
      <point x="1264" y="0" type="line" smooth="no"/>
      <point x="1606" y="977" type="line" smooth="no"/>
      <point x="1606" y="359" type="line" smooth="no"/>
      <point x="1483" y="359" type="line" smooth="no"/>
      <point x="1483" y="0" type="line" smooth="no"/>
      <point x="2286" y="0" type="line" smooth="no"/>
      <point x="2286" y="359" type="line" smooth="no"/>
      <point x="2132" y="359" type="line" smooth="no"/>
      <point x="2132" y="1270" type="line" smooth="no"/>
      <point x="2279" y="1270" type="line" smooth="no"/>
      <point x="2279" y="1623" type="line" smooth="no"/>
      <point x="1495" y="1623" type="line" smooth="no"/>
      <point x="1219" y="856" type="line" smooth="no"/>
      <point x="909" y="1623" type="line" smooth="no"/>
      <point x="74" y="1623" type="line" smooth="no"/>
      <point x="75" y="1270" type="line" smooth="no"/>
      <point x="242" y="1270" type="line" smooth="no"/>
      <point x="242" y="608" type="line" smooth="yes"/>
      <point x="242" y="541"/>
      <point x="239" y="486"/>
      <point x="233" y="460"/>
      <point x="222" y="420"/>
      <point x="206" y="401"/>
      <point x="181" y="377"/>
      <point x="149" y="367"/>
      <point x="105" y="359"/>
      <point x="78" y="359" type="qcurve" smooth="no"/>
      <point x="78" y="0" type="line" smooth="no"/>
      <point x="729" y="0" type="line" smooth="no"/>
      <point x="729" y="359" type="line" smooth="no"/>
      <point x="702" y="359"/>
      <point x="658" y="366"/>
      <point x="626" y="375"/>
      <point x="586" y="409"/>
      <point x="575" y="440"/>
      <point x="570" y="457"/>
      <point x="567" y="496"/>
      <point x="567" y="535" type="line" smooth="yes"/>
    </contour>
  </outline>
</glyph>
<glyph name="O" format="1">
  <advance width="1769"/>
  <unicode hex="004f"/>
  <outline>
    <contour>
      <point x="1122" y="1653"/>
      <point x="1491" y="1453"/>
      <point x="1706" y="1066"/>
      <point x="1706" y="808" type="qcurve" smooth="yes"/>
      <point x="1706" y="573"/>
      <point x="1491" y="189"/>
      <point x="1115" y="-29"/>
      <point x="657" y="-29"/>
      <point x="281" y="189"/>
      <point x="66" y="573"/>
      <point x="66" y="808" type="qcurve" smooth="yes"/>
      <point x="66" y="1066"/>
      <point x="281" y="1453"/>
      <point x="650" y="1653"/>
    </contour>
    <contour>
      <point x="886" y="319" type="qcurve" smooth="yes"/>
      <point x="925" y="319"/>
      <point x="987" y="345"/>
      <point x="1030" y="391"/>
      <point x="1062" y="453"/>
      <point x="1080" y="526"/>
      <point x="1092" y="604"/>
      <point x="1095" y="683"/>
      <point x="1097" y="759"/>
      <point x="1096.1" y="792.635" type="qcurve" smooth="yes"/>
      <point x="1096" y="813"/>
      <point x="1096" y="823" type="qcurve" smooth="yes"/>
      <point x="1096" y="834"/>
      <point x="1096.2" y="858.024" type="qcurve" smooth="no"/>
      <point x="1095" y="894"/>
      <point x="1097" y="974"/>
      <point x="1088" y="1059"/>
      <point x="1075" y="1139"/>
      <point x="1043" y="1211"/>
      <point x="1000" y="1265"/>
      <point x="930" y="1296"/>
      <point x="886" y="1296" type="qcurve" smooth="yes"/>
      <point x="847" y="1296"/>
      <point x="784" y="1272"/>
      <point x="742" y="1229"/>
      <point x="709" y="1172"/>
      <point x="692" y="1105"/>
      <point x="679" y="1032"/>
      <point x="677" y="959"/>
      <point x="674" y="889"/>
      <point x="675.798" y="858.024" type="qcurve" smooth="no"/>
      <point x="676" y="834"/>
      <point x="676" y="823" type="qcurve" smooth="yes"/>
      <point x="676" y="813"/>
      <point x="675.903" y="792.635" type="qcurve" smooth="yes"/>
      <point x="677" y="763"/>
      <point x="675" y="697"/>
      <point x="680" y="626"/>
      <point x="686" y="556"/>
      <point x="701" y="488"/>
      <point x="721" y="428"/>
      <point x="753" y="377"/>
      <point x="794" y="340"/>
      <point x="852" y="319"/>
    </contour>
  </outline>
</glyph>
<glyph name="P" format="1">
  <advance width="1659"/>
  <unicode hex="0050"/>
  <outline>
    <contour>
      <point x="63" y="0" type="line" smooth="no"/>
      <point x="924" y="0" type="line" smooth="no"/>
      <point x="924" y="359" type="line" smooth="no"/>
      <point x="778" y="359" type="line" smooth="no"/>
      <point x="778" y="569" type="line" smooth="no"/>
      <point x="857" y="559"/>
      <point x="928" y="559" type="qcurve" smooth="yes"/>
      <point x="1081" y="559"/>
      <point x="1318" y="617"/>
      <point x="1497" y="743"/>
      <point x="1590" y="958"/>
      <point x="1588" y="1106" type="qcurve" smooth="yes"/>
      <point x="1587" y="1191"/>
      <point x="1556" y="1331"/>
      <point x="1502" y="1432"/>
      <point x="1426" y="1512"/>
      <point x="1334" y="1562"/>
      <point x="1227" y="1598"/>
      <point x="1109" y="1613"/>
      <point x="984" y="1624"/>
      <point x="854" y="1622"/>
      <point x="788.719" y="1623.22" type="qcurve" smooth="yes"/>
      <point x="773" y="1623"/>
      <point x="719" y="1623" type="line" smooth="yes"/>
      <point x="68" y="1623" type="line" smooth="no"/>
      <point x="68" y="1270" type="line" smooth="no"/>
      <point x="219" y="1270" type="line" smooth="no"/>
      <point x="219" y="359" type="line" smooth="no"/>
      <point x="63" y="359" type="line" smooth="no"/>
    </contour>
    <contour>
      <point x="778" y="1270" type="line" smooth="no"/>
      <point x="862" y="1270" type="line" smooth="yes"/>
      <point x="940" y="1270"/>
      <point x="1046" y="1186"/>
      <point x="1046" y="1096" type="qcurve" smooth="yes"/>
      <point x="1046" y="895"/>
      <point x="819" y="895" type="qcurve" smooth="yes"/>
      <point x="778" y="895" type="line" smooth="no"/>
    </contour>
  </outline>
</glyph>
<glyph name="Q" format="1">
  <advance width="1810"/>
  <unicode hex="0051"/>
  <outline>
    <contour>
      <point x="897" y="-30" type="qcurve" smooth="yes"/>
      <point x="937" y="-30"/>
      <point x="1013" y="-22" type="qcurve" smooth="no"/>
      <point x="1264" y="0" type="line" smooth="no"/>
      <point x="1748" y="0" type="line" smooth="no"/>
      <point x="1748" y="359" type="line" smooth="no"/>
      <point x="1585" y="359" type="line" smooth="no"/>
      <point x="1706" y="562"/>
      <point x="1706" y="807" type="qcurve" smooth="yes"/>
      <point x="1706" y="1001"/>
      <point x="1583" y="1321"/>
      <point x="1366" y="1535"/>
      <point x="1067" y="1652"/>
      <point x="891" y="1652" type="qcurve" smooth="yes"/>
      <point x="645" y="1652"/>
      <point x="264" y="1440"/>
      <point x="57" y="1059"/>
      <point x="57" y="815" type="qcurve" smooth="yes"/>
      <point x="57" y="565"/>
      <point x="263" y="182"/>
      <point x="645" y="-30"/>
    </contour>
    <contour>
      <point x="674" y="777" type="qcurve" smooth="yes"/>
      <point x="674" y="952"/>
      <point x="682" y="1053"/>
      <point x="697" y="1137"/>
      <point x="727" y="1204"/>
      <point x="773" y="1250"/>
      <point x="841" y="1275"/>
      <point x="886" y="1275" type="qcurve" smooth="yes"/>
      <point x="937" y="1275"/>
      <point x="1012" y="1238"/>
      <point x="1056" y="1158"/>
      <point x="1083" y="1085"/>
      <point x="1094" y="959"/>
      <point x="1096" y="887"/>
      <point x="1096" y="822" type="qcurve" smooth="yes"/>
      <point x="1096" y="807"/>
      <point x="1096.42" y="774.821" type="qcurve" smooth="no"/>
      <point x="1099" y="732"/>
      <point x="1094" y="634"/>
      <point x="1088" y="537"/>
      <point x="1061" y="447"/>
      <point x="1020" y="379"/>
      <point x="946" y="338"/>
      <point x="897" y="338" type="qcurve" smooth="yes"/>
      <point x="858" y="338"/>
      <point x="796" y="356"/>
      <point x="751" y="394"/>
      <point x="718" y="438"/>
      <point x="697" y="507"/>
      <point x="683" y="568"/>
      <point x="677" y="658"/>
      <point x="674" y="726"/>
    </contour>
  </outline>
</glyph>
<glyph name="S" format="1">
  <advance width="1331"/>
  <unicode hex="0053"/>
  <outline>
    <contour>
      <point x="868" y="1623" type="line" smooth="no"/>
      <point x="840" y="1575"/>
      <point x="836" y="1563" type="qcurve" smooth="no"/>
      <point x="717" y="1653"/>
      <point x="524" y="1653" type="qcurve" smooth="yes"/>
      <point x="301" y="1653"/>
      <point x="68" y="1371"/>
      <point x="68" y="1133" type="qcurve" smooth="yes"/>
      <point x="68" y="1067"/>
      <point x="87" y="953"/>
      <point x="119" y="861"/>
      <point x="171" y="780"/>
      <point x="229" y="718"/>
      <point x="309" y="662"/>
      <point x="386" y="621"/>
      <point x="488" y="581"/>
      <point x="578" y="552"/>
      <point x="637" y="535" type="qcurve" smooth="yes"/>
      <point x="674" y="525"/>
      <point x="724" y="503"/>
      <point x="768" y="454"/>
      <point x="768" y="420" type="qcurve" smooth="yes"/>
      <point x="768" y="379"/>
      <point x="703" y="334"/>
      <point x="659" y="334" type="qcurve" smooth="yes"/>
      <point x="586" y="334"/>
      <point x="452" y="445"/>
      <point x="426" y="518" type="qcurve" smooth="no"/>
      <point x="104" y="518" type="line" smooth="no"/>
      <point x="104" y="0" type="line" smooth="no"/>
      <point x="427" y="0" type="line" smooth="no"/>
      <point x="463" y="92" type="line" smooth="no"/>
      <point x="541" y="26"/>
      <point x="684" y="-29"/>
      <point x="792" y="-29" type="qcurve" smooth="yes"/>
      <point x="897" y="-29"/>
      <point x="1080" y="62"/>
      <point x="1203" y="212"/>
      <point x="1272" y="406"/>
      <point x="1270" y="508" type="qcurve" smooth="yes"/>
      <point x="1268" y="612"/>
      <point x="1215" y="781"/>
      <point x="1129" y="894"/>
      <point x="1019" y="981"/>
      <point x="898" y="1034"/>
      <point x="777" y="1076"/>
      <point x="668" y="1107"/>
      <point x="584" y="1139"/>
      <point x="535" y="1183"/>
      <point x="535" y="1213" type="qcurve" smooth="yes"/>
      <point x="535" y="1259"/>
      <point x="585" y="1305"/>
      <point x="629" y="1305" type="qcurve" smooth="yes"/>
      <point x="704" y="1305"/>
      <point x="828" y="1185"/>
      <point x="846" y="1107" type="qcurve" smooth="no"/>
      <point x="1153" y="1107" type="line" smooth="no"/>
      <point x="1153" y="1623" type="line" smooth="no"/>
    </contour>
  </outline>
</glyph>
<glyph name="T" format="1">
  <advance width="1595"/>
  <unicode hex="0054"/>
  <outline>
    <contour>
      <point x="1532" y="965" type="line" smooth="no"/>
      <point x="1532" y="1622" type="line" smooth="no"/>
      <point x="75" y="1622" type="line" smooth="no"/>
      <point x="75" y="965" type="line" smooth="no"/>
      <point x="356" y="965" type="line" smooth="no"/>
      <point x="420" y="1270" type="line" smooth="no"/>
      <point x="520" y="1270" type="line" smooth="no"/>
      <point x="520" y="360" type="line" smooth="no"/>
      <point x="356" y="360" type="line" smooth="no"/>
      <point x="356" y="0" type="line" smooth="no"/>
      <point x="1247" y="0" type="line" smooth="no"/>
      <point x="1247" y="360" type="line" smooth="no"/>
      <point x="1083" y="360" type="line" smooth="no"/>
      <point x="1083" y="1270" type="line" smooth="no"/>
      <point x="1189" y="1270" type="line" smooth="no"/>
      <point x="1251" y="965" type="line" smooth="no"/>
    </contour>
  </outline>
</glyph>
<glyph name="V" format="1">
  <advance width="1821"/>
  <unicode hex="0056"/>
  <outline>
    <contour>
      <point x="812" y="1270" type="line" smooth="no"/>
      <point x="928" y="1270" type="line" smooth="no"/>
      <point x="928" y="1622" type="line" smooth="no"/>
      <point x="63" y="1622" type="line" smooth="no"/>
      <point x="63" y="1270" type="line" smooth="no"/>
      <point x="229" y="1270" type="line" smooth="no"/>
      <point x="590" y="0" type="line" smooth="no"/>
      <point x="1174" y="0" type="line" smooth="no"/>
      <point x="1528" y="1032" type="line" smooth="yes"/>
      <point x="1564" y="1139"/>
      <point x="1583" y="1187"/>
      <point x="1621" y="1238"/>
      <point x="1646" y="1250"/>
      <point x="1682" y="1265"/>
      <point x="1726" y="1270"/>
      <point x="1753" y="1270" type="qcurve" smooth="no"/>
      <point x="1753" y="1622" type="line" smooth="no"/>
      <point x="1059" y="1622" type="line" smooth="no"/>
      <point x="1059" y="1270" type="line" smooth="no"/>
      <point x="1133" y="1270"/>
      <point x="1206" y="1223"/>
      <point x="1208" y="1139"/>
      <point x="1190" y="1081" type="qcurve" smooth="yes"/>
      <point x="1014" y="517" type="line" smooth="no"/>
    </contour>
  </outline>
</glyph>
<glyph name="W" format="1">
  <advance width="2617"/>
  <unicode hex="0057"/>
  <outline>
    <contour>
      <point x="75" y="1623" type="line" smooth="no"/>
      <point x="74" y="1270" type="line" smooth="no"/>
      <point x="218" y="1270" type="line" smooth="no"/>
      <point x="567" y="0" type="line" smooth="no"/>
      <point x="1104" y="0" type="line" smooth="no"/>
      <point x="1306" y="706" type="line" smooth="no"/>
      <point x="1499" y="0" type="line" smooth="no"/>
      <point x="2042" y="0" type="line" smooth="no"/>
      <point x="2363" y="1148" type="line" smooth="yes"/>
      <point x="2383" y="1219"/>
      <point x="2468" y="1270"/>
      <point x="2552" y="1270" type="qcurve" smooth="no"/>
      <point x="2552" y="1623" type="line" smooth="no"/>
      <point x="1901" y="1623" type="line" smooth="no"/>
      <point x="1901" y="1270" type="line" smooth="no"/>
      <point x="1975" y="1270"/>
      <point x="2023" y="1245"/>
      <point x="2011" y="1201" type="qcurve" smooth="yes"/>
      <point x="1876" y="703" type="line" smooth="no"/>
      <point x="1623" y="1623" type="line" smooth="no"/>
      <point x="1214" y="1623" type="line" smooth="no"/>
      <point x="954" y="672" type="line" smooth="no"/>
      <point x="795" y="1270" type="line" smooth="no"/>
      <point x="936" y="1270" type="line" smooth="no"/>
      <point x="936" y="1623" type="line" smooth="no"/>
    </contour>
  </outline>
</glyph>
<glyph name="Y" format="1">
  <advance width="1690"/>
  <unicode hex="0059"/>
  <outline>
    <contour>
      <point x="1632" y="1622" type="line" smooth="no"/>
      <point x="995" y="1622" type="line" smooth="no"/>
      <point x="995" y="1270" type="line" smooth="no"/>
      <point x="1068" y="1270"/>
      <point x="1094" y="1263"/>
      <point x="1109" y="1245"/>
      <point x="1112" y="1230"/>
      <point x="1112" y="1221" type="qcurve" smooth="yes"/>
      <point x="1112" y="1166"/>
      <point x="998" y="993" type="qcurve" smooth="no"/>
      <point x="977" y="1023"/>
      <point x="836" y="1240"/>
      <point x="814" y="1270" type="qcurve" smooth="no"/>
      <point x="905" y="1270" type="line" smooth="no"/>
      <point x="905" y="1622" type="line" smooth="no"/>
      <point x="53" y="1622" type="line" smooth="no"/>
      <point x="53" y="1270" type="line" smooth="no"/>
      <point x="165" y="1270" type="line" smooth="no"/>
      <point x="586" y="672" type="line" smooth="no"/>
      <point x="586" y="359" type="line" smooth="no"/>
      <point x="431" y="359" type="line" smooth="no"/>
      <point x="431" y="0" type="line" smooth="no"/>
      <point x="1300" y="0" type="line" smooth="no"/>
      <point x="1300" y="359" type="line" smooth="no"/>
      <point x="1143" y="359" type="line" smooth="no"/>
      <point x="1143" y="724" type="line" smooth="no"/>
      <point x="1347" y="1095" type="line" smooth="yes"/>
      <point x="1371" y="1140"/>
      <point x="1394" y="1179"/>
      <point x="1434" y="1233"/>
      <point x="1470" y="1254"/>
      <point x="1523" y="1270"/>
      <point x="1558" y="1270" type="qcurve" smooth="yes"/>
      <point x="1632" y="1270" type="line" smooth="no"/>
    </contour>
  </outline>
</glyph>
<glyph name="Z" format="1">
  <advance width="1548"/>
  <unicode hex="005a"/>
  <outline>
    <contour>
      <point x="1464" y="1622" type="line" smooth="no"/>
      <point x="70" y="1622" type="line" smooth="no"/>
      <point x="70" y="938" type="line" smooth="no"/>
      <point x="358" y="938" type="line" smooth="no"/>
      <point x="438" y="1270" type="line" smooth="no"/>
      <point x="753" y="1270" type="line" smooth="no"/>
      <point x="74" y="350" type="line" smooth="no"/>
      <point x="75" y="0" type="line" smooth="no"/>
      <point x="1484" y="0" type="line" smooth="no"/>
      <point x="1485" y="705" type="line" smooth="no"/>
      <point x="1203" y="705" type="line" smooth="no"/>
      <point x="1096" y="359" type="line" smooth="no"/>
      <point x="787" y="359" type="line" smooth="no"/>
      <point x="1464" y="1293" type="line" smooth="no"/>
    </contour>
  </outline>
</glyph>
<glyph name="bracketleft" format="1">
  <advance width="1417"/>
  <unicode hex="005b"/>
  <outline>
    <contour>
      <point x="70" y="0" type="line" smooth="no"/>
      <point x="70" y="1623" type="line" smooth="no"/>
      <point x="784" y="1623" type="line" smooth="no"/>
      <point x="784" y="1322" type="line" smooth="no"/>
      <point x="587" y="1322" type="line" smooth="no"/>
      <point x="587" y="311" type="line" smooth="no"/>
      <point x="780" y="311" type="line" smooth="no"/>
      <point x="779" y="0" type="line" smooth="no"/>
    </contour>
  </outline>
</glyph>
<glyph name="bracketright" format="1">
  <advance width="1417"/>
  <unicode hex="005d"/>
  <outline>
    <contour>
      <point x="784" y="0" type="line" smooth="no"/>
      <point x="784" y="1623" type="line" smooth="no"/>
      <point x="70" y="1623" type="line" smooth="no"/>
      <point x="70" y="1322" type="line" smooth="no"/>
      <point x="267" y="1322" type="line" smooth="no"/>
      <point x="267" y="311" type="line" smooth="no"/>
      <point x="74" y="311" type="line" smooth="no"/>
      <point x="75" y="0" type="line" smooth="no"/>
    </contour>
  </outline>
</glyph>
<glyph name="asciicircum" format="1">
  <advance width="1707"/>
  <unicode hex="005e"/>
  <outline>
    <contour>
      <point x="1088" y="1624" type="line" smooth="no"/>
      <point x="1584" y="909" type="line" smooth="no"/>
      <point x="1119" y="909" type="line" smooth="no"/>
      <point x="903" y="1242" type="line" smooth="no"/>
      <point x="687" y="909" type="line" smooth="no"/>
      <point x="222" y="909" type="line" smooth="no"/>
      <point x="718" y="1624" type="line" smooth="no"/>
    </contour>
  </outline>
</glyph>
<glyph name="underscore" format="1">
  <advance width="1707"/>
  <unicode hex="005f"/>
  <outline>
    <contour>
      <point x="0" y="-1" type="line" smooth="no"/>
      <point x="0" y="-224" type="line" smooth="no"/>
      <point x="1193" y="-224" type="line" smooth="no"/>
      <point x="1193" y="-1" type="line" smooth="no"/>
    </contour>
  </outline>
</glyph>
<glyph name="b" format="1">
  <advance width="1432"/>
  <unicode hex="0062"/>
  <outline>
    <contour>
      <point x="629" y="1631" type="line" smooth="no"/>
      <point x="63" y="1631" type="line" smooth="no"/>
      <point x="63" y="1325" type="line" smooth="no"/>
      <point x="147" y="1325" type="line" smooth="no"/>
      <point x="147" y="0" type="line" smooth="no"/>
      <point x="597" y="0" type="line" smooth="no"/>
      <point x="637" y="102" type="line" smooth="no"/>
      <point x="734.606" y="32.4297"/>
      <point x="772.342" y="14.1022" type="qcurve" smooth="yes"/>
      <point x="838.441" y="-18"/>
      <point x="913" y="-18" type="qcurve" smooth="yes"/>
      <point x="1006" y="-18"/>
      <point x="1163" y="44"/>
      <point x="1273" y="150"/>
      <point x="1350" y="292"/>
      <point x="1386" y="452"/>
      <point x="1386" y="538" type="qcurve" smooth="yes"/>
      <point x="1386" y="619"/>
      <point x="1351" y="776"/>
      <point x="1278" y="919"/>
      <point x="1173" y="1028"/>
      <point x="1023" y="1092"/>
      <point x="934" y="1092" type="qcurve" smooth="yes"/>
      <point x="786" y="1092"/>
      <point x="629" y="965" type="qcurve" smooth="no"/>
    </contour>
    <contour>
      <point x="633" y="662" type="line" smooth="no"/>
      <point x="642" y="679"/>
      <point x="668" y="712"/>
      <point x="696" y="737"/>
      <point x="743" y="758"/>
      <point x="768" y="758" type="qcurve" smooth="yes"/>
      <point x="807" y="758"/>
      <point x="864" y="724"/>
      <point x="896" y="676"/>
      <point x="915" y="607"/>
      <point x="920" y="550"/>
      <point x="920" y="519" type="qcurve" smooth="yes"/>
      <point x="920" y="427"/>
      <point x="834" y="328"/>
      <point x="768" y="328" type="qcurve" smooth="yes"/>
      <point x="732" y="328"/>
      <point x="664" y="362"/>
      <point x="648.5" y="379" type="qcurve" smooth="yes"/>
      <point x="633" y="396" type="line" smooth="no"/>
    </contour>
  </outline>
</glyph>
<glyph name="c" format="1">
  <advance width="1122"/>
  <unicode hex="0063"/>
  <outline>
    <contour>
      <point x="54" y="546" type="qcurve" smooth="yes"/>
      <point x="54" y="368"/>
      <point x="201" y="109"/>
      <point x="448" y="-18"/>
      <point x="606" y="-18" type="qcurve" smooth="yes"/>
      <point x="732" y="-18"/>
      <point x="980" y="55"/>
      <point x="1049" y="124" type="qcurve" smooth="no"/>
      <point x="1049" y="425" type="line" smooth="no"/>
      <point x="809" y="425" type="line" smooth="no"/>
      <point x="808" y="420"/>
      <point x="805" y="402"/>
      <point x="788" y="357"/>
      <point x="763" y="323"/>
      <point x="714" y="295"/>
      <point x="682" y="295" type="qcurve" smooth="yes"/>
      <point x="639" y="295"/>
      <point x="576" y="335"/>
      <point x="542" y="401"/>
      <point x="527" y="473"/>
      <point x="527" y="513" type="qcurve" smooth="yes"/>
      <point x="527" y="648"/>
      <point x="619" y="778"/>
      <point x="682" y="778" type="qcurve" smooth="yes"/>
      <point x="733" y="778"/>
      <point x="805" y="694"/>
      <point x="805" y="628" type="qcurve" smooth="no"/>
      <point x="1047" y="628" type="line" smooth="no"/>
      <point x="1047" y="1072" type="line" smooth="no"/>
      <point x="872" y="1072" type="line" smooth="no"/>
      <point x="831" y="995" type="line" smooth="no"/>
      <point x="710" y="1092"/>
      <point x="573" y="1092" type="qcurve" smooth="yes"/>
      <point x="456" y="1092"/>
      <point x="258" y="1003"/>
      <point x="127" y="853"/>
      <point x="54" y="655"/>
    </contour>
  </outline>
</glyph>
<glyph name="d" format="1">
  <advance width="1438"/>
  <unicode hex="0064"/>
  <outline>
    <contour>
      <point x="1370" y="305" type="line" smooth="no"/>
      <point x="1293" y="305" type="line" smooth="no"/>
      <point x="1292" y="1640" type="line" smooth="no"/>
      <point x="707" y="1640" type="line" smooth="no"/>
      <point x="707" y="1335" type="line" smooth="no"/>
      <point x="797" y="1335" type="line" smooth="no"/>
      <point x="797" y="960" type="line" smooth="no"/>
      <point x="729" y="1029"/>
      <point x="590" y="1090"/>
      <point x="498" y="1090" type="qcurve" smooth="yes"/>
      <point x="395" y="1090"/>
      <point x="220" y="996"/>
      <point x="106" y="842"/>
      <point x="43" y="650"/>
      <point x="43" y="550" type="qcurve" smooth="yes"/>
      <point x="43" y="445"/>
      <point x="101" y="247"/>
      <point x="211" y="82"/>
      <point x="393" y="-19"/>
      <point x="506" y="-19" type="qcurve" smooth="no"/>
      <point x="596" y="-18"/>
      <point x="750" y="60"/>
      <point x="801" y="128" type="qcurve" smooth="no"/>
      <point x="801" y="0" type="line" smooth="no"/>
      <point x="1370" y="0" type="line" smooth="no"/>
    </contour>
    <contour>
      <point x="801" y="415" type="line" smooth="no"/>
      <point x="792" y="398"/>
      <point x="766" y="365"/>
      <point x="738" y="340"/>
      <point x="691" y="319"/>
      <point x="666" y="319" type="qcurve" smooth="yes"/>
      <point x="627" y="319"/>
      <point x="570" y="353"/>
      <point x="538" y="401"/>
      <point x="519" y="470"/>
      <point x="514" y="527"/>
      <point x="514" y="558" type="qcurve" smooth="yes"/>
      <point x="514" y="650"/>
      <point x="600" y="749"/>
      <point x="666" y="749" type="qcurve" smooth="yes"/>
      <point x="702" y="749"/>
      <point x="770" y="715"/>
      <point x="785.5" y="698" type="qcurve" smooth="yes"/>
      <point x="801" y="681" type="line" smooth="no"/>
    </contour>
  </outline>
</glyph>
<glyph name="f" format="1">
  <advance width="864"/>
  <unicode hex="0066"/>
  <outline>
    <contour>
      <point x="134" y="1207" type="qcurve" smooth="no"/>
      <point x="136" y="1075"/>
      <point x="136" y="1072" type="qcurve" smooth="no"/>
      <point x="53" y="1072" type="line" smooth="no"/>
      <point x="53" y="761" type="line" smooth="no"/>
      <point x="137" y="761" type="line" smooth="no"/>
      <point x="137" y="305" type="line" smooth="no"/>
      <point x="53" y="305" type="line" smooth="no"/>
      <point x="53" y="0" type="line" smooth="no"/>
      <point x="733" y="0" type="line" smooth="no"/>
      <point x="733" y="305" type="line" smooth="no"/>
      <point x="623" y="305" type="line" smooth="no"/>
      <point x="623" y="761" type="line" smooth="no"/>
      <point x="795" y="761" type="line" smooth="no"/>
      <point x="795" y="1072" type="line" smooth="no"/>
      <point x="616" y="1072" type="line" smooth="no"/>
      <point x="610" y="1180"/>
      <point x="663" y="1265"/>
      <point x="726" y="1265" type="qcurve" smooth="yes"/>
      <point x="764" y="1265"/>
      <point x="822" y="1252" type="qcurve" smooth="no"/>
      <point x="822" y="1563" type="line" smooth="no"/>
      <point x="808" y="1568"/>
      <point x="755" y="1584"/>
      <point x="594" y="1610"/>
      <point x="514" y="1610" type="qcurve" smooth="yes"/>
      <point x="134" y="1610"/>
    </contour>
  </outline>
</glyph>
<glyph name="h" format="1">
  <advance width="1448"/>
  <unicode hex="0068"/>
  <outline>
    <contour>
      <point x="74" y="0" type="line" smooth="no"/>
      <point x="727" y="0" type="line" smooth="no"/>
      <point x="727" y="305" type="line" smooth="no"/>
      <point x="647" y="305" type="line" smooth="no"/>
      <point x="647" y="626" type="line" smooth="yes"/>
      <point x="647" y="744"/>
      <point x="748" y="744" type="qcurve" smooth="yes"/>
      <point x="830" y="744"/>
      <point x="831" y="619" type="qcurve" smooth="no"/>
      <point x="831" y="0" type="line" smooth="no"/>
      <point x="1407" y="0" type="line" smooth="no"/>
      <point x="1407" y="305" type="line" smooth="no"/>
      <point x="1321" y="305" type="line" smooth="no"/>
      <point x="1321" y="702" type="line" smooth="yes"/>
      <point x="1321" y="891"/>
      <point x="1133" y="1090"/>
      <point x="963" y="1090" type="qcurve" smooth="yes"/>
      <point x="928" y="1090"/>
      <point x="863" y="1078"/>
      <point x="818" y="1065"/>
      <point x="763" y="1031"/>
      <point x="737" y="1013"/>
      <point x="685" y="962"/>
      <point x="643" y="916" type="line" smooth="no"/>
      <point x="643" y="1640" type="line" smooth="no"/>
      <point x="70" y="1640" type="line" smooth="no"/>
      <point x="70" y="1332" type="line" smooth="no"/>
      <point x="154" y="1332" type="line" smooth="no"/>
      <point x="154" y="305" type="line" smooth="no"/>
      <point x="75" y="305" type="line" smooth="no"/>
    </contour>
  </outline>
</glyph>
<glyph name="i" format="1">
  <advance width="774"/>
  <unicode hex="0069"/>
  <outline>
    <contour>
      <point x="633" y="1072" type="line" smooth="no"/>
      <point x="63" y="1072" type="line" smooth="no"/>
      <point x="63" y="761" type="line" smooth="no"/>
      <point x="152" y="761" type="line" smooth="no"/>
      <point x="152" y="305" type="line" smooth="no"/>
      <point x="70" y="305" type="line" smooth="no"/>
      <point x="70" y="0" type="line" smooth="no"/>
      <point x="717" y="0" type="line" smooth="no"/>
      <point x="717" y="305" type="line" smooth="no"/>
      <point x="633" y="305" type="line" smooth="no"/>
    </contour>
    <contour>
      <point x="352" y="1135" type="qcurve" smooth="yes"/>
      <point x="233" y="1135"/>
      <point x="75" y="1270"/>
      <point x="75" y="1385" type="qcurve" smooth="yes"/>
      <point x="75" y="1498"/>
      <point x="230" y="1630"/>
      <point x="352" y="1630" type="qcurve" smooth="yes"/>
      <point x="479" y="1630"/>
      <point x="639" y="1498"/>
      <point x="639" y="1385" type="qcurve" smooth="yes"/>
      <point x="639" y="1270"/>
      <point x="474" y="1135"/>
    </contour>
  </outline>
</glyph>
<glyph name="j" format="1">
  <advance width="737"/>
  <unicode hex="006a"/>
  <outline>
    <contour>
      <point x="51" y="-72" type="qcurve" smooth="no"/>
      <point x="53" y="-398" type="line" smooth="no"/>
      <point x="226" y="-398"/>
      <point x="461" y="-334"/>
      <point x="599" y="-198"/>
      <point x="657" y="-8"/>
      <point x="657" y="129" type="qcurve" smooth="yes"/>
      <point x="657" y="1072" type="line" smooth="no"/>
      <point x="68" y="1072" type="line" smooth="no"/>
      <point x="68" y="760" type="line" smooth="no"/>
      <point x="158" y="760" type="line" smooth="no"/>
      <point x="158" y="-9" type="line" smooth="yes"/>
      <point x="158" y="-46"/>
      <point x="87" y="-76"/>
    </contour>
    <contour>
      <point x="373" y="1135" type="qcurve" smooth="yes"/>
      <point x="254" y="1135"/>
      <point x="96" y="1270"/>
      <point x="96" y="1385" type="qcurve" smooth="yes"/>
      <point x="96" y="1498"/>
      <point x="251" y="1630"/>
      <point x="373" y="1630" type="qcurve" smooth="yes"/>
      <point x="500" y="1630"/>
      <point x="660" y="1498"/>
      <point x="660" y="1385" type="qcurve" smooth="yes"/>
      <point x="660" y="1270"/>
      <point x="495" y="1135"/>
    </contour>
  </outline>
</glyph>
<glyph name="l" format="1">
  <advance width="791"/>
  <unicode hex="006c"/>
  <outline>
    <contour>
      <point x="647" y="1630" type="line" smooth="no"/>
      <point x="68" y="1630" type="line" smooth="no"/>
      <point x="68" y="1317" type="line" smooth="no"/>
      <point x="152" y="1317" type="line" smooth="no"/>
      <point x="152" y="305" type="line" smooth="no"/>
      <point x="78" y="305" type="line" smooth="no"/>
      <point x="78" y="0" type="line" smooth="no"/>
      <point x="725" y="0" type="line" smooth="no"/>
      <point x="725" y="305" type="line" smooth="no"/>
      <point x="647" y="305" type="line" smooth="no"/>
    </contour>
  </outline>
</glyph>
<glyph name="m" format="1">
  <advance width="2054"/>
  <unicode hex="006d"/>
  <outline>
    <contour>
      <point x="1354" y="0" type="line" smooth="no"/>
      <point x="1354" y="305" type="line" smooth="no"/>
      <point x="1269" y="305" type="line" smooth="no"/>
      <point x="1269" y="579" type="line" smooth="yes"/>
      <point x="1269" y="603"/>
      <point x="1270" y="629"/>
      <point x="1274" y="675"/>
      <point x="1285" y="701"/>
      <point x="1302" y="730"/>
      <point x="1332" y="743"/>
      <point x="1352" y="743" type="qcurve" smooth="yes"/>
      <point x="1388" y="743"/>
      <point x="1428" y="689"/>
      <point x="1430" y="662" type="qcurve" smooth="yes"/>
      <point x="1432" y="635" type="line" smooth="no"/>
      <point x="1432" y="0" type="line" smooth="no"/>
      <point x="1991" y="0" type="line" smooth="no"/>
      <point x="1991" y="305" type="line" smooth="no"/>
      <point x="1917" y="305" type="line" smooth="no"/>
      <point x="1917" y="729" type="line" smooth="yes"/>
      <point x="1917" y="824"/>
      <point x="1861" y="967"/>
      <point x="1762" y="1051"/>
      <point x="1639" y="1092"/>
      <point x="1567" y="1092" type="qcurve" smooth="yes"/>
      <point x="1370" y="1092"/>
      <point x="1248" y="891" type="qcurve" smooth="no"/>
      <point x="1201" y="988"/>
      <point x="1042" y="1092"/>
      <point x="950" y="1092" type="qcurve" smooth="yes"/>
      <point x="861" y="1092"/>
      <point x="692" y="996"/>
      <point x="629" y="902" type="qcurve" smooth="no"/>
      <point x="629" y="1072" type="line" smooth="no"/>
      <point x="69" y="1072" type="line" smooth="no"/>
      <point x="69" y="761" type="line" smooth="no"/>
      <point x="143" y="761" type="line" smooth="no"/>
      <point x="143" y="299" type="line" smooth="no"/>
      <point x="70" y="299" type="line" smooth="no"/>
      <point x="70" y="0" type="line" smooth="no"/>
      <point x="707" y="0" type="line" smooth="no"/>
      <point x="707" y="303" type="line" smooth="no"/>
      <point x="627" y="303" type="line" smooth="no"/>
      <point x="627" y="541" type="line" smooth="yes"/>
      <point x="627" y="638.728"/>
      <point x="635.515" y="671.008" type="qcurve" smooth="yes"/>
      <point x="653.188" y="738"/>
      <point x="713" y="738" type="qcurve" smooth="yes"/>
      <point x="791" y="738"/>
      <point x="791" y="638" type="qcurve" smooth="yes"/>
      <point x="791" y="0" type="line" smooth="no"/>
    </contour>
  </outline>
</glyph>
<glyph name="n" format="1">
  <advance width="1537"/>
  <unicode hex="006e"/>
  <outline>
    <contour>
      <point x="677" y="1072" type="line" smooth="no"/>
      <point x="114" y="1072" type="line" smooth="no"/>
      <point x="114" y="761" type="line" smooth="no"/>
      <point x="190" y="761" type="line" smooth="no"/>
      <point x="190" y="305" type="line" smooth="no"/>
      <point x="107" y="305" type="line" smooth="no"/>
      <point x="107" y="0" type="line" smooth="no"/>
      <point x="765" y="0" type="line" smooth="no"/>
      <point x="765" y="305" type="line" smooth="no"/>
      <point x="677" y="305" type="line" smooth="no"/>
      <point x="677" y="624" type="line" smooth="yes"/>
      <point x="677" y="671"/>
      <point x="734" y="737"/>
      <point x="781" y="737" type="qcurve" smooth="yes"/>
      <point x="817" y="737"/>
      <point x="871" y="675"/>
      <point x="871" y="627" type="qcurve" smooth="yes"/>
      <point x="871" y="0" type="line" smooth="no"/>
      <point x="1445" y="0" type="line" smooth="no"/>
      <point x="1445" y="305" type="line" smooth="no"/>
      <point x="1365" y="305" type="line" smooth="no"/>
      <point x="1365" y="680" type="line" smooth="yes"/>
      <point x="1365" y="1092"/>
      <point x="1035" y="1092" type="qcurve" smooth="yes"/>
      <point x="917" y="1092"/>
      <point x="732" y="1001"/>
      <point x="677" y="916" type="qcurve" smooth="no"/>
    </contour>
  </outline>
</glyph>
<glyph name="p" format="1">
  <advance width="1442"/>
  <unicode hex="0070"/>
  <outline>
    <contour>
      <point x="727" y="-397" type="line" smooth="no"/>
      <point x="727" y="-96" type="line" smooth="no"/>
      <point x="616" y="-96" type="line" smooth="no"/>
      <point x="616" y="119" type="line" smooth="no"/>
      <point x="657" y="86"/>
      <point x="697" y="57"/>
      <point x="784" y="6"/>
      <point x="875" y="-17"/>
      <point x="927" y="-17" type="qcurve" smooth="yes"/>
      <point x="1036" y="-17"/>
      <point x="1213" y="78"/>
      <point x="1322" y="237"/>
      <point x="1380" y="434"/>
      <point x="1380" y="541" type="qcurve" smooth="yes"/>
      <point x="1380" y="649"/>
      <point x="1320" y="847"/>
      <point x="1209" y="1001"/>
      <point x="1035" y="1093"/>
      <point x="929" y="1093" type="qcurve" smooth="yes"/>
      <point x="836" y="1093"/>
      <point x="701" y="1028"/>
      <point x="637" y="956" type="qcurve" smooth="no"/>
      <point x="627" y="956" type="line" smooth="no"/>
      <point x="627" y="1072" type="line" smooth="no"/>
      <point x="63" y="1072" type="line" smooth="no"/>
      <point x="63" y="761" type="line" smooth="no"/>
      <point x="137" y="761" type="line" smooth="no"/>
      <point x="137" y="-94" type="line" smooth="no"/>
      <point x="53" y="-94" type="line" smooth="no"/>
      <point x="53" y="-398" type="line" smooth="no"/>
    </contour>
    <contour>
      <point x="616" y="417" type="line" smooth="no"/>
      <point x="616" y="645" type="line" smooth="no"/>
      <point x="617" y="649"/>
      <point x="621" y="661"/>
      <point x="641" y="694"/>
      <point x="668" y="719"/>
      <point x="717" y="739"/>
      <point x="748" y="739" type="qcurve" smooth="yes"/>
      <point x="911" y="739"/>
      <point x="911" y="545" type="qcurve" smooth="yes"/>
      <point x="911" y="501"/>
      <point x="896" y="424"/>
      <point x="861" y="352"/>
      <point x="793" y="310"/>
      <point x="745" y="310" type="qcurve" smooth="yes"/>
      <point x="713" y="310"/>
      <point x="663" y="332"/>
      <point x="637" y="364"/>
      <point x="620" y="395"/>
      <point x="618" y="406" type="qcurve" smooth="yes"/>
    </contour>
  </outline>
</glyph>
<glyph name="q" format="1">
  <advance width="1438"/>
  <unicode hex="0071"/>
  <outline>
    <contour>
      <point x="715" y="-397" type="line" smooth="no"/>
      <point x="715" y="-96" type="line" smooth="no"/>
      <point x="826" y="-96" type="line" smooth="no"/>
      <point x="826" y="128" type="line" smooth="no"/>
      <point x="765" y="77"/>
      <point x="693" y="27"/>
      <point x="639" y="4"/>
      <point x="557" y="-17"/>
      <point x="515" y="-17" type="qcurve" smooth="yes"/>
      <point x="423" y="-17"/>
      <point x="271" y="49"/>
      <point x="167" y="162"/>
      <point x="95" y="314"/>
      <point x="62" y="481"/>
      <point x="62" y="571" type="qcurve" smooth="yes"/>
      <point x="62" y="673"/>
      <point x="127" y="861"/>
      <point x="243" y="1006"/>
      <point x="419" y="1092"/>
      <point x="523" y="1092" type="qcurve" smooth="yes"/>
      <point x="620" y="1092"/>
      <point x="755" y="1042"/>
      <point x="825" y="985" type="qcurve" smooth="no"/>
      <point x="835" y="985" type="line" smooth="no"/>
      <point x="899" y="1072" type="line" smooth="no"/>
      <point x="1379" y="1072" type="line" smooth="no"/>
      <point x="1379" y="761" type="line" smooth="no"/>
      <point x="1305" y="761" type="line" smooth="no"/>
      <point x="1305" y="-94" type="line" smooth="no"/>
      <point x="1389" y="-94" type="line" smooth="no"/>
      <point x="1389" y="-398" type="line" smooth="no"/>
    </contour>
    <contour>
      <point x="826" y="526" type="qcurve" smooth="no"/>
      <point x="832" y="557"/>
      <point x="821" y="641"/>
      <point x="799" y="716"/>
      <point x="738" y="768"/>
      <point x="694" y="768" type="qcurve" smooth="yes"/>
      <point x="551" y="768"/>
      <point x="551" y="554" type="qcurve" smooth="yes"/>
      <point x="551" y="496"/>
      <point x="573" y="402"/>
      <point x="642" y="329"/>
      <point x="697" y="329" type="qcurve" smooth="yes"/>
      <point x="741" y="329"/>
      <point x="802" y="395"/>
      <point x="826" y="481"/>
    </contour>
  </outline>
</glyph>
<glyph name="r" format="1">
  <advance width="1016"/>
  <unicode hex="0072"/>
  <outline>
    <contour>
      <point x="63" y="761" type="line" smooth="no"/>
      <point x="142" y="761" type="line" smooth="no"/>
      <point x="142" y="305" type="line" smooth="no"/>
      <point x="63" y="305" type="line" smooth="no"/>
      <point x="63" y="0" type="line" smooth="no"/>
      <point x="737" y="0" type="line" smooth="no"/>
      <point x="737" y="305" type="line" smooth="no"/>
      <point x="600" y="305" type="line" smooth="no"/>
      <point x="600" y="426" type="line" smooth="yes"/>
      <point x="600" y="547"/>
      <point x="726" y="674"/>
      <point x="836" y="674" type="qcurve" smooth="no"/>
      <point x="942" y="667" type="line" smooth="no"/>
      <point x="942" y="1083" type="line" smooth="no"/>
      <point x="843" y="1083"/>
      <point x="659" y="989"/>
      <point x="610" y="905" type="qcurve" smooth="no"/>
      <point x="606" y="909" type="line" smooth="no"/>
      <point x="606" y="1072" type="line" smooth="no"/>
      <point x="63" y="1072" type="line" smooth="no"/>
    </contour>
  </outline>
</glyph>
<glyph name="s" format="1">
  <advance width="1059"/>
  <unicode hex="0073"/>
  <outline>
    <contour>
      <point x="975" y="761" type="line" smooth="no"/>
      <point x="975" y="1081" type="line" smooth="no"/>
      <point x="807" y="1081" type="line" smooth="no"/>
      <point x="780" y="1033" type="line" smooth="no"/>
      <point x="770" y="1040"/>
      <point x="730" y="1059"/>
      <point x="578" y="1092"/>
      <point x="486" y="1092" type="qcurve" smooth="yes"/>
      <point x="365" y="1092"/>
      <point x="184" y="1022"/>
      <point x="74" y="863"/>
      <point x="74" y="746" type="qcurve" smooth="yes"/>
      <point x="74" y="669"/>
      <point x="129" y="553"/>
      <point x="216" y="485"/>
      <point x="321" y="436"/>
      <point x="427" y="402"/>
      <point x="514" y="370"/>
      <point x="569" y="321"/>
      <point x="569" y="287" type="qcurve" smooth="yes"/>
      <point x="569" y="249"/>
      <point x="502" y="209"/>
      <point x="461" y="209" type="qcurve" smooth="yes"/>
      <point x="395" y="209"/>
      <point x="303" y="318"/>
      <point x="291" y="387" type="qcurve" smooth="no"/>
      <point x="70" y="387" type="line" smooth="no"/>
      <point x="63" y="9" type="line" smooth="no"/>
      <point x="240" y="9" type="line" smooth="no"/>
      <point x="276" y="76" type="line" smooth="no"/>
      <point x="376" y="-18"/>
      <point x="584" y="-18" type="qcurve" smooth="yes"/>
      <point x="787" y="-18"/>
      <point x="995" y="192"/>
      <point x="995" y="395" type="qcurve" smooth="yes"/>
      <point x="995" y="621"/>
      <point x="754" y="719" type="qcurve" smooth="yes"/>
      <point x="740" y="724"/>
      <point x="646" y="748"/>
      <point x="576" y="770"/>
      <point x="516" y="816"/>
      <point x="516" y="846" type="qcurve" smooth="yes"/>
      <point x="516" y="881"/>
      <point x="571" y="920"/>
      <point x="608" y="920" type="qcurve" smooth="yes"/>
      <point x="642" y="920"/>
      <point x="712" y="884"/>
      <point x="731" y="856" type="qcurve" smooth="yes"/>
      <point x="735" y="851"/>
      <point x="757" y="803"/>
      <point x="765.5" y="782" type="qcurve" smooth="yes"/>
      <point x="774" y="761" type="line" smooth="no"/>
    </contour>
  </outline>
</glyph>
<glyph name="v" format="1">
  <advance width="1432"/>
  <unicode hex="0076"/>
  <outline>
    <contour>
      <point x="817" y="1072" type="line" smooth="no"/>
      <point x="817" y="761" type="line" smooth="no"/>
      <point x="877" y="761"/>
      <point x="932" y="723"/>
      <point x="916" y="680" type="qcurve" smooth="yes"/>
      <point x="785" y="338" type="line" smooth="no"/>
      <point x="616" y="761" type="line" smooth="no"/>
      <point x="707" y="761" type="line" smooth="no"/>
      <point x="707" y="1072" type="line" smooth="no"/>
      <point x="63" y="1072" type="line" smooth="no"/>
      <point x="63" y="761" type="line" smooth="no"/>
      <point x="137" y="761" type="line" smooth="no"/>
      <point x="457" y="0" type="line" smooth="no"/>
      <point x="930" y="0" type="line" smooth="no"/>
      <point x="1221" y="682" type="line" smooth="yes"/>
      <point x="1238" y="723"/>
      <point x="1298" y="761"/>
      <point x="1364" y="761" type="qcurve" smooth="no"/>
      <point x="1364" y="1072" type="line" smooth="no"/>
    </contour>
  </outline>
</glyph>
<glyph name="x" format="1">
  <advance width="1264"/>
  <unicode hex="0078"/>
  <outline>
    <contour>
      <point x="1194" y="305" type="line" smooth="no"/>
      <point x="1083" y="305" type="line" smooth="no"/>
      <point x="890" y="580" type="line" smooth="no"/>
      <point x="1053" y="761" type="line" smooth="no"/>
      <point x="1163" y="761" type="line" smooth="no"/>
      <point x="1163" y="1072" type="line" smooth="no"/>
      <point x="909" y="1072" type="line" smooth="no"/>
      <point x="724" y="821" type="line" smooth="no"/>
      <point x="562" y="1072" type="line" smooth="no"/>
      <point x="88" y="1072" type="line" smooth="no"/>
      <point x="88" y="761" type="line" smooth="no"/>
      <point x="197" y="761" type="line" smooth="no"/>
      <point x="379" y="512" type="line" smooth="no"/>
      <point x="199" y="305" type="line" smooth="no"/>
      <point x="68" y="305" type="line" smooth="no"/>
      <point x="68" y="0" type="line" smooth="no"/>
      <point x="345" y="0" type="line" smooth="no"/>
      <point x="552" y="277" type="line" smooth="no"/>
      <point x="741" y="0" type="line" smooth="no"/>
      <point x="1194" y="0" type="line" smooth="no"/>
    </contour>
  </outline>
</glyph>
<glyph name="z" format="1">
  <advance width="1221"/>
  <unicode hex="007a"/>
  <outline>
    <contour>
      <point x="68" y="0" type="line" smooth="no"/>
      <point x="1153" y="0" type="line" smooth="no"/>
      <point x="1153" y="451" type="line" smooth="no"/>
      <point x="970" y="451" type="line" smooth="no"/>
      <point x="960" y="414"/>
      <point x="939" y="365"/>
      <point x="908" y="332"/>
      <point x="883" y="315"/>
      <point x="829" y="306"/>
      <point x="790" y="305"/>
      <point x="748" y="305" type="qcurve" smooth="yes"/>
      <point x="647" y="305" type="line" smooth="no"/>
      <point x="647" y="316" type="line" smooth="no"/>
      <point x="1116" y="795" type="line" smooth="no"/>
      <point x="1116" y="1072" type="line" smooth="no"/>
      <point x="94" y="1072" type="line" smooth="no"/>
      <point x="94" y="636" type="line" smooth="no"/>
      <point x="291" y="636" type="line" smooth="no"/>
      <point x="291" y="659"/>
      <point x="298" y="695"/>
      <point x="316" y="721"/>
      <point x="333" y="740"/>
      <point x="392" y="758"/>
      <point x="442" y="760"/>
      <point x="472" y="761"/>
      <point x="502" y="761" type="qcurve" smooth="yes"/>
      <point x="562" y="761" type="line" smooth="no"/>
      <point x="562" y="750" type="line" smooth="no"/>
      <point x="68" y="283" type="line" smooth="no"/>
    </contour>
  </outline>
</glyph>
<glyph name="braceleft" format="1">
  <advance width="957"/>
  <unicode hex="007b"/>
  <outline>
    <contour>
      <point x="199" y="1128" type="qcurve" smooth="yes"/>
      <point x="199" y="1096"/>
      <point x="188" y="1048"/>
      <point x="157" y="997"/>
      <point x="87" y="967"/>
      <point x="34" y="965" type="qcurve" smooth="no"/>
      <point x="34" y="722" type="line" smooth="no"/>
      <point x="87" y="720"/>
      <point x="157" y="690"/>
      <point x="188" y="639"/>
      <point x="199" y="591"/>
      <point x="199" y="559" type="qcurve" smooth="yes"/>
      <point x="199" y="441"/>
      <point x="278" y="236"/>
      <point x="432" y="75"/>
      <point x="684" y="-17"/>
      <point x="845" y="-17" type="qcurve" smooth="no"/>
      <point x="845" y="314" type="line" smooth="no"/>
      <point x="683" y="314"/>
      <point x="683" y="560" type="qcurve" smooth="yes"/>
      <point x="683" y="751"/>
      <point x="432" y="843" type="qcurve" smooth="no"/>
      <point x="683" y="936"/>
      <point x="683" y="1127" type="qcurve" smooth="yes"/>
      <point x="683" y="1373"/>
      <point x="845" y="1373" type="qcurve" smooth="no"/>
      <point x="845" y="1704" type="line" smooth="no"/>
      <point x="684" y="1704"/>
      <point x="432" y="1612"/>
      <point x="278" y="1451"/>
      <point x="199" y="1246"/>
    </contour>
  </outline>
</glyph>
<glyph name="bar" format="1">
  <advance width="791"/>
  <unicode hex="007c"/>
  <outline>
    <contour>
      <point x="202" y="1623" type="line" smooth="no"/>
      <point x="202" y="0" type="line" smooth="no"/>
      <point x="597" y="0" type="line" smooth="no"/>
      <point x="597" y="1623" type="line" smooth="no"/>
    </contour>
  </outline>
</glyph>
<glyph name="braceright" format="1">
  <advance width="1780"/>
  <unicode hex="007d"/>
  <outline>
    <contour>
      <point x="896" y="1128" type="qcurve" smooth="yes"/>
      <point x="896" y="1096"/>
      <point x="907" y="1048"/>
      <point x="938" y="997"/>
      <point x="1008" y="967"/>
      <point x="1061" y="965" type="qcurve" smooth="no"/>
      <point x="1061" y="722" type="line" smooth="no"/>
      <point x="1008" y="720"/>
      <point x="938" y="690"/>
      <point x="907" y="639"/>
      <point x="896" y="591"/>
      <point x="896" y="559" type="qcurve" smooth="yes"/>
      <point x="896" y="441"/>
      <point x="817" y="236"/>
      <point x="663" y="75"/>
      <point x="411" y="-17"/>
      <point x="250" y="-17" type="qcurve" smooth="no"/>
      <point x="250" y="314" type="line" smooth="no"/>
      <point x="412" y="314"/>
      <point x="412" y="560" type="qcurve" smooth="yes"/>
      <point x="412" y="751"/>
      <point x="663" y="843" type="qcurve" smooth="no"/>
      <point x="412" y="936"/>
      <point x="412" y="1127" type="qcurve" smooth="yes"/>
      <point x="412" y="1373"/>
      <point x="250" y="1373" type="qcurve" smooth="no"/>
      <point x="250" y="1704" type="line" smooth="no"/>
      <point x="411" y="1704"/>
      <point x="663" y="1612"/>
      <point x="817" y="1451"/>
      <point x="896" y="1246"/>
    </contour>
  </outline>
</glyph>
<glyph name="asciitilde" format="1">
  <advance width="1707"/>
  <unicode hex="007e"/>
  <outline>
    <contour>
      <point x="1090" y="629" type="qcurve" smooth="yes"/>
      <point x="1148" y="629"/>
      <point x="1240" y="681"/>
      <point x="1308" y="776"/>
      <point x="1418" y="996"/>
      <point x="1442" y="1032" type="qcurve" smooth="no"/>
      <point x="1313" y="1117" type="line" smooth="no"/>
      <point x="1210" y="993"/>
      <point x="1129" y="923"/>
      <point x="1104" y="923" type="qcurve" smooth="yes"/>
      <point x="1060" y="923"/>
      <point x="954" y="964"/>
      <point x="749" y="1081"/>
      <point x="630" y="1122"/>
      <point x="575" y="1122" type="qcurve" smooth="yes"/>
      <point x="517" y="1122"/>
      <point x="424" y="1071"/>
      <point x="356" y="976"/>
      <point x="306" y="883"/>
      <point x="245" y="757"/>
      <point x="221" y="720" type="qcurve" smooth="no"/>
      <point x="352" y="634" type="line" smooth="no"/>
      <point x="461" y="764"/>
      <point x="537" y="832"/>
      <point x="564" y="832" type="qcurve" smooth="yes"/>
      <point x="608" y="832"/>
      <point x="713" y="790"/>
      <point x="916" y="671"/>
      <point x="1035" y="629"/>
    </contour>
  </outline>
</glyph>
<glyph name="exclamdown" format="1">
  <advance width="760"/>
  <unicode hex="00a1"/>
  <outline>
    <contour>
      <point x="589" y="1072" type="line" smooth="no"/>
      <point x="168" y="1074" type="line" smooth="no"/>
      <point x="86" y="299" type="line" smooth="no"/>
      <point x="86" y="0" type="line" smooth="no"/>
      <point x="673" y="0" type="line" smooth="no"/>
      <point x="673" y="299" type="line" smooth="no"/>
    </contour>
    <contour>
      <point x="378" y="1158" type="qcurve" smooth="yes"/>
      <point x="259" y="1158"/>
      <point x="101" y="1293"/>
      <point x="101" y="1408" type="qcurve" smooth="yes"/>
      <point x="101" y="1521"/>
      <point x="256" y="1653"/>
      <point x="378" y="1653" type="qcurve" smooth="yes"/>
      <point x="505" y="1653"/>
      <point x="665" y="1521"/>
      <point x="665" y="1408" type="qcurve" smooth="yes"/>
      <point x="665" y="1293"/>
      <point x="500" y="1158"/>
    </contour>
  </outline>
</glyph>
<glyph name="cent" format="1">
  <advance width="1122"/>
  <unicode hex="00a2"/>
  <outline>
    <contour>
      <point x="619" y="1362" type="line" smooth="no"/>
      <point x="619" y="1089" type="line" smooth="no"/>
      <point x="596" y="1092"/>
      <point x="573" y="1092" type="qcurve" smooth="yes"/>
      <point x="456" y="1092"/>
      <point x="258" y="1003"/>
      <point x="127" y="853"/>
      <point x="54" y="655"/>
      <point x="54" y="546" type="qcurve" smooth="yes"/>
      <point x="54" y="368"/>
      <point x="201" y="109"/>
      <point x="448" y="-18"/>
      <point x="606" y="-18" type="qcurve" smooth="yes"/>
      <point x="619" y="-18" type="line" smooth="no"/>
      <point x="619" y="-261" type="line" smooth="no"/>
      <point x="731" y="-261" type="line" smooth="no"/>
      <point x="731" y="-9" type="line" smooth="no"/>
      <point x="946" y="21"/>
      <point x="1049" y="124" type="qcurve" smooth="no"/>
      <point x="1049" y="425" type="line" smooth="no"/>
      <point x="809" y="425" type="line" smooth="no"/>
      <point x="809" y="421"/>
      <point x="806" y="409"/>
      <point x="796" y="375"/>
      <point x="780" y="345"/>
      <point x="750" y="313"/>
      <point x="731" y="305" type="qcurve" smooth="no"/>
      <point x="731" y="766" type="line" smooth="no"/>
      <point x="764" y="750"/>
      <point x="805" y="677"/>
      <point x="805" y="628" type="qcurve" smooth="no"/>
      <point x="1047" y="628" type="line" smooth="no"/>
      <point x="1047" y="1072" type="line" smooth="no"/>
      <point x="872" y="1072" type="line" smooth="no"/>
      <point x="831" y="995" type="line" smooth="no"/>
      <point x="781" y="1034"/>
      <point x="731" y="1057" type="qcurve" smooth="no"/>
      <point x="731" y="1362" type="line" smooth="no"/>
    </contour>
    <contour>
      <point x="527" y="513" type="qcurve" smooth="yes"/>
      <point x="527" y="701"/>
      <point x="619" y="759" type="qcurve" smooth="no"/>
      <point x="619" y="309" type="line" smooth="no"/>
      <point x="571" y="332"/>
      <point x="527" y="446"/>
    </contour>
  </outline>
</glyph>
<glyph name="sterling" format="1">
  <advance width="1321"/>
  <unicode hex="00a3"/>
  <outline>
    <contour>
      <point x="747" y="519" type="line" smooth="no"/>
      <point x="747" y="760" type="line" smooth="no"/>
      <point x="1000" y="760" type="line" smooth="no"/>
      <point x="1000" y="993" type="line" smooth="no"/>
      <point x="747" y="993" type="line" smooth="no"/>
      <point x="747" y="1117" type="line" smooth="yes"/>
      <point x="747" y="1198"/>
      <point x="865" y="1265"/>
      <point x="976" y="1265" type="qcurve" smooth="yes"/>
      <point x="1062" y="1265"/>
      <point x="1184" y="1252" type="qcurve" smooth="no"/>
      <point x="1184" y="1563" type="line" smooth="no"/>
      <point x="1052" y="1609"/>
      <point x="867" y="1609" type="qcurve" smooth="yes"/>
      <point x="780" y="1609"/>
      <point x="616" y="1583"/>
      <point x="459" y="1522"/>
      <point x="344" y="1432"/>
      <point x="273" y="1293"/>
      <point x="273" y="1207" type="qcurve" smooth="yes"/>
      <point x="273" y="993" type="line" smooth="no"/>
      <point x="149" y="993" type="line" smooth="no"/>
      <point x="149" y="760" type="line" smooth="no"/>
      <point x="273" y="760" type="line" smooth="no"/>
      <point x="273" y="520" type="line" smooth="yes"/>
      <point x="273" y="410"/>
      <point x="225" y="327"/>
      <point x="163" y="327" type="qcurve" smooth="yes"/>
      <point x="125" y="327"/>
      <point x="67" y="340" type="qcurve" smooth="no"/>
      <point x="67" y="29" type="line" smooth="no"/>
      <point x="238" y="-19"/>
      <point x="350" y="-19" type="qcurve" smooth="yes"/>
      <point x="588" y="-19"/>
      <point x="692" y="153" type="qcurve" smooth="no"/>
      <point x="692" y="-18"/>
      <point x="946" y="-18" type="qcurve" smooth="yes"/>
      <point x="1081" y="-18"/>
      <point x="1218" y="29" type="qcurve" smooth="no"/>
      <point x="1218" y="340" type="line" smooth="no"/>
      <point x="1119" y="331"/>
      <point x="1043" y="331" type="qcurve" smooth="yes"/>
      <point x="958" y="331"/>
      <point x="810" y="348"/>
      <point x="778.5" y="356.5" type="qcurve" smooth="yes"/>
      <point x="747" y="365" type="line" smooth="no"/>
    </contour>
  </outline>
</glyph>
<glyph name="currency" format="1">
  <advance width="1707"/>
  <unicode hex="00a4"/>
  <outline>
    <contour>
      <point x="115" y="1097" type="qcurve" smooth="yes"/>
      <point x="115" y="879"/>
      <point x="237" y="734" type="qcurve" smooth="no"/>
      <point x="163" y="660" type="line" smooth="no"/>
      <point x="266" y="557" type="line" smooth="no"/>
      <point x="347" y="638" type="line" smooth="no"/>
      <point x="495" y="540"/>
      <point x="689" y="540" type="qcurve" smooth="yes"/>
      <point x="887" y="540"/>
      <point x="1038" y="643" type="qcurve" smooth="no"/>
      <point x="1124" y="557" type="line" smooth="no"/>
      <point x="1227" y="660" type="line" smooth="no"/>
      <point x="1146" y="741" type="line" smooth="no"/>
      <point x="1263" y="884"/>
      <point x="1263" y="1097" type="qcurve" smooth="yes"/>
      <point x="1263" y="1302"/>
      <point x="1153" y="1444" type="qcurve" smooth="no"/>
      <point x="1227" y="1518" type="line" smooth="no"/>
      <point x="1124" y="1621" type="line" smooth="no"/>
      <point x="1047" y="1544" type="line" smooth="no"/>
      <point x="894" y="1654"/>
      <point x="689" y="1654" type="qcurve" smooth="yes"/>
      <point x="490" y="1654"/>
      <point x="337" y="1549" type="qcurve" smooth="no"/>
      <point x="266" y="1621" type="line" smooth="no"/>
      <point x="163" y="1518" type="line" smooth="no"/>
      <point x="230" y="1450" type="line" smooth="no"/>
      <point x="115" y="1307"/>
    </contour>
    <contour>
      <point x="1069" y="1002"/>
      <point x="1004" y="847"/>
      <point x="895" y="752"/>
      <point x="761" y="701"/>
      <point x="617" y="701"/>
      <point x="483" y="752"/>
      <point x="374" y="847"/>
      <point x="309" y="1002"/>
      <point x="309" y="1192"/>
      <point x="374" y="1347"/>
      <point x="483" y="1442"/>
      <point x="617" y="1493"/>
      <point x="761" y="1493"/>
      <point x="895" y="1442"/>
      <point x="1004" y="1347"/>
      <point x="1069" y="1192"/>
    </contour>
  </outline>
</glyph>
<glyph name="yen" format="1">
  <advance width="1690"/>
  <unicode hex="00a5"/>
  <outline>
    <contour>
      <point x="164" y="936" type="line" smooth="no"/>
      <point x="164" y="762" type="line" smooth="no"/>
      <point x="523" y="762" type="line" smooth="no"/>
      <point x="586" y="672" type="line" smooth="no"/>
      <point x="586" y="630" type="line" smooth="no"/>
      <point x="164" y="630" type="line" smooth="no"/>
      <point x="164" y="456" type="line" smooth="no"/>
      <point x="586" y="456" type="line" smooth="no"/>
      <point x="586" y="371" type="line" smooth="no"/>
      <point x="431" y="371" type="line" smooth="no"/>
      <point x="431" y="0" type="line" smooth="no"/>
      <point x="1300" y="0" type="line" smooth="no"/>
      <point x="1300" y="371" type="line" smooth="no"/>
      <point x="1143" y="371" type="line" smooth="no"/>
      <point x="1143" y="456" type="line" smooth="no"/>
      <point x="1557" y="456" type="line" smooth="no"/>
      <point x="1557" y="630" type="line" smooth="no"/>
      <point x="1143" y="630" type="line" smooth="no"/>
      <point x="1143" y="762" type="line" smooth="no"/>
      <point x="1557" y="762" type="line" smooth="no"/>
      <point x="1557" y="936" type="line" smooth="no"/>
      <point x="1246" y="936" type="line" smooth="no"/>
      <point x="1347" y="1095" type="line" smooth="no"/>
      <point x="1394" y="1179"/>
      <point x="1435" y="1234"/>
      <point x="1470" y="1255"/>
      <point x="1523" y="1272"/>
      <point x="1558" y="1272" type="qcurve" smooth="yes"/>
      <point x="1632" y="1272" type="line" smooth="no"/>
      <point x="1632" y="1622" type="line" smooth="no"/>
      <point x="995" y="1622" type="line" smooth="no"/>
      <point x="995" y="1272" type="line" smooth="no"/>
      <point x="1069.55" y="1272"/>
      <point x="1085.01" y="1266.45" type="qcurve" smooth="yes"/>
      <point x="1112" y="1256.75"/>
      <point x="1112" y="1221" type="qcurve" smooth="yes"/>
      <point x="1112" y="1166"/>
      <point x="998" y="993" type="qcurve" smooth="no"/>
      <point x="836" y="1244"/>
      <point x="814" y="1274" type="qcurve" smooth="no"/>
      <point x="905" y="1274" type="line" smooth="no"/>
      <point x="905" y="1622" type="line" smooth="no"/>
      <point x="53" y="1622" type="line" smooth="no"/>
      <point x="53" y="1274" type="line" smooth="no"/>
      <point x="165" y="1274" type="line" smooth="no"/>
      <point x="401" y="936" type="line" smooth="no"/>
    </contour>
  </outline>
</glyph>
<glyph name="brokenbar" format="1">
  <advance width="791"/>
  <unicode hex="00a6"/>
  <outline>
    <contour>
      <point x="202" y="721" type="line" smooth="no"/>
      <point x="202" y="0" type="line" smooth="no"/>
      <point x="597" y="0" type="line" smooth="no"/>
      <point x="597" y="721" type="line" smooth="no"/>
    </contour>
    <contour>
      <point x="202" y="1623" type="line" smooth="no"/>
      <point x="202" y="902" type="line" smooth="no"/>
      <point x="597" y="902" type="line" smooth="no"/>
      <point x="597" y="1623" type="line" smooth="no"/>
    </contour>
  </outline>
</glyph>
<glyph name="dieresis" format="1">
  <advance width="1707"/>
  <unicode hex="00a8"/>
  <outline>
    <contour>
      <point x="720" y="1342" type="qcurve" smooth="yes"/>
      <point x="720" y="1234"/>
      <point x="587" y="1112"/>
      <point x="496" y="1112" type="qcurve" smooth="yes"/>
      <point x="403" y="1112"/>
      <point x="268" y="1235"/>
      <point x="268" y="1345" type="qcurve" smooth="yes"/>
      <point x="268" y="1452"/>
      <point x="402" y="1572"/>
      <point x="586" y="1572"/>
      <point x="720" y="1451"/>
    </contour>
    <contour>
      <point x="1337" y="1342" type="qcurve" smooth="yes"/>
      <point x="1337" y="1234"/>
      <point x="1204" y="1112"/>
      <point x="1113" y="1112" type="qcurve" smooth="yes"/>
      <point x="1020" y="1112"/>
      <point x="885" y="1235"/>
      <point x="885" y="1345" type="qcurve" smooth="yes"/>
      <point x="885" y="1452"/>
      <point x="1019" y="1572"/>
      <point x="1203" y="1572"/>
      <point x="1337" y="1451"/>
    </contour>
  </outline>
</glyph>
<glyph name="copyright" format="1">
  <advance width="1769"/>
  <unicode hex="00a9"/>
  <outline>
    <contour>
      <point x="53" y="628"/>
      <point x="186" y="328"/>
      <point x="411" y="111"/>
      <point x="722" y="-18"/>
      <point x="1064" y="-18"/>
      <point x="1375" y="111"/>
      <point x="1600" y="328"/>
      <point x="1733" y="628"/>
      <point x="1733" y="956"/>
      <point x="1600" y="1256"/>
      <point x="1375" y="1473"/>
      <point x="1064" y="1602"/>
      <point x="722" y="1602"/>
      <point x="411" y="1473"/>
      <point x="186" y="1256"/>
      <point x="53" y="956"/>
    </contour>
    <contour>
      <point x="227" y="925"/>
      <point x="333" y="1168"/>
      <point x="512" y="1344"/>
      <point x="758" y="1448"/>
      <point x="893" y="1448" type="qcurve" smooth="yes"/>
      <point x="1073" y="1448"/>
      <point x="1380" y="1272"/>
      <point x="1559" y="970"/>
      <point x="1559" y="614"/>
      <point x="1380" y="312"/>
      <point x="1073" y="136"/>
      <point x="893" y="136" type="qcurve" smooth="yes"/>
      <point x="758" y="136"/>
      <point x="512" y="240"/>
      <point x="333" y="416"/>
      <point x="227" y="659"/>
    </contour>
    <contour>
      <point x="1265" y="658" type="line" smooth="no"/>
      <point x="1074" y="658" type="line" smooth="no"/>
      <point x="1072" y="611"/>
      <point x="1069" y="598" type="qcurve" smooth="yes"/>
      <point x="1059" y="547"/>
      <point x="982" y="488"/>
      <point x="930" y="488" type="qcurve" smooth="yes"/>
      <point x="904" y="488"/>
      <point x="862" y="501"/>
      <point x="831" y="520"/>
      <point x="807" y="555"/>
      <point x="791" y="584"/>
      <point x="780" y="634"/>
      <point x="774" y="665"/>
      <point x="772" y="723"/>
      <point x="771" y="748"/>
      <point x="772" y="805"/>
      <point x="772" y="812" type="qcurve" smooth="yes"/>
      <point x="772" y="847"/>
      <point x="774" y="897"/>
      <point x="783" y="968"/>
      <point x="803" y="1017"/>
      <point x="835" y="1064"/>
      <point x="887" y="1088"/>
      <point x="922" y="1088" type="qcurve" smooth="yes"/>
      <point x="975" y="1088"/>
      <point x="1045" y="1026"/>
      <point x="1071" y="944"/>
      <point x="1070" y="898" type="qcurve" smooth="no"/>
      <point x="1259" y="898" type="line" smooth="no"/>
      <point x="1259" y="1299" type="line" smooth="no"/>
      <point x="1062" y="1299" type="line" smooth="no"/>
      <point x="1040" y="1254" type="line" smooth="no"/>
      <point x="974" y="1318"/>
      <point x="812" y="1318" type="qcurve" smooth="yes"/>
      <point x="723" y="1318"/>
      <point x="575" y="1256"/>
      <point x="476" y="1152"/>
      <point x="408" y="1012"/>
      <point x="378" y="860"/>
      <point x="378" y="780" type="qcurve" smooth="yes"/>
      <point x="378" y="536"/>
      <point x="629" y="252"/>
      <point x="865" y="252" type="qcurve" smooth="yes"/>
      <point x="931" y="252"/>
      <point x="1063" y="282"/>
      <point x="1155" y="325"/>
      <point x="1229" y="368"/>
      <point x="1247" y="383" type="qcurve" smooth="yes"/>
      <point x="1265" y="398" type="line" smooth="no"/>
    </contour>
  </outline>
</glyph>
<glyph name="ordfeminine" format="1">
  <advance width="1337"/>
  <unicode hex="00aa"/>
  <outline>
    <contour>
      <point x="57.0596" y="1046.25" type="qcurve" smooth="yes"/>
      <point x="57.0596" y="936.316"/>
      <point x="224.558" y="805.719"/>
      <point x="344.095" y="805.719" type="qcurve" smooth="yes"/>
      <point x="404.601" y="805.719"/>
      <point x="532.992" y="858.843"/>
      <point x="569.886" y="906.803" type="qcurve" smooth="no"/>
      <point x="606.78" y="819" type="line" smooth="no"/>
      <point x="955.06" y="819" type="line" smooth="no"/>
      <point x="955.06" y="1044.04" type="line" smooth="no"/>
      <point x="898.98" y="1044.04" type="line" smooth="no"/>
      <point x="898.98" y="1372.38" type="line" smooth="yes"/>
      <point x="898.98" y="1423.29"/>
      <point x="861.349" y="1505.19"/>
      <point x="806.008" y="1556.84"/>
      <point x="722.627" y="1594.47"/>
      <point x="651.053" y="1612.91"/>
      <point x="558.817" y="1623.24"/>
      <point x="510.117" y="1624.72"/>
      <point x="479.864" y="1624.72" type="qcurve" smooth="yes"/>
      <point x="400.911" y="1624.72"/>
      <point x="222.345" y="1598.89"/>
      <point x="172.906" y="1585.98" type="qcurve" smooth="yes"/>
      <point x="123.469" y="1573.07" type="line" smooth="no"/>
      <point x="123.469" y="1341.39" type="line" smooth="no"/>
      <point x="252.598" y="1341.39" type="line" smooth="no"/>
      <point x="305.725" y="1411.48"/>
      <point x="411.241" y="1411.48" type="qcurve" smooth="yes"/>
      <point x="566.935" y="1411.48"/>
      <point x="566.935" y="1289" type="qcurve" smooth="yes"/>
      <point x="566.935" y="1255.8" type="line" smooth="no"/>
      <point x="485.768" y="1283.84"/>
      <point x="378.037" y="1283.84" type="qcurve" smooth="yes"/>
      <point x="316.793" y="1283.84"/>
      <point x="203.897" y="1253.59"/>
      <point x="112.4" y="1196.04"/>
      <point x="57.0596" y="1103.07"/>
    </contour>
    <contour>
      <point x="418.62" y="1059.54" type="qcurve" smooth="yes"/>
      <point x="418.62" y="1091.26"/>
      <point x="464.369" y="1142.17"/>
      <point x="496.098" y="1142.17" type="qcurve" smooth="yes"/>
      <point x="512.331" y="1142.17"/>
      <point x="548.487" y="1134.79"/>
      <point x="558.817" y="1130.74" type="qcurve" smooth="yes"/>
      <point x="569.147" y="1126.68" type="line" smooth="no"/>
      <point x="569.147" y="1018.22" type="line" smooth="no"/>
      <point x="566.196" y="1014.53"/>
      <point x="554.391" y="1003.46"/>
      <point x="513.069" y="984.275"/>
      <point x="489.457" y="984.275" type="qcurve" smooth="yes"/>
      <point x="456.99" y="984.275"/>
      <point x="418.62" y="1026.33"/>
    </contour>
  </outline>
</glyph>
<glyph name="guillemotleft" format="1">
  <advance width="1707"/>
  <unicode hex="00ab"/>
  <outline>
    <contour>
      <point x="793" y="399" type="line" smooth="no"/>
      <point x="1219" y="-5" type="line" smooth="no"/>
      <point x="1410" y="219" type="line" smooth="no"/>
      <point x="1095" y="534" type="line" smooth="no"/>
      <point x="1410" y="849" type="line" smooth="no"/>
      <point x="1219" y="1073" type="line" smooth="no"/>
      <point x="793" y="669" type="line" smooth="no"/>
    </contour>
    <contour>
      <point x="183" y="399" type="line" smooth="no"/>
      <point x="609" y="-5" type="line" smooth="no"/>
      <point x="800" y="219" type="line" smooth="no"/>
      <point x="485" y="534" type="line" smooth="no"/>
      <point x="800" y="849" type="line" smooth="no"/>
      <point x="609" y="1073" type="line" smooth="no"/>
      <point x="183" y="669" type="line" smooth="no"/>
    </contour>
  </outline>
</glyph>
<glyph name="logicalnot" format="1">
  <advance width="1707"/>
  <unicode hex="00ac"/>
  <outline>
    <contour>
      <point x="320" y="1092" type="line" smooth="no"/>
      <point x="1331" y="1092" type="line" smooth="no"/>
      <point x="1331" y="542" type="line" smooth="no"/>
      <point x="1100" y="542" type="line" smooth="no"/>
      <point x="1100" y="761" type="line" smooth="no"/>
      <point x="321" y="761" type="line" smooth="no"/>
    </contour>
  </outline>
</glyph>
<glyph name="registered" format="1">
  <advance width="1769"/>
  <unicode hex="00ae"/>
  <outline>
    <contour>
      <point x="53" y="628"/>
      <point x="186" y="328"/>
      <point x="411" y="111"/>
      <point x="722" y="-18"/>
      <point x="1064" y="-18"/>
      <point x="1375" y="111"/>
      <point x="1600" y="328"/>
      <point x="1733" y="628"/>
      <point x="1733" y="956"/>
      <point x="1600" y="1256"/>
      <point x="1375" y="1473"/>
      <point x="1064" y="1602"/>
      <point x="722" y="1602"/>
      <point x="411" y="1473"/>
      <point x="186" y="1256"/>
      <point x="53" y="956"/>
    </contour>
    <contour>
      <point x="227" y="925"/>
      <point x="333" y="1168"/>
      <point x="512" y="1344"/>
      <point x="758" y="1448"/>
      <point x="893" y="1448" type="qcurve" smooth="yes"/>
      <point x="1073" y="1448"/>
      <point x="1380" y="1272"/>
      <point x="1559" y="970"/>
      <point x="1559" y="614"/>
      <point x="1380" y="312"/>
      <point x="1073" y="136"/>
      <point x="893" y="136" type="qcurve" smooth="yes"/>
      <point x="758" y="136"/>
      <point x="512" y="240"/>
      <point x="333" y="416"/>
      <point x="227" y="659"/>
    </contour>
    <contour>
      <point x="913" y="568" type="line" smooth="no"/>
      <point x="846" y="568" type="line" smooth="no"/>
      <point x="846" y="749" type="line" smooth="no"/>
      <point x="900" y="749" type="line" smooth="yes"/>
      <point x="963" y="749"/>
      <point x="1004" y="681"/>
      <point x="1004" y="614" type="qcurve" smooth="yes"/>
      <point x="1004" y="505" type="line" smooth="yes"/>
      <point x="1004" y="464"/>
      <point x="1032" y="408"/>
      <point x="1068" y="380"/>
      <point x="1136" y="365"/>
      <point x="1180" y="363"/>
      <point x="1220" y="363" type="qcurve" smooth="yes"/>
      <point x="1366" y="363" type="line" smooth="no"/>
      <point x="1366" y="562" type="line" smooth="no"/>
      <point x="1308" y="562"/>
      <point x="1275" y="589"/>
      <point x="1275" y="622" type="qcurve" smooth="yes"/>
      <point x="1275" y="674" type="line" smooth="yes"/>
      <point x="1275" y="725"/>
      <point x="1203" y="793"/>
      <point x="1121" y="812" type="qcurve" smooth="no"/>
      <point x="1217" y="829"/>
      <point x="1321" y="933"/>
      <point x="1321" y="1014" type="qcurve" smooth="yes"/>
      <point x="1321" y="1147"/>
      <point x="1168" y="1265"/>
      <point x="1026" y="1265" type="qcurve" smooth="yes"/>
      <point x="462" y="1265" type="line" smooth="no"/>
      <point x="462" y="1061" type="line" smooth="no"/>
      <point x="548" y="1061" type="line" smooth="no"/>
      <point x="548" y="565" type="line" smooth="no"/>
      <point x="463" y="565" type="line" smooth="no"/>
      <point x="463" y="362" type="line" smooth="no"/>
      <point x="766" y="363"/>
      <point x="913" y="363" type="qcurve" smooth="no"/>
    </contour>
    <contour>
      <point x="842" y="875" type="line" smooth="no"/>
      <point x="842" y="1071" type="line" smooth="no"/>
      <point x="910" y="1071" type="line" smooth="yes"/>
      <point x="959" y="1071"/>
      <point x="1015" y="1016"/>
      <point x="1015" y="972" type="qcurve" smooth="yes"/>
      <point x="1015" y="875"/>
      <point x="876" y="875" type="qcurve" smooth="yes"/>
    </contour>
  </outline>
</glyph>
<glyph name="macron" format="1">
  <advance width="774"/>
  <unicode hex="00af"/>
  <outline>
    <contour>
      <point x="70" y="1433" type="line" smooth="no"/>
      <point x="70" y="1164" type="line" smooth="no"/>
      <point x="717" y="1164" type="line" smooth="no"/>
      <point x="717" y="1433" type="line" smooth="no"/>
    </contour>
  </outline>
</glyph>
<glyph name="degree" format="1">
  <advance width="1707"/>
  <unicode hex="00b0"/>
  <outline>
    <contour>
      <point x="591" y="1092" type="qcurve" smooth="yes"/>
      <point x="498" y="1092"/>
      <point x="390" y="1214"/>
      <point x="390" y="1296" type="qcurve" smooth="yes"/>
      <point x="390" y="1377"/>
      <point x="496" y="1495"/>
      <point x="591" y="1495" type="qcurve" smooth="yes"/>
      <point x="689" y="1495"/>
      <point x="799" y="1377"/>
      <point x="799" y="1296" type="qcurve" smooth="yes"/>
      <point x="799" y="1213"/>
      <point x="688" y="1092"/>
    </contour>
    <contour>
      <point x="591" y="951" type="qcurve" smooth="yes"/>
      <point x="678" y="951"/>
      <point x="820" y="1010"/>
      <point x="909" y="1109"/>
      <point x="957" y="1231"/>
      <point x="957" y="1297" type="qcurve" smooth="yes"/>
      <point x="957" y="1362"/>
      <point x="910" y="1480"/>
      <point x="822" y="1576"/>
      <point x="680" y="1633"/>
      <point x="591" y="1633" type="qcurve" smooth="yes"/>
      <point x="506" y="1633"/>
      <point x="368" y="1576"/>
      <point x="283" y="1480"/>
      <point x="238" y="1361"/>
      <point x="238" y="1297" type="qcurve" smooth="yes"/>
      <point x="238" y="1231"/>
      <point x="284" y="1109"/>
      <point x="370" y="1010"/>
      <point x="507" y="951"/>
    </contour>
  </outline>
</glyph>
<glyph name="uni00B2" format="1">
  <advance width="1294"/>
  <unicode hex="00b2"/>
  <outline>
    <contour>
      <point x="766" y="286" type="line" smooth="no"/>
      <point x="766" y="570" type="line" smooth="no"/>
      <point x="662" y="570" type="line" smooth="no"/>
      <point x="662" y="519"/>
      <point x="593" y="483"/>
      <point x="532" y="481" type="qcurve" smooth="no"/>
      <point x="435" y="481" type="line" smooth="no"/>
      <point x="600" y="605"/>
      <point x="651" y="671" type="qcurve" smooth="yes"/>
      <point x="715" y="752"/>
      <point x="715" y="845" type="qcurve" smooth="yes"/>
      <point x="715" y="971"/>
      <point x="537" y="1116"/>
      <point x="401" y="1121" type="qcurve" smooth="yes"/>
      <point x="318" y="1124"/>
      <point x="162" y="1067"/>
      <point x="55" y="941"/>
      <point x="55" y="858" type="qcurve" smooth="no"/>
      <point x="52" y="721"/>
      <point x="144" y="639" type="qcurve" smooth="no"/>
      <point x="281" y="744" type="line" smooth="no"/>
      <point x="243" y="779"/>
      <point x="243" y="821" type="qcurve" smooth="yes"/>
      <point x="243" y="858"/>
      <point x="286" y="907"/>
      <point x="325" y="907" type="qcurve" smooth="yes"/>
      <point x="356" y="907"/>
      <point x="404" y="849"/>
      <point x="407" y="803" type="qcurve" smooth="no"/>
      <point x="407" y="754"/>
      <point x="365" y="667"/>
      <point x="318" y="618"/>
      <point x="272" y="579" type="qcurve" smooth="yes"/>
      <point x="194" y="514"/>
      <point x="78" y="468" type="qcurve" smooth="no"/>
      <point x="78" y="286" type="line" smooth="no"/>
    </contour>
  </outline>
</glyph>
<glyph name="uni00B3" format="1">
  <advance width="1264"/>
  <unicode hex="00b3"/>
  <outline>
    <contour>
      <point x="75" y="529" type="qcurve" smooth="no"/>
      <point x="75" y="326" type="line" smooth="no"/>
      <point x="128" y="291"/>
      <point x="260" y="270"/>
      <point x="353" y="270" type="qcurve" smooth="yes"/>
      <point x="529" y="270"/>
      <point x="733" y="420"/>
      <point x="733" y="558" type="qcurve" smooth="yes"/>
      <point x="733" y="640"/>
      <point x="612" y="771"/>
      <point x="527" y="779" type="qcurve" smooth="no"/>
      <point x="694" y="916"/>
      <point x="694" y="918" type="qcurve" smooth="yes"/>
      <point x="694" y="1072" type="line" smooth="no"/>
      <point x="68" y="1072" type="line" smooth="no"/>
      <point x="68" y="807" type="line" smooth="no"/>
      <point x="181" y="806" type="line" smooth="no"/>
      <point x="188" y="833"/>
      <point x="195" y="852"/>
      <point x="212" y="881"/>
      <point x="240" y="890"/>
      <point x="262" y="890" type="qcurve" smooth="yes"/>
      <point x="390" y="890" type="line" smooth="no"/>
      <point x="390" y="884" type="line" smooth="no"/>
      <point x="190" y="714" type="line" smooth="no"/>
      <point x="190" y="621" type="line" smooth="no"/>
      <point x="191.106" y="617.881" type="line" smooth="no"/>
      <point x="202" y="616" type="line" smooth="yes"/>
      <point x="206" y="616"/>
      <point x="254" y="627"/>
      <point x="277" y="627" type="qcurve" smooth="yes"/>
      <point x="335" y="627"/>
      <point x="423" y="581"/>
      <point x="423" y="529" type="qcurve" smooth="yes"/>
      <point x="423" y="484"/>
      <point x="343" y="443"/>
      <point x="292" y="443" type="qcurve" smooth="yes"/>
      <point x="181" y="443"/>
    </contour>
  </outline>
</glyph>
<glyph name="paragraph" format="1">
  <advance width="1707"/>
  <unicode hex="00b6"/>
  <outline>
    <contour>
      <point x="784" y="739" type="line" smooth="no"/>
      <point x="651" y="739"/>
      <point x="448" y="783"/>
      <point x="292" y="881"/>
      <point x="212" y="1049"/>
      <point x="214" y="1166" type="qcurve" smooth="yes"/>
      <point x="215" y="1241"/>
      <point x="246" y="1365"/>
      <point x="301" y="1454"/>
      <point x="377" y="1525"/>
      <point x="470" y="1568"/>
      <point x="577" y="1601"/>
      <point x="695" y="1614"/>
      <point x="821" y="1624"/>
      <point x="951" y="1622"/>
      <point x="1016.97" y="1623.16" type="qcurve" smooth="yes"/>
      <point x="1061" y="1623"/>
      <point x="1083" y="1623" type="qcurve" smooth="yes"/>
      <point x="1584" y="1623" type="line" smooth="no"/>
      <point x="1584" y="1268" type="line" smooth="no"/>
      <point x="1433" y="1268" type="line" smooth="no"/>
      <point x="1433" y="363" type="line" smooth="no"/>
      <point x="1589" y="363" type="line" smooth="no"/>
      <point x="1589" y="0" type="line" smooth="no"/>
      <point x="1180" y="0" type="line" smooth="no"/>
      <point x="1180" y="1270" type="line" smooth="no"/>
      <point x="1055" y="1270" type="line" smooth="no"/>
      <point x="1055" y="0" type="line" smooth="no"/>
      <point x="638" y="0" type="line" smooth="no"/>
      <point x="638" y="363" type="line" smooth="no"/>
      <point x="784" y="363" type="line" smooth="no"/>
    </contour>
  </outline>
</glyph>
<glyph name="periodcentered" format="1">
  <advance width="1090"/>
  <unicode hex="00b7"/>
  <outline>
    <contour>
      <point x="557" y="514" type="qcurve" smooth="yes"/>
      <point x="438" y="514"/>
      <point x="280" y="649"/>
      <point x="280" y="764" type="qcurve" smooth="yes"/>
      <point x="280" y="877"/>
      <point x="435" y="1009"/>
      <point x="557" y="1009" type="qcurve" smooth="yes"/>
      <point x="684" y="1009"/>
      <point x="844" y="877"/>
      <point x="844" y="764" type="qcurve" smooth="yes"/>
      <point x="844" y="649"/>
      <point x="679" y="514"/>
    </contour>
  </outline>
</glyph>
<glyph name="uni00B9" format="1">
  <advance width="874"/>
  <unicode hex="00b9"/>
  <outline>
    <contour>
      <point x="500" y="286" type="line" smooth="no"/>
      <point x="500" y="476" type="line" smooth="no"/>
      <point x="444" y="476" type="line" smooth="no"/>
      <point x="440" y="1091" type="line" smooth="no"/>
      <point x="53" y="993" type="line" smooth="no"/>
      <point x="53" y="842" type="line" smooth="no"/>
      <point x="149" y="843" type="line" smooth="no"/>
      <point x="149" y="476" type="line" smooth="no"/>
      <point x="96" y="476" type="line" smooth="no"/>
      <point x="97" y="286" type="line" smooth="no"/>
    </contour>
  </outline>
</glyph>
<glyph name="guillemotright" format="1">
  <advance width="1707"/>
  <unicode hex="00bb"/>
  <outline>
    <contour>
      <point x="800" y="399" type="line" smooth="no"/>
      <point x="374" y="-5" type="line" smooth="no"/>
      <point x="183" y="219" type="line" smooth="no"/>
      <point x="498" y="534" type="line" smooth="no"/>
      <point x="183" y="849" type="line" smooth="no"/>
      <point x="374" y="1073" type="line" smooth="no"/>
      <point x="800" y="669" type="line" smooth="no"/>
    </contour>
    <contour>
      <point x="1410" y="399" type="line" smooth="no"/>
      <point x="984" y="-5" type="line" smooth="no"/>
      <point x="793" y="219" type="line" smooth="no"/>
      <point x="1108" y="534" type="line" smooth="no"/>
      <point x="793" y="849" type="line" smooth="no"/>
      <point x="984" y="1073" type="line" smooth="no"/>
      <point x="1410" y="669" type="line" smooth="no"/>
    </contour>
  </outline>
</glyph>
<glyph name="onequarter" format="1">
  <advance width="1722"/>
  <unicode hex="00bc"/>
  <outline>
    <contour>
      <point x="514" y="818" type="line" smooth="no"/>
      <point x="514" y="1008" type="line" smooth="no"/>
      <point x="458" y="1008" type="line" smooth="no"/>
      <point x="454" y="1623" type="line" smooth="no"/>
      <point x="67" y="1525" type="line" smooth="no"/>
      <point x="67" y="1374" type="line" smooth="no"/>
      <point x="163" y="1375" type="line" smooth="no"/>
      <point x="163" y="1008" type="line" smooth="no"/>
      <point x="110" y="1008" type="line" smooth="no"/>
      <point x="111" y="818" type="line" smooth="no"/>
    </contour>
    <contour>
      <point x="701" y="0" type="line" smooth="no"/>
      <point x="1203" y="1623" type="line" smooth="no"/>
      <point x="839" y="1623" type="line" smooth="no"/>
      <point x="348" y="0" type="line" smooth="no"/>
    </contour>
    <contour>
      <point x="1536" y="247" type="line" smooth="no"/>
      <point x="1670" y="247" type="line" smooth="no"/>
      <point x="1670" y="398" type="line" smooth="no"/>
      <point x="1537" y="397" type="line" smooth="no"/>
      <point x="1537" y="788" type="line" smooth="no"/>
      <point x="1279" y="789" type="line" smooth="no"/>
      <point x="955" y="405" type="line" smooth="no"/>
      <point x="955" y="247" type="line" smooth="no"/>
      <point x="1268" y="247" type="line" smooth="no"/>
      <point x="1268" y="170" type="line" smooth="no"/>
      <point x="1194" y="170" type="line" smooth="no"/>
      <point x="1194" y="1" type="line" smooth="no"/>
      <point x="1608" y="1" type="line" smooth="no"/>
      <point x="1608" y="170" type="line" smooth="no"/>
      <point x="1536" y="170" type="line" smooth="no"/>
    </contour>
    <contour>
      <point x="1157" y="399" type="line" smooth="no"/>
      <point x="1268" y="536" type="line" smooth="no"/>
      <point x="1268" y="398" type="line" smooth="no"/>
    </contour>
  </outline>
</glyph>
<glyph name="onehalf" format="1">
  <advance width="1790"/>
  <unicode hex="00bd"/>
  <outline>
    <contour>
      <point x="515" y="818" type="line" smooth="no"/>
      <point x="515" y="1008" type="line" smooth="no"/>
      <point x="459" y="1008" type="line" smooth="no"/>
      <point x="455" y="1623" type="line" smooth="no"/>
      <point x="68" y="1525" type="line" smooth="no"/>
      <point x="68" y="1374" type="line" smooth="no"/>
      <point x="164" y="1375" type="line" smooth="no"/>
      <point x="164" y="1008" type="line" smooth="no"/>
      <point x="111" y="1008" type="line" smooth="no"/>
      <point x="112" y="818" type="line" smooth="no"/>
    </contour>
    <contour>
      <point x="710" y="0" type="line" smooth="no"/>
      <point x="1212" y="1623" type="line" smooth="no"/>
      <point x="848" y="1623" type="line" smooth="no"/>
      <point x="357" y="0" type="line" smooth="no"/>
    </contour>
    <contour>
      <point x="1735" y="-1" type="line" smooth="no"/>
      <point x="1735" y="283" type="line" smooth="no"/>
      <point x="1631" y="283" type="line" smooth="no"/>
      <point x="1631" y="232"/>
      <point x="1562" y="196"/>
      <point x="1501" y="194" type="qcurve" smooth="no"/>
      <point x="1404" y="194" type="line" smooth="no"/>
      <point x="1569" y="318"/>
      <point x="1620" y="384" type="qcurve" smooth="yes"/>
      <point x="1684" y="465"/>
      <point x="1684" y="558" type="qcurve" smooth="yes"/>
      <point x="1684" y="684"/>
      <point x="1506" y="829"/>
      <point x="1370" y="834" type="qcurve" smooth="yes"/>
      <point x="1287" y="837"/>
      <point x="1131" y="780"/>
      <point x="1024" y="654"/>
      <point x="1024" y="571" type="qcurve" smooth="no"/>
      <point x="1021" y="434"/>
      <point x="1113" y="352" type="qcurve" smooth="no"/>
      <point x="1250" y="457" type="line" smooth="no"/>
      <point x="1212" y="492"/>
      <point x="1212" y="534" type="qcurve" smooth="yes"/>
      <point x="1212" y="571"/>
      <point x="1255" y="620"/>
      <point x="1294" y="620" type="qcurve" smooth="yes"/>
      <point x="1325" y="620"/>
      <point x="1373" y="562"/>
      <point x="1376" y="516" type="qcurve" smooth="no"/>
      <point x="1376" y="467"/>
      <point x="1334" y="380"/>
      <point x="1287" y="331"/>
      <point x="1241" y="292" type="qcurve" smooth="yes"/>
      <point x="1163" y="227"/>
      <point x="1047" y="181" type="qcurve" smooth="no"/>
      <point x="1047" y="-1" type="line" smooth="no"/>
    </contour>
  </outline>
</glyph>
<glyph name="threequarters" format="1">
  <advance width="1819"/>
  <unicode hex="00be"/>
  <outline>
    <contour>
      <point x="69" y="1081" type="qcurve" smooth="no"/>
      <point x="69" y="878" type="line" smooth="no"/>
      <point x="122" y="843"/>
      <point x="254" y="822"/>
      <point x="347" y="822" type="qcurve" smooth="yes"/>
      <point x="523" y="822"/>
      <point x="727" y="972"/>
      <point x="727" y="1110" type="qcurve" smooth="yes"/>
      <point x="727" y="1192"/>
      <point x="606" y="1323"/>
      <point x="521" y="1331" type="qcurve" smooth="no"/>
      <point x="688" y="1468"/>
      <point x="688" y="1470" type="qcurve" smooth="yes"/>
      <point x="688" y="1624" type="line" smooth="no"/>
      <point x="62" y="1624" type="line" smooth="no"/>
      <point x="62" y="1359" type="line" smooth="no"/>
      <point x="175" y="1358" type="line" smooth="no"/>
      <point x="182" y="1385"/>
      <point x="189" y="1404"/>
      <point x="206" y="1433"/>
      <point x="234" y="1442"/>
      <point x="256" y="1442" type="qcurve" smooth="yes"/>
      <point x="384" y="1442" type="line" smooth="no"/>
      <point x="384" y="1436" type="line" smooth="no"/>
      <point x="184" y="1266" type="line" smooth="no"/>
      <point x="184" y="1173" type="line" smooth="no"/>
      <point x="185.106" y="1169.88" type="line" smooth="no"/>
      <point x="187.927" y="1168"/>
      <point x="196" y="1168" type="qcurve" smooth="yes"/>
      <point x="200" y="1168"/>
      <point x="248" y="1179"/>
      <point x="271" y="1179" type="qcurve" smooth="yes"/>
      <point x="329" y="1179"/>
      <point x="417" y="1133"/>
      <point x="417" y="1081" type="qcurve" smooth="yes"/>
      <point x="417" y="1036"/>
      <point x="337" y="995"/>
      <point x="286" y="995" type="qcurve" smooth="yes"/>
      <point x="175" y="995"/>
    </contour>
    <contour>
      <point x="841" y="0" type="line" smooth="no"/>
      <point x="1343" y="1623" type="line" smooth="no"/>
      <point x="979" y="1623" type="line" smooth="no"/>
      <point x="488" y="0" type="line" smooth="no"/>
    </contour>
    <contour>
      <point x="1628" y="245" type="line" smooth="no"/>
      <point x="1762" y="245" type="line" smooth="no"/>
      <point x="1762" y="396" type="line" smooth="no"/>
      <point x="1629" y="395" type="line" smooth="no"/>
      <point x="1629" y="786" type="line" smooth="no"/>
      <point x="1371" y="787" type="line" smooth="no"/>
      <point x="1047" y="403" type="line" smooth="no"/>
      <point x="1047" y="245" type="line" smooth="no"/>
      <point x="1360" y="245" type="line" smooth="no"/>
      <point x="1360" y="168" type="line" smooth="no"/>
      <point x="1286" y="168" type="line" smooth="no"/>
      <point x="1286" y="-1" type="line" smooth="no"/>
      <point x="1700" y="-1" type="line" smooth="no"/>
      <point x="1700" y="168" type="line" smooth="no"/>
      <point x="1628" y="168" type="line" smooth="no"/>
    </contour>
    <contour>
      <point x="1249" y="397" type="line" smooth="no"/>
      <point x="1360" y="534" type="line" smooth="no"/>
      <point x="1360" y="396" type="line" smooth="no"/>
    </contour>
  </outline>
</glyph>
<glyph name="questiondown" format="1">
  <advance width="1311"/>
  <unicode hex="00bf"/>
  <outline>
    <contour>
      <point x="966" y="1180" type="line" smooth="no"/>
      <point x="619" y="1180" type="line" smooth="no"/>
      <point x="619" y="993" type="line" smooth="no"/>
      <point x="558" y="972"/>
      <point x="465" y="935"/>
      <point x="342" y="876"/>
      <point x="251" y="816"/>
      <point x="156" y="730"/>
      <point x="96" y="637"/>
      <point x="57" y="515"/>
      <point x="57" y="447" type="qcurve" smooth="yes"/>
      <point x="57" y="315"/>
      <point x="213" y="102"/>
      <point x="488" y="-18"/>
      <point x="657" y="-18" type="qcurve" smooth="yes"/>
      <point x="914" y="-18"/>
      <point x="1253" y="274"/>
      <point x="1267" y="500" type="qcurve" smooth="no"/>
      <point x="795" y="500" type="line" smooth="no"/>
      <point x="785" y="338"/>
      <point x="665" y="338" type="qcurve" smooth="yes"/>
      <point x="635" y="338"/>
      <point x="593" y="369"/>
      <point x="576" y="417"/>
      <point x="569" y="454"/>
      <point x="569" y="470" type="qcurve" smooth="yes"/>
      <point x="569" y="649"/>
      <point x="965" y="828" type="qcurve" smooth="no"/>
    </contour>
    <contour>
      <point x="786" y="1746" type="qcurve" smooth="yes"/>
      <point x="905" y="1746"/>
      <point x="1063" y="1611"/>
      <point x="1063" y="1496" type="qcurve" smooth="yes"/>
      <point x="1063" y="1383"/>
      <point x="908" y="1251"/>
      <point x="786" y="1251" type="qcurve" smooth="yes"/>
      <point x="659" y="1251"/>
      <point x="499" y="1383"/>
      <point x="499" y="1496" type="qcurve" smooth="yes"/>
      <point x="499" y="1611"/>
      <point x="664" y="1746"/>
    </contour>
  </outline>
</glyph>
<glyph name="Aacute" format="1">
  <advance width="1763"/>
  <unicode hex="00c1"/>
  <outline>
    <contour>
      <point x="1273" y="1623" type="line" smooth="no"/>
      <point x="279" y="1623" type="line" smooth="no"/>
      <point x="279" y="1270" type="line" smooth="no"/>
      <point x="491" y="1270" type="line" smooth="no"/>
      <point x="319" y="591" type="line" smooth="yes"/>
      <point x="291.645" y="486.407"/>
      <point x="280.789" y="461.743" type="qcurve" smooth="yes"/>
      <point x="247.56" y="386.246"/>
      <point x="169.649" y="367.158" type="qcurve" smooth="yes"/>
      <point x="136.353" y="359"/>
      <point x="92" y="359" type="qcurve" smooth="no"/>
      <point x="92" y="0" type="line" smooth="no"/>
      <point x="770" y="0" type="line" smooth="no"/>
      <point x="770" y="359" type="line" smooth="no"/>
      <point x="686" y="359" type="line" smooth="yes"/>
      <point x="665" y="359"/>
      <point x="643" y="431"/>
      <point x="643" y="459" type="qcurve" smooth="no"/>
      <point x="644" y="480"/>
      <point x="646" y="502"/>
      <point x="660" y="523"/>
      <point x="673" y="523" type="qcurve" smooth="yes"/>
      <point x="948" y="523" type="line" smooth="yes"/>
      <point x="1015" y="523"/>
      <point x="1015" y="359" type="qcurve" smooth="no"/>
      <point x="895" y="359" type="line" smooth="no"/>
      <point x="896" y="0" type="line" smooth="no"/>
      <point x="1722" y="0" type="line" smooth="no"/>
      <point x="1722" y="359" type="line" smooth="no"/>
      <point x="1636" y="359" type="line" smooth="yes"/>
      <point x="1621" y="359"/>
      <point x="1599" y="384"/>
      <point x="1588" y="416"/>
      <point x="1580" y="447" type="qcurve" smooth="yes"/>
    </contour>
    <contour>
      <point x="700" y="773" type="line" smooth="no"/>
      <point x="812" y="1281" type="line" smooth="no"/>
      <point x="929" y="773" type="line" smooth="no"/>
    </contour>
    <contour>
      <point x="1026" y="2270" type="line" smooth="no"/>
      <point x="552" y="1833" type="line" smooth="no"/>
      <point x="656" y="1692" type="line" smooth="no"/>
      <point x="1210" y="2005" type="line" smooth="no"/>
    </contour>
  </outline>
</glyph>
<glyph name="Atilde" format="1">
  <advance width="1763"/>
  <unicode hex="00c3"/>
  <outline>
    <contour>
      <point x="1273" y="1623" type="line" smooth="no"/>
      <point x="279" y="1623" type="line" smooth="no"/>
      <point x="279" y="1270" type="line" smooth="no"/>
      <point x="491" y="1270" type="line" smooth="no"/>
      <point x="319" y="591" type="line" smooth="yes"/>
      <point x="291.645" y="486.407"/>
      <point x="280.789" y="461.743" type="qcurve" smooth="yes"/>
      <point x="247.56" y="386.246"/>
      <point x="169.649" y="367.158" type="qcurve" smooth="yes"/>
      <point x="136.353" y="359"/>
      <point x="92" y="359" type="qcurve" smooth="no"/>
      <point x="92" y="0" type="line" smooth="no"/>
      <point x="770" y="0" type="line" smooth="no"/>
      <point x="770" y="359" type="line" smooth="no"/>
      <point x="686" y="359" type="line" smooth="yes"/>
      <point x="665" y="359"/>
      <point x="643" y="431"/>
      <point x="643" y="459" type="qcurve" smooth="no"/>
      <point x="644" y="480"/>
      <point x="646" y="502"/>
      <point x="660" y="523"/>
      <point x="673" y="523" type="qcurve" smooth="yes"/>
      <point x="948" y="523" type="line" smooth="yes"/>
      <point x="1015" y="523"/>
      <point x="1015" y="359" type="qcurve" smooth="no"/>
      <point x="895" y="359" type="line" smooth="no"/>
      <point x="896" y="0" type="line" smooth="no"/>
      <point x="1722" y="0" type="line" smooth="no"/>
      <point x="1722" y="359" type="line" smooth="no"/>
      <point x="1636" y="359" type="line" smooth="yes"/>
      <point x="1621" y="359"/>
      <point x="1599" y="384"/>
      <point x="1588" y="416"/>
      <point x="1580" y="447" type="qcurve" smooth="yes"/>
    </contour>
    <contour>
      <point x="700" y="773" type="line" smooth="no"/>
      <point x="812" y="1281" type="line" smooth="no"/>
      <point x="929" y="773" type="line" smooth="no"/>
    </contour>
    <contour>
      <point x="1055" y="2085" type="qcurve" smooth="yes"/>
      <point x="1099" y="2085"/>
      <point x="1171" y="2047"/>
      <point x="1223" y="1978"/>
      <point x="1262" y="1910"/>
      <point x="1309" y="1820"/>
      <point x="1327" y="1794" type="qcurve" smooth="no"/>
      <point x="1214" y="1720" type="line" smooth="no"/>
      <point x="1141" y="1790"/>
      <point x="1086" y="1828"/>
      <point x="1067" y="1828" type="qcurve" smooth="yes"/>
      <point x="1022" y="1828"/>
      <point x="765" y="1707"/>
      <point x="710" y="1707" type="qcurve" smooth="yes"/>
      <point x="665" y="1707"/>
      <point x="593" y="1744"/>
      <point x="540" y="1813"/>
      <point x="454" y="1971"/>
      <point x="436" y="1997" type="qcurve" smooth="no"/>
      <point x="550" y="2072" type="line" smooth="no"/>
      <point x="626" y="1999"/>
      <point x="682" y="1960"/>
      <point x="700" y="1960" type="qcurve" smooth="yes"/>
      <point x="736" y="1960"/>
      <point x="830" y="1999"/>
      <point x="908" y="2046"/>
      <point x="1010" y="2085"/>
    </contour>
  </outline>
</glyph>
<glyph name="Adieresis" format="1">
  <advance width="1763"/>
  <unicode hex="00c4"/>
  <outline>
    <contour>
      <point x="1273" y="1623" type="line" smooth="no"/>
      <point x="279" y="1623" type="line" smooth="no"/>
      <point x="279" y="1270" type="line" smooth="no"/>
      <point x="491" y="1270" type="line" smooth="no"/>
      <point x="319" y="591" type="line" smooth="yes"/>
      <point x="291.645" y="486.407"/>
      <point x="280.789" y="461.743" type="qcurve" smooth="yes"/>
      <point x="247.56" y="386.246"/>
      <point x="169.649" y="367.158" type="qcurve" smooth="yes"/>
      <point x="136.353" y="359"/>
      <point x="92" y="359" type="qcurve" smooth="no"/>
      <point x="92" y="0" type="line" smooth="no"/>
      <point x="770" y="0" type="line" smooth="no"/>
      <point x="770" y="359" type="line" smooth="no"/>
      <point x="686" y="359" type="line" smooth="yes"/>
      <point x="665" y="359"/>
      <point x="643" y="431"/>
      <point x="643" y="459" type="qcurve" smooth="no"/>
      <point x="644" y="480"/>
      <point x="646" y="502"/>
      <point x="660" y="523"/>
      <point x="673" y="523" type="qcurve" smooth="yes"/>
      <point x="948" y="523" type="line" smooth="yes"/>
      <point x="1015" y="523"/>
      <point x="1015" y="359" type="qcurve" smooth="no"/>
      <point x="895" y="359" type="line" smooth="no"/>
      <point x="896" y="0" type="line" smooth="no"/>
      <point x="1722" y="0" type="line" smooth="no"/>
      <point x="1722" y="359" type="line" smooth="no"/>
      <point x="1636" y="359" type="line" smooth="yes"/>
      <point x="1621" y="359"/>
      <point x="1599" y="384"/>
      <point x="1588" y="416"/>
      <point x="1580" y="447" type="qcurve" smooth="yes"/>
    </contour>
    <contour>
      <point x="700" y="773" type="line" smooth="no"/>
      <point x="812" y="1281" type="line" smooth="no"/>
      <point x="929" y="773" type="line" smooth="no"/>
    </contour>
    <contour>
      <point x="799" y="1904" type="qcurve" smooth="yes"/>
      <point x="799" y="1796"/>
      <point x="666" y="1674"/>
      <point x="575" y="1674" type="qcurve" smooth="yes"/>
      <point x="482" y="1674"/>
      <point x="347" y="1797"/>
      <point x="347" y="1907" type="qcurve" smooth="yes"/>
      <point x="347" y="2014"/>
      <point x="481" y="2134"/>
      <point x="665" y="2134"/>
      <point x="799" y="2013"/>
    </contour>
    <contour>
      <point x="1416" y="1904" type="qcurve" smooth="yes"/>
      <point x="1416" y="1796"/>
      <point x="1283" y="1674"/>
      <point x="1192" y="1674" type="qcurve" smooth="yes"/>
      <point x="1099" y="1674"/>
      <point x="964" y="1797"/>
      <point x="964" y="1907" type="qcurve" smooth="yes"/>
      <point x="964" y="2014"/>
      <point x="1098" y="2134"/>
      <point x="1282" y="2134"/>
      <point x="1416" y="2013"/>
    </contour>
  </outline>
</glyph>
<glyph name="Ecircumflex" format="1">
  <advance width="1421"/>
  <unicode hex="00ca"/>
  <outline>
    <contour>
      <point x="1341" y="969" type="line" smooth="no"/>
      <point x="1341" y="1623" type="line" smooth="no"/>
      <point x="73" y="1623" type="line" smooth="no"/>
      <point x="73" y="1270" type="line" smooth="no"/>
      <point x="231" y="1270" type="line" smooth="no"/>
      <point x="231" y="359" type="line" smooth="no"/>
      <point x="73" y="359" type="line" smooth="no"/>
      <point x="73" y="0" type="line" smooth="no"/>
      <point x="1352" y="0" type="line" smooth="no"/>
      <point x="1352" y="687" type="line" smooth="no"/>
      <point x="1079" y="687" type="line" smooth="no"/>
      <point x="1016" y="420" type="line" smooth="no"/>
      <point x="1003" y="359" type="line" smooth="no"/>
      <point x="784" y="359" type="line" smooth="no"/>
      <point x="784" y="636" type="line" smooth="no"/>
      <point x="989" y="636" type="line" smooth="no"/>
      <point x="989" y="988" type="line" smooth="no"/>
      <point x="784" y="988" type="line" smooth="no"/>
      <point x="784" y="1270" type="line" smooth="no"/>
      <point x="997" y="1270" type="line" smooth="no"/>
      <point x="1073" y="968" type="line" smooth="no"/>
    </contour>
    <contour>
      <point x="574" y="2163" type="line" smooth="no"/>
      <point x="301" y="1786" type="line" smooth="no"/>
      <point x="455" y="1685" type="line" smooth="no"/>
      <point x="710" y="1930" type="line" smooth="no"/>
      <point x="965" y="1685" type="line" smooth="no"/>
      <point x="1119" y="1786" type="line" smooth="no"/>
      <point x="845" y="2162" type="line" smooth="no"/>
    </contour>
  </outline>
</glyph>
<glyph name="Iacute" format="1">
  <advance width="1012"/>
  <unicode hex="00cd"/>
  <outline>
    <contour>
      <point x="938" y="1623" type="line" smooth="no"/>
      <point x="74" y="1623" type="line" smooth="no"/>
      <point x="74" y="1270" type="line" smooth="no"/>
      <point x="217" y="1270" type="line" smooth="no"/>
      <point x="217" y="359" type="line" smooth="no"/>
      <point x="70" y="359" type="line" smooth="no"/>
      <point x="70" y="0" type="line" smooth="no"/>
      <point x="932" y="0" type="line" smooth="no"/>
      <point x="932" y="359" type="line" smooth="no"/>
      <point x="791" y="359" type="line" smooth="no"/>
      <point x="791" y="1270" type="line" smooth="no"/>
      <point x="938" y="1270" type="line" smooth="no"/>
    </contour>
    <contour>
      <point x="651" y="2270" type="line" smooth="no"/>
      <point x="177" y="1833" type="line" smooth="no"/>
      <point x="281" y="1692" type="line" smooth="no"/>
      <point x="835" y="2005" type="line" smooth="no"/>
    </contour>
  </outline>
</glyph>
<glyph name="Icircumflex" format="1">
  <advance width="1012"/>
  <unicode hex="00ce"/>
  <outline>
    <contour>
      <point x="938" y="1623" type="line" smooth="no"/>
      <point x="74" y="1623" type="line" smooth="no"/>
      <point x="74" y="1270" type="line" smooth="no"/>
      <point x="217" y="1270" type="line" smooth="no"/>
      <point x="217" y="359" type="line" smooth="no"/>
      <point x="70" y="359" type="line" smooth="no"/>
      <point x="70" y="0" type="line" smooth="no"/>
      <point x="932" y="0" type="line" smooth="no"/>
      <point x="932" y="359" type="line" smooth="no"/>
      <point x="791" y="359" type="line" smooth="no"/>
      <point x="791" y="1270" type="line" smooth="no"/>
      <point x="938" y="1270" type="line" smooth="no"/>
    </contour>
    <contour>
      <point x="370" y="2163" type="line" smooth="no"/>
      <point x="97" y="1786" type="line" smooth="no"/>
      <point x="251" y="1685" type="line" smooth="no"/>
      <point x="506" y="1930" type="line" smooth="no"/>
      <point x="761" y="1685" type="line" smooth="no"/>
      <point x="915" y="1786" type="line" smooth="no"/>
      <point x="641" y="2162" type="line" smooth="no"/>
    </contour>
  </outline>
</glyph>
<glyph name="Idieresis" format="1">
  <advance width="1012"/>
  <unicode hex="00cf"/>
  <outline>
    <contour>
      <point x="938" y="1623" type="line" smooth="no"/>
      <point x="74" y="1623" type="line" smooth="no"/>
      <point x="74" y="1270" type="line" smooth="no"/>
      <point x="217" y="1270" type="line" smooth="no"/>
      <point x="217" y="359" type="line" smooth="no"/>
      <point x="70" y="359" type="line" smooth="no"/>
      <point x="70" y="0" type="line" smooth="no"/>
      <point x="932" y="0" type="line" smooth="no"/>
      <point x="932" y="359" type="line" smooth="no"/>
      <point x="791" y="359" type="line" smooth="no"/>
      <point x="791" y="1270" type="line" smooth="no"/>
      <point x="938" y="1270" type="line" smooth="no"/>
    </contour>
    <contour>
      <point x="424" y="1904" type="qcurve" smooth="yes"/>
      <point x="424" y="1796"/>
      <point x="291" y="1674"/>
      <point x="200" y="1674" type="qcurve" smooth="yes"/>
      <point x="107" y="1674"/>
      <point x="-28" y="1797"/>
      <point x="-28" y="1907" type="qcurve" smooth="yes"/>
      <point x="-28" y="2014"/>
      <point x="106" y="2134"/>
      <point x="290" y="2134"/>
      <point x="424" y="2013"/>
    </contour>
    <contour>
      <point x="1041" y="1904" type="qcurve" smooth="yes"/>
      <point x="1041" y="1796"/>
      <point x="908" y="1674"/>
      <point x="817" y="1674" type="qcurve" smooth="yes"/>
      <point x="724" y="1674"/>
      <point x="589" y="1797"/>
      <point x="589" y="1907" type="qcurve" smooth="yes"/>
      <point x="589" y="2014"/>
      <point x="723" y="2134"/>
      <point x="907" y="2134"/>
      <point x="1041" y="2013"/>
    </contour>
  </outline>
</glyph>
<glyph name="Eth" format="1">
  <advance width="1780"/>
  <unicode hex="00d0"/>
  <outline>
    <contour>
      <point x="107" y="952" type="line" smooth="no"/>
      <point x="107" y="653" type="line" smooth="no"/>
      <point x="237" y="653" type="line" smooth="no"/>
      <point x="237" y="351" type="line" smooth="no"/>
      <point x="74" y="351" type="line" smooth="no"/>
      <point x="74" y="0" type="line" smooth="no"/>
      <point x="876" y="0" type="line" smooth="yes"/>
      <point x="1078" y="0"/>
      <point x="1404" y="134"/>
      <point x="1610" y="361"/>
      <point x="1720" y="653"/>
      <point x="1720" y="816" type="qcurve" smooth="yes"/>
      <point x="1720" y="1212"/>
      <point x="1310" y="1623"/>
      <point x="898" y="1623" type="qcurve" smooth="yes"/>
      <point x="68" y="1623" type="line" smooth="no"/>
      <point x="68" y="1271" type="line" smooth="no"/>
      <point x="237" y="1271" type="line" smooth="no"/>
      <point x="237" y="952" type="line" smooth="no"/>
    </contour>
    <contour>
      <point x="788" y="351" type="line" smooth="no"/>
      <point x="785" y="653" type="line" smooth="no"/>
      <point x="870" y="653" type="line" smooth="no"/>
      <point x="870" y="952" type="line" smooth="no"/>
      <point x="784" y="952" type="line" smooth="no"/>
      <point x="784" y="1271" type="line" smooth="no"/>
      <point x="831" y="1271" type="line" smooth="yes"/>
      <point x="905" y="1271"/>
      <point x="1015" y="1214"/>
      <point x="1077" y="1127"/>
      <point x="1114" y="1001"/>
      <point x="1126" y="886"/>
      <point x="1126" y="817" type="qcurve" smooth="yes"/>
      <point x="1126" y="750"/>
      <point x="1111" y="629"/>
      <point x="1069" y="501"/>
      <point x="1003" y="410"/>
      <point x="892" y="351"/>
      <point x="819" y="351" type="qcurve" smooth="yes"/>
    </contour>
  </outline>
</glyph>
<glyph name="Ntilde" format="1">
  <advance width="1847"/>
  <unicode hex="00d1"/>
  <outline>
    <contour>
      <point x="1829" y="1622" type="line" smooth="no"/>
      <point x="1192" y="1623" type="line" smooth="no"/>
      <point x="1192" y="1270" type="line" smooth="no"/>
      <point x="1231" y="1271"/>
      <point x="1289" y="1261"/>
      <point x="1322" y="1234"/>
      <point x="1342" y="1209"/>
      <point x="1349" y="1164"/>
      <point x="1350" y="1140"/>
      <point x="1350" y="1116" type="qcurve" smooth="yes"/>
      <point x="1350" y="647" type="line" smooth="no"/>
      <point x="854" y="1623" type="line" smooth="no"/>
      <point x="119" y="1623" type="line" smooth="no"/>
      <point x="119" y="1272" type="line" smooth="no"/>
      <point x="276" y="1272" type="line" smooth="no"/>
      <point x="276" y="550" type="line" smooth="yes"/>
      <point x="276" y="512"/>
      <point x="272" y="468"/>
      <point x="255" y="411"/>
      <point x="222" y="381"/>
      <point x="159" y="359"/>
      <point x="113" y="359" type="qcurve" smooth="no"/>
      <point x="113" y="0" type="line" smooth="no"/>
      <point x="750" y="0" type="line" smooth="no"/>
      <point x="750" y="359" type="line" smooth="no"/>
      <point x="665" y="359"/>
      <point x="592" y="425"/>
      <point x="592" y="507" type="qcurve" smooth="yes"/>
      <point x="592" y="908" type="line" smooth="no"/>
      <point x="1065" y="0" type="line" smooth="no"/>
      <point x="1671" y="0" type="line" smooth="no"/>
      <point x="1671" y="1118" type="line" smooth="yes"/>
      <point x="1671" y="1192"/>
      <point x="1744" y="1270"/>
      <point x="1829" y="1270" type="qcurve" smooth="no"/>
    </contour>
    <contour>
      <point x="1097" y="2085" type="qcurve" smooth="yes"/>
      <point x="1141" y="2085"/>
      <point x="1213" y="2047"/>
      <point x="1265" y="1978"/>
      <point x="1304" y="1910"/>
      <point x="1351" y="1820"/>
      <point x="1369" y="1794" type="qcurve" smooth="no"/>
      <point x="1256" y="1720" type="line" smooth="no"/>
      <point x="1183" y="1790"/>
      <point x="1128" y="1828"/>
      <point x="1109" y="1828" type="qcurve" smooth="yes"/>
      <point x="1064" y="1828"/>
      <point x="807" y="1707"/>
      <point x="752" y="1707" type="qcurve" smooth="yes"/>
      <point x="707" y="1707"/>
      <point x="635" y="1744"/>
      <point x="582" y="1813"/>
      <point x="496" y="1971"/>
      <point x="478" y="1997" type="qcurve" smooth="no"/>
      <point x="592" y="2072" type="line" smooth="no"/>
      <point x="668" y="1999"/>
      <point x="724" y="1960"/>
      <point x="742" y="1960" type="qcurve" smooth="yes"/>
      <point x="778" y="1960"/>
      <point x="872" y="1999"/>
      <point x="950" y="2046"/>
      <point x="1052" y="2085"/>
    </contour>
  </outline>
</glyph>
<glyph name="Otilde" format="1">
  <advance width="1769"/>
  <unicode hex="00d5"/>
  <outline>
    <contour>
      <point x="1122" y="1653"/>
      <point x="1491" y="1453"/>
      <point x="1706" y="1066"/>
      <point x="1706" y="808" type="qcurve" smooth="yes"/>
      <point x="1706" y="573"/>
      <point x="1491" y="189"/>
      <point x="1115" y="-29"/>
      <point x="657" y="-29"/>
      <point x="281" y="189"/>
      <point x="66" y="573"/>
      <point x="66" y="808" type="qcurve" smooth="yes"/>
      <point x="66" y="1066"/>
      <point x="281" y="1453"/>
      <point x="650" y="1653"/>
    </contour>
    <contour>
      <point x="886" y="319" type="qcurve" smooth="yes"/>
      <point x="925" y="319"/>
      <point x="987" y="345"/>
      <point x="1030" y="391"/>
      <point x="1062" y="453"/>
      <point x="1080" y="526"/>
      <point x="1092" y="604"/>
      <point x="1095" y="683"/>
      <point x="1097" y="759"/>
      <point x="1096.1" y="792.635" type="qcurve" smooth="yes"/>
      <point x="1096" y="813"/>
      <point x="1096" y="823" type="qcurve" smooth="yes"/>
      <point x="1096" y="834"/>
      <point x="1096.2" y="858.024" type="qcurve" smooth="no"/>
      <point x="1095" y="894"/>
      <point x="1097" y="974"/>
      <point x="1088" y="1059"/>
      <point x="1075" y="1139"/>
      <point x="1043" y="1211"/>
      <point x="1000" y="1265"/>
      <point x="930" y="1296"/>
      <point x="886" y="1296" type="qcurve" smooth="yes"/>
      <point x="847" y="1296"/>
      <point x="784" y="1272"/>
      <point x="742" y="1229"/>
      <point x="709" y="1172"/>
      <point x="692" y="1105"/>
      <point x="679" y="1032"/>
      <point x="677" y="959"/>
      <point x="674" y="889"/>
      <point x="675.798" y="858.024" type="qcurve" smooth="no"/>
      <point x="676" y="834"/>
      <point x="676" y="823" type="qcurve" smooth="yes"/>
      <point x="676" y="813"/>
      <point x="675.902" y="792.635" type="qcurve" smooth="yes"/>
      <point x="677" y="763"/>
      <point x="675" y="697"/>
      <point x="680" y="626"/>
      <point x="686" y="556"/>
      <point x="701" y="488"/>
      <point x="721" y="428"/>
      <point x="753" y="377"/>
      <point x="794" y="340"/>
      <point x="852" y="319"/>
    </contour>
    <contour>
      <point x="1058" y="2085" type="qcurve" smooth="yes"/>
      <point x="1102" y="2085"/>
      <point x="1174" y="2047"/>
      <point x="1226" y="1978"/>
      <point x="1265" y="1910"/>
      <point x="1312" y="1820"/>
      <point x="1330" y="1794" type="qcurve" smooth="no"/>
      <point x="1217" y="1720" type="line" smooth="no"/>
      <point x="1144" y="1790"/>
      <point x="1089" y="1828"/>
      <point x="1070" y="1828" type="qcurve" smooth="yes"/>
      <point x="1025" y="1828"/>
      <point x="768" y="1707"/>
      <point x="713" y="1707" type="qcurve" smooth="yes"/>
      <point x="668" y="1707"/>
      <point x="596" y="1744"/>
      <point x="543" y="1813"/>
      <point x="457" y="1971"/>
      <point x="439" y="1997" type="qcurve" smooth="no"/>
      <point x="553" y="2072" type="line" smooth="no"/>
      <point x="629" y="1999"/>
      <point x="685" y="1960"/>
      <point x="703" y="1960" type="qcurve" smooth="yes"/>
      <point x="739" y="1960"/>
      <point x="833" y="1999"/>
      <point x="911" y="2046"/>
      <point x="1013" y="2085"/>
    </contour>
  </outline>
</glyph>
<glyph name="multiply" format="1">
  <advance width="791"/>
  <unicode hex="00d7"/>
  <outline>
    <contour>
      <point x="398" y="467" type="line" smooth="no"/>
      <point x="206" y="274" type="line" smooth="no"/>
      <point x="33" y="447" type="line" smooth="no"/>
      <point x="225" y="640" type="line" smooth="no"/>
      <point x="21" y="844" type="line" smooth="no"/>
      <point x="201" y="1024" type="line" smooth="no"/>
      <point x="398" y="820" type="line" smooth="no"/>
      <point x="595" y="1024" type="line" smooth="no"/>
      <point x="775" y="844" type="line" smooth="no"/>
      <point x="571" y="640" type="line" smooth="no"/>
      <point x="763" y="447" type="line" smooth="no"/>
      <point x="590" y="274" type="line" smooth="no"/>
    </contour>
  </outline>
</glyph>
<glyph name="Oslash" format="1">
  <advance width="1769"/>
  <unicode hex="00d8"/>
  <outline>
    <contour>
      <point x="582" y="-155" type="line" smooth="no"/>
      <point x="620" y="12" type="line" smooth="no"/>
      <point x="371" y="94"/>
      <point x="66" y="525"/>
      <point x="66" y="808" type="qcurve" smooth="yes"/>
      <point x="66" y="1066"/>
      <point x="281" y="1453"/>
      <point x="650" y="1653"/>
      <point x="886" y="1653" type="qcurve" smooth="yes"/>
      <point x="934" y="1653"/>
      <point x="997" y="1646" type="qcurve" smooth="no"/>
      <point x="1034" y="1804" type="line" smooth="no"/>
      <point x="1187" y="1774" type="line" smooth="no"/>
      <point x="1151" y="1616" type="line" smooth="no"/>
      <point x="1405" y="1541"/>
      <point x="1706" y="1118"/>
      <point x="1706" y="808" type="qcurve" smooth="yes"/>
      <point x="1706" y="573"/>
      <point x="1491" y="189"/>
      <point x="1115" y="-29"/>
      <point x="886" y="-29" type="qcurve" smooth="yes"/>
      <point x="833" y="-29"/>
      <point x="782" y="-23" type="qcurve" smooth="no"/>
      <point x="744" y="-194" type="line" smooth="no"/>
    </contour>
    <contour>
      <point x="886" y="1296" type="qcurve" smooth="yes"/>
      <point x="847" y="1296"/>
      <point x="784" y="1272"/>
      <point x="742" y="1229"/>
      <point x="709" y="1172"/>
      <point x="692" y="1105"/>
      <point x="679" y="1032"/>
      <point x="677" y="959"/>
      <point x="674" y="889"/>
      <point x="675.798" y="858.024" type="qcurve" smooth="no"/>
      <point x="676" y="834"/>
      <point x="676" y="823" type="qcurve" smooth="yes"/>
      <point x="676" y="706"/>
      <point x="678" y="622"/>
      <point x="693" y="513"/>
      <point x="708" y="461"/>
      <point x="718" y="438" type="qcurve" smooth="no"/>
      <point x="916" y="1294" type="line" smooth="no"/>
      <point x="896" y="1296"/>
    </contour>
    <contour>
      <point x="886" y="319" type="qcurve" smooth="yes"/>
      <point x="925" y="319"/>
      <point x="987" y="345"/>
      <point x="1030" y="391"/>
      <point x="1062" y="453"/>
      <point x="1080" y="526"/>
      <point x="1092" y="604"/>
      <point x="1095" y="683"/>
      <point x="1097" y="759"/>
      <point x="1096.1" y="792.635" type="qcurve" smooth="yes"/>
      <point x="1096" y="813"/>
      <point x="1096" y="823" type="qcurve" smooth="yes"/>
      <point x="1096" y="830"/>
      <point x="1097" y="904"/>
      <point x="1096" y="936"/>
      <point x="1094" y="1007"/>
      <point x="1088" y="1052"/>
      <point x="1079" y="1112"/>
      <point x="1064" y="1163"/>
      <point x="1054" y="1185" type="qcurve" smooth="no"/>
      <point x="860" y="320" type="line" smooth="no"/>
      <point x="868" y="319"/>
    </contour>
  </outline>
</glyph>
<glyph name="Thorn" format="1">
  <advance width="1659"/>
  <unicode hex="00de"/>
  <outline>
    <contour>
      <point x="63" y="0" type="line" smooth="no"/>
      <point x="924" y="0" type="line" smooth="no"/>
      <point x="924" y="363" type="line" smooth="no"/>
      <point x="778" y="363" type="line" smooth="no"/>
      <point x="778" y="569" type="line" smooth="no"/>
      <point x="857" y="559"/>
      <point x="928" y="559" type="qcurve" smooth="yes"/>
      <point x="1080" y="559"/>
      <point x="1317" y="616"/>
      <point x="1494" y="735"/>
      <point x="1588" y="932"/>
      <point x="1588" y="1066" type="qcurve" smooth="yes"/>
      <point x="1588" y="1139"/>
      <point x="1557" y="1261"/>
      <point x="1506" y="1352"/>
      <point x="1424" y="1425"/>
      <point x="1337" y="1474"/>
      <point x="1218" y="1510"/>
      <point x="1109" y="1530"/>
      <point x="967" y="1541"/>
      <point x="851" y="1543"/>
      <point x="777" y="1543" type="qcurve" smooth="no"/>
      <point x="778" y="1843" type="line" smooth="no"/>
      <point x="68" y="1843" type="line" smooth="no"/>
      <point x="68" y="1488" type="line" smooth="no"/>
      <point x="219" y="1488" type="line" smooth="no"/>
      <point x="219" y="363" type="line" smooth="no"/>
      <point x="63" y="363" type="line" smooth="no"/>
    </contour>
    <contour>
      <point x="778" y="1208" type="line" smooth="no"/>
      <point x="882" y="1208" type="line" smooth="yes"/>
      <point x="959" y="1208"/>
      <point x="1066" y="1132"/>
      <point x="1066" y="1056" type="qcurve" smooth="yes"/>
      <point x="1066" y="970"/>
      <point x="949" y="895"/>
      <point x="839" y="895" type="qcurve" smooth="yes"/>
      <point x="778" y="895" type="line" smooth="no"/>
    </contour>
  </outline>
</glyph>
<glyph name="germandbls" format="1">
  <advance width="1659"/>
  <unicode hex="00df"/>
  <outline>
    <contour>
      <point x="877" y="1623" type="qcurve" smooth="yes"/>
      <point x="757" y="1623"/>
      <point x="568" y="1591"/>
      <point x="406" y="1515"/>
      <point x="299" y="1394"/>
      <point x="240" y="1212"/>
      <point x="240" y="1092" type="qcurve" smooth="yes"/>
      <point x="240" y="369" type="line" smooth="no"/>
      <point x="68" y="369" type="line" smooth="no"/>
      <point x="68" y="0" type="line" smooth="no"/>
      <point x="919" y="0" type="line" smooth="no"/>
      <point x="919" y="350" type="line" smooth="no"/>
      <point x="894" y="349"/>
      <point x="768" y="349" type="qcurve" smooth="no"/>
      <point x="767" y="1131" type="line" smooth="yes"/>
      <point x="767" y="1206"/>
      <point x="847" y="1275"/>
      <point x="908" y="1275" type="qcurve" smooth="yes"/>
      <point x="982" y="1275"/>
      <point x="1054" y="1192"/>
      <point x="1054" y="1124" type="qcurve" smooth="yes"/>
      <point x="1054" y="1045"/>
      <point x="927" y="901"/>
      <point x="839" y="901" type="qcurve" smooth="no"/>
      <point x="842" y="750" type="line" smooth="no"/>
      <point x="1017" y="750"/>
      <point x="1199" y="625"/>
      <point x="1199" y="533" type="qcurve" smooth="yes"/>
      <point x="1199" y="431"/>
      <point x="1054" y="349" type="qcurve" smooth="no"/>
      <point x="1055" y="-18" type="line" smooth="no"/>
      <point x="1209" y="-18"/>
      <point x="1453" y="56"/>
      <point x="1604" y="181"/>
      <point x="1683" y="340"/>
      <point x="1683" y="429" type="qcurve" smooth="yes"/>
      <point x="1683" y="577"/>
      <point x="1472" y="837"/>
      <point x="1281" y="898" type="qcurve" smooth="no"/>
      <point x="1387" y="958"/>
      <point x="1507" y="1140"/>
      <point x="1507" y="1236" type="qcurve" smooth="yes"/>
      <point x="1507" y="1296"/>
      <point x="1462" y="1407"/>
      <point x="1364" y="1507"/>
      <point x="1219" y="1580"/>
      <point x="1006" y="1623"/>
    </contour>
  </outline>
</glyph>
<glyph name="acircumflex" format="1">
  <advance width="1337"/>
  <unicode hex="00e2"/>
  <outline>
    <contour>
      <point x="57" y="308" type="qcurve" smooth="yes"/>
      <point x="57" y="159"/>
      <point x="284" y="-18"/>
      <point x="446" y="-18" type="qcurve" smooth="yes"/>
      <point x="528" y="-18"/>
      <point x="702" y="54"/>
      <point x="752" y="119" type="qcurve" smooth="no"/>
      <point x="802" y="0" type="line" smooth="no"/>
      <point x="1274" y="0" type="line" smooth="no"/>
      <point x="1274" y="305" type="line" smooth="no"/>
      <point x="1198" y="305" type="line" smooth="no"/>
      <point x="1198" y="750" type="line" smooth="yes"/>
      <point x="1198" y="819"/>
      <point x="1147" y="930"/>
      <point x="1072" y="1000"/>
      <point x="959" y="1051"/>
      <point x="862" y="1076"/>
      <point x="737" y="1090"/>
      <point x="671" y="1092"/>
      <point x="630" y="1092" type="qcurve" smooth="yes"/>
      <point x="523" y="1092"/>
      <point x="281" y="1057"/>
      <point x="214" y="1039.5" type="qcurve" smooth="yes"/>
      <point x="147" y="1022" type="line" smooth="no"/>
      <point x="147" y="708" type="line" smooth="no"/>
      <point x="322" y="708" type="line" smooth="no"/>
      <point x="394" y="803"/>
      <point x="537" y="803" type="qcurve" smooth="yes"/>
      <point x="748" y="803"/>
      <point x="748" y="637" type="qcurve" smooth="yes"/>
      <point x="748" y="592" type="line" smooth="no"/>
      <point x="638" y="630"/>
      <point x="492" y="630" type="qcurve" smooth="yes"/>
      <point x="409" y="630"/>
      <point x="256" y="589"/>
      <point x="132" y="511"/>
      <point x="57" y="385"/>
    </contour>
    <contour>
      <point x="547" y="326" type="qcurve" smooth="yes"/>
      <point x="547" y="369"/>
      <point x="609" y="438"/>
      <point x="652" y="438" type="qcurve" smooth="yes"/>
      <point x="674" y="438"/>
      <point x="723" y="428"/>
      <point x="737" y="422.5" type="qcurve" smooth="yes"/>
      <point x="751" y="417" type="line" smooth="no"/>
      <point x="751" y="270" type="line" smooth="no"/>
      <point x="747" y="265"/>
      <point x="731" y="250"/>
      <point x="675" y="224"/>
      <point x="643" y="224" type="qcurve" smooth="yes"/>
      <point x="599" y="224"/>
      <point x="547" y="281"/>
    </contour>
    <contour>
      <point x="532" y="1601" type="line" smooth="no"/>
      <point x="259" y="1224" type="line" smooth="no"/>
      <point x="413" y="1123" type="line" smooth="no"/>
      <point x="668" y="1368" type="line" smooth="no"/>
      <point x="923" y="1123" type="line" smooth="no"/>
      <point x="1077" y="1224" type="line" smooth="no"/>
      <point x="803" y="1600" type="line" smooth="no"/>
    </contour>
  </outline>
</glyph>
<glyph name="atilde" format="1">
  <advance width="1337"/>
  <unicode hex="00e3"/>
  <outline>
    <contour>
      <point x="57" y="308" type="qcurve" smooth="yes"/>
      <point x="57" y="159"/>
      <point x="284" y="-18"/>
      <point x="446" y="-18" type="qcurve" smooth="yes"/>
      <point x="528" y="-18"/>
      <point x="702" y="54"/>
      <point x="752" y="119" type="qcurve" smooth="no"/>
      <point x="802" y="0" type="line" smooth="no"/>
      <point x="1274" y="0" type="line" smooth="no"/>
      <point x="1274" y="305" type="line" smooth="no"/>
      <point x="1198" y="305" type="line" smooth="no"/>
      <point x="1198" y="750" type="line" smooth="yes"/>
      <point x="1198" y="819"/>
      <point x="1147" y="930"/>
      <point x="1072" y="1000"/>
      <point x="959" y="1051"/>
      <point x="862" y="1076"/>
      <point x="737" y="1090"/>
      <point x="671" y="1092"/>
      <point x="630" y="1092" type="qcurve" smooth="yes"/>
      <point x="523" y="1092"/>
      <point x="281" y="1057"/>
      <point x="214" y="1039.5" type="qcurve" smooth="yes"/>
      <point x="147" y="1022" type="line" smooth="no"/>
      <point x="147" y="708" type="line" smooth="no"/>
      <point x="322" y="708" type="line" smooth="no"/>
      <point x="394" y="803"/>
      <point x="537" y="803" type="qcurve" smooth="yes"/>
      <point x="748" y="803"/>
      <point x="748" y="637" type="qcurve" smooth="yes"/>
      <point x="748" y="592" type="line" smooth="no"/>
      <point x="638" y="630"/>
      <point x="492" y="630" type="qcurve" smooth="yes"/>
      <point x="409" y="630"/>
      <point x="256" y="589"/>
      <point x="132" y="511"/>
      <point x="57" y="385"/>
    </contour>
    <contour>
      <point x="547" y="326" type="qcurve" smooth="yes"/>
      <point x="547" y="369"/>
      <point x="609" y="438"/>
      <point x="652" y="438" type="qcurve" smooth="yes"/>
      <point x="674" y="438"/>
      <point x="723" y="428"/>
      <point x="737" y="422.5" type="qcurve" smooth="yes"/>
      <point x="751" y="417" type="line" smooth="no"/>
      <point x="751" y="270" type="line" smooth="no"/>
      <point x="747" y="265"/>
      <point x="731" y="250"/>
      <point x="675" y="224"/>
      <point x="643" y="224" type="qcurve" smooth="yes"/>
      <point x="599" y="224"/>
      <point x="547" y="281"/>
    </contour>
    <contour>
      <point x="816" y="1523" type="qcurve" smooth="yes"/>
      <point x="860" y="1523"/>
      <point x="932" y="1485"/>
      <point x="984" y="1416"/>
      <point x="1023" y="1348"/>
      <point x="1070" y="1258"/>
      <point x="1088" y="1232" type="qcurve" smooth="no"/>
      <point x="975" y="1158" type="line" smooth="no"/>
      <point x="902" y="1228"/>
      <point x="847" y="1266"/>
      <point x="828" y="1266" type="qcurve" smooth="yes"/>
      <point x="783" y="1266"/>
      <point x="526" y="1145"/>
      <point x="471" y="1145" type="qcurve" smooth="yes"/>
      <point x="426" y="1145"/>
      <point x="354" y="1182"/>
      <point x="301" y="1251"/>
      <point x="215" y="1409"/>
      <point x="197" y="1435" type="qcurve" smooth="no"/>
      <point x="311" y="1510" type="line" smooth="no"/>
      <point x="387" y="1437"/>
      <point x="443" y="1398"/>
      <point x="461" y="1398" type="qcurve" smooth="yes"/>
      <point x="497" y="1398"/>
      <point x="591" y="1437"/>
      <point x="669" y="1484"/>
      <point x="771" y="1523"/>
    </contour>
  </outline>
</glyph>
<glyph name="ae" format="1">
  <advance width="2594"/>
  <unicode hex="00e6"/>
  <outline>
    <contour>
      <point x="57" y="299" type="qcurve" smooth="yes"/>
      <point x="57" y="199"/>
      <point x="167" y="49"/>
      <point x="341" y="-26"/>
      <point x="446" y="-27" type="qcurve" smooth="yes"/>
      <point x="642" y="-29"/>
      <point x="891" y="29"/>
      <point x="994" y="105" type="qcurve" smooth="no"/>
      <point x="1137" y="-25"/>
      <point x="1326" y="-25" type="qcurve" smooth="yes"/>
      <point x="1486" y="-25"/>
      <point x="1741" y="41"/>
      <point x="1873" y="120" type="qcurve" smooth="no"/>
      <point x="1873" y="358" type="line" smooth="no"/>
      <point x="1566" y="358" type="line" smooth="no"/>
      <point x="1564" y="285"/>
      <point x="1498" y="215"/>
      <point x="1426" y="215" type="qcurve" smooth="yes"/>
      <point x="1344" y="215"/>
      <point x="1249" y="348"/>
      <point x="1249" y="441" type="qcurve" smooth="no"/>
      <point x="1851" y="441" type="line" smooth="yes"/>
      <point x="1870" y="441"/>
      <point x="1879" y="448"/>
      <point x="1888" y="469" type="qcurve" smooth="no"/>
      <point x="1893" y="514"/>
      <point x="1893" y="548" type="qcurve" smooth="yes"/>
      <point x="1893" y="698"/>
      <point x="1768" y="938"/>
      <point x="1514" y="1085"/>
      <point x="1342" y="1085" type="qcurve" smooth="yes"/>
      <point x="1279" y="1085"/>
      <point x="1162" y="1059"/>
      <point x="1085" y="1023"/>
      <point x="1025" y="987"/>
      <point x="1011.5" y="974" type="qcurve" smooth="yes"/>
      <point x="998" y="961" type="line" smooth="no"/>
      <point x="993" y="966"/>
      <point x="973" y="982"/>
      <point x="904" y="1024"/>
      <point x="826" y="1057"/>
      <point x="698" y="1083"/>
      <point x="630" y="1083" type="qcurve" smooth="yes"/>
      <point x="523" y="1083"/>
      <point x="281" y="1048"/>
      <point x="214" y="1030.5" type="qcurve" smooth="yes"/>
      <point x="147" y="1013" type="line" smooth="no"/>
      <point x="147" y="699" type="line" smooth="no"/>
      <point x="322" y="699" type="line" smooth="no"/>
      <point x="394" y="794"/>
      <point x="537" y="794" type="qcurve" smooth="yes"/>
      <point x="748" y="794"/>
      <point x="748" y="628" type="qcurve" smooth="yes"/>
      <point x="748" y="583" type="line" smooth="no"/>
      <point x="638" y="621"/>
      <point x="492" y="621" type="qcurve" smooth="yes"/>
      <point x="409" y="621"/>
      <point x="256" y="580"/>
      <point x="132" y="502"/>
      <point x="57" y="376"/>
    </contour>
    <contour>
      <point x="547" y="317" type="qcurve" smooth="yes"/>
      <point x="547" y="360"/>
      <point x="609" y="429"/>
      <point x="652" y="429" type="qcurve" smooth="yes"/>
      <point x="674" y="429"/>
      <point x="723" y="418"/>
      <point x="737" y="413" type="qcurve" smooth="yes"/>
      <point x="751" y="408" type="line" smooth="no"/>
      <point x="751" y="261" type="line" smooth="no"/>
      <point x="747" y="256"/>
      <point x="731" y="241"/>
      <point x="675" y="215"/>
      <point x="643" y="215" type="qcurve" smooth="yes"/>
      <point x="599" y="215"/>
      <point x="547" y="272"/>
    </contour>
    <contour>
      <point x="1251" y="649" type="line" smooth="yes"/>
      <point x="1251" y="710"/>
      <point x="1305" y="807"/>
      <point x="1359" y="807" type="qcurve" smooth="yes"/>
      <point x="1396" y="807"/>
      <point x="1444" y="772"/>
      <point x="1462" y="707"/>
      <point x="1467" y="655"/>
      <point x="1466" y="620" type="qcurve" smooth="no"/>
      <point x="1251" y="620" type="line" smooth="no"/>
    </contour>
  </outline>
</glyph>
<glyph name="ecircumflex" format="1">
  <advance width="1257"/>
  <unicode hex="00ea"/>
  <outline>
    <contour>
      <point x="634" y="-18" type="qcurve" smooth="yes"/>
      <point x="794" y="-18"/>
      <point x="1049" y="48"/>
      <point x="1181" y="127" type="qcurve" smooth="no"/>
      <point x="1181" y="365" type="line" smooth="no"/>
      <point x="874" y="365" type="line" smooth="no"/>
      <point x="872" y="292"/>
      <point x="806" y="222"/>
      <point x="734" y="222" type="qcurve" smooth="yes"/>
      <point x="652" y="222"/>
      <point x="557" y="355"/>
      <point x="557" y="448" type="qcurve" smooth="no"/>
      <point x="1159" y="448" type="line" smooth="yes"/>
      <point x="1178" y="448"/>
      <point x="1187" y="455"/>
      <point x="1196" y="476" type="qcurve" smooth="no"/>
      <point x="1201" y="521"/>
      <point x="1201" y="555" type="qcurve" smooth="yes"/>
      <point x="1201" y="705"/>
      <point x="1076" y="945"/>
      <point x="822" y="1092"/>
      <point x="650" y="1092" type="qcurve" smooth="yes"/>
      <point x="470" y="1092"/>
      <point x="201" y="943"/>
      <point x="63" y="686"/>
      <point x="63" y="521" type="qcurve" smooth="yes"/>
      <point x="63" y="374"/>
      <point x="209" y="128"/>
      <point x="472" y="-18"/>
    </contour>
    <contour>
      <point x="559" y="656" type="line" smooth="yes"/>
      <point x="559" y="717"/>
      <point x="613" y="814"/>
      <point x="667" y="814" type="qcurve" smooth="yes"/>
      <point x="704" y="814"/>
      <point x="752" y="779"/>
      <point x="770" y="714"/>
      <point x="775" y="662"/>
      <point x="774" y="627" type="qcurve" smooth="no"/>
      <point x="559" y="627" type="line" smooth="no"/>
    </contour>
    <contour>
      <point x="492" y="1601" type="line" smooth="no"/>
      <point x="219" y="1224" type="line" smooth="no"/>
      <point x="373" y="1123" type="line" smooth="no"/>
      <point x="628" y="1368" type="line" smooth="no"/>
      <point x="883" y="1123" type="line" smooth="no"/>
      <point x="1037" y="1224" type="line" smooth="no"/>
      <point x="763" y="1600" type="line" smooth="no"/>
    </contour>
  </outline>
</glyph>
<glyph name="edieresis" format="1">
  <advance width="1257"/>
  <unicode hex="00eb"/>
  <outline>
    <contour>
      <point x="634" y="-18" type="qcurve" smooth="yes"/>
      <point x="794" y="-18"/>
      <point x="1049" y="48"/>
      <point x="1181" y="127" type="qcurve" smooth="no"/>
      <point x="1181" y="365" type="line" smooth="no"/>
      <point x="874" y="365" type="line" smooth="no"/>
      <point x="872" y="292"/>
      <point x="806" y="222"/>
      <point x="734" y="222" type="qcurve" smooth="yes"/>
      <point x="652" y="222"/>
      <point x="557" y="355"/>
      <point x="557" y="448" type="qcurve" smooth="no"/>
      <point x="1159" y="448" type="line" smooth="yes"/>
      <point x="1178" y="448"/>
      <point x="1187" y="455"/>
      <point x="1196" y="476" type="qcurve" smooth="no"/>
      <point x="1201" y="521"/>
      <point x="1201" y="555" type="qcurve" smooth="yes"/>
      <point x="1201" y="705"/>
      <point x="1076" y="945"/>
      <point x="822" y="1092"/>
      <point x="650" y="1092" type="qcurve" smooth="yes"/>
      <point x="470" y="1092"/>
      <point x="201" y="943"/>
      <point x="63" y="686"/>
      <point x="63" y="521" type="qcurve" smooth="yes"/>
      <point x="63" y="374"/>
      <point x="209" y="128"/>
      <point x="472" y="-18"/>
    </contour>
    <contour>
      <point x="559" y="656" type="line" smooth="yes"/>
      <point x="559" y="717"/>
      <point x="613" y="814"/>
      <point x="667" y="814" type="qcurve" smooth="yes"/>
      <point x="704" y="814"/>
      <point x="752" y="779"/>
      <point x="770" y="714"/>
      <point x="775" y="662"/>
      <point x="774" y="627" type="qcurve" smooth="no"/>
      <point x="559" y="627" type="line" smooth="no"/>
    </contour>
    <contour>
      <point x="546" y="1342" type="qcurve" smooth="yes"/>
      <point x="546" y="1234"/>
      <point x="413" y="1112"/>
      <point x="322" y="1112" type="qcurve" smooth="yes"/>
      <point x="229" y="1112"/>
      <point x="94" y="1235"/>
      <point x="94" y="1345" type="qcurve" smooth="yes"/>
      <point x="94" y="1452"/>
      <point x="228" y="1572"/>
      <point x="412" y="1572"/>
      <point x="546" y="1451"/>
    </contour>
    <contour>
      <point x="1163" y="1342" type="qcurve" smooth="yes"/>
      <point x="1163" y="1234"/>
      <point x="1030" y="1112"/>
      <point x="939" y="1112" type="qcurve" smooth="yes"/>
      <point x="846" y="1112"/>
      <point x="711" y="1235"/>
      <point x="711" y="1345" type="qcurve" smooth="yes"/>
      <point x="711" y="1452"/>
      <point x="845" y="1572"/>
      <point x="1029" y="1572"/>
      <point x="1163" y="1451"/>
    </contour>
  </outline>
</glyph>
<glyph name="iacute" format="1">
  <advance width="774"/>
  <unicode hex="00ed"/>
  <outline>
    <contour>
      <point x="532" y="1708" type="line" smooth="no"/>
      <point x="58" y="1271" type="line" smooth="no"/>
      <point x="162" y="1130" type="line" smooth="no"/>
      <point x="716" y="1443" type="line" smooth="no"/>
    </contour>
    <contour>
      <point x="633" y="1072" type="line" smooth="no"/>
      <point x="63" y="1072" type="line" smooth="no"/>
      <point x="63" y="747" type="line" smooth="no"/>
      <point x="152" y="747" type="line" smooth="no"/>
      <point x="152" y="299" type="line" smooth="no"/>
      <point x="70" y="299" type="line" smooth="no"/>
      <point x="70" y="0" type="line" smooth="no"/>
      <point x="717" y="0" type="line" smooth="no"/>
      <point x="717" y="299" type="line" smooth="no"/>
      <point x="633" y="299" type="line" smooth="no"/>
    </contour>
  </outline>
</glyph>
<glyph name="icircumflex" format="1">
  <advance width="774"/>
  <unicode hex="00ee"/>
  <outline>
    <contour>
      <point x="251" y="1601" type="line" smooth="no"/>
      <point x="-22" y="1224" type="line" smooth="no"/>
      <point x="132" y="1123" type="line" smooth="no"/>
      <point x="387" y="1368" type="line" smooth="no"/>
      <point x="642" y="1123" type="line" smooth="no"/>
      <point x="796" y="1224" type="line" smooth="no"/>
      <point x="522" y="1600" type="line" smooth="no"/>
    </contour>
    <contour>
      <point x="633" y="1072" type="line" smooth="no"/>
      <point x="63" y="1072" type="line" smooth="no"/>
      <point x="63" y="747" type="line" smooth="no"/>
      <point x="152" y="747" type="line" smooth="no"/>
      <point x="152" y="299" type="line" smooth="no"/>
      <point x="70" y="299" type="line" smooth="no"/>
      <point x="70" y="0" type="line" smooth="no"/>
      <point x="717" y="0" type="line" smooth="no"/>
      <point x="717" y="299" type="line" smooth="no"/>
      <point x="633" y="299" type="line" smooth="no"/>
    </contour>
  </outline>
</glyph>
<glyph name="idieresis" format="1">
  <advance width="774"/>
  <unicode hex="00ef"/>
  <outline>
    <contour>
      <point x="305" y="1342" type="qcurve" smooth="yes"/>
      <point x="305" y="1234"/>
      <point x="172" y="1112"/>
      <point x="81" y="1112" type="qcurve" smooth="yes"/>
      <point x="-12" y="1112"/>
      <point x="-147" y="1235"/>
      <point x="-147" y="1345" type="qcurve" smooth="yes"/>
      <point x="-147" y="1452"/>
      <point x="-13" y="1572"/>
      <point x="171" y="1572"/>
      <point x="305" y="1451"/>
    </contour>
    <contour>
      <point x="922" y="1342" type="qcurve" smooth="yes"/>
      <point x="922" y="1234"/>
      <point x="789" y="1112"/>
      <point x="698" y="1112" type="qcurve" smooth="yes"/>
      <point x="605" y="1112"/>
      <point x="470" y="1235"/>
      <point x="470" y="1345" type="qcurve" smooth="yes"/>
      <point x="470" y="1452"/>
      <point x="604" y="1572"/>
      <point x="788" y="1572"/>
      <point x="922" y="1451"/>
    </contour>
    <contour>
      <point x="633" y="1072" type="line" smooth="no"/>
      <point x="63" y="1072" type="line" smooth="no"/>
      <point x="63" y="747" type="line" smooth="no"/>
      <point x="152" y="747" type="line" smooth="no"/>
      <point x="152" y="299" type="line" smooth="no"/>
      <point x="70" y="299" type="line" smooth="no"/>
      <point x="70" y="0" type="line" smooth="no"/>
      <point x="717" y="0" type="line" smooth="no"/>
      <point x="717" y="299" type="line" smooth="no"/>
      <point x="633" y="299" type="line" smooth="no"/>
    </contour>
  </outline>
</glyph>
<glyph name="eth" format="1">
  <advance width="1354"/>
  <unicode hex="00f0"/>
  <outline>
    <contour>
      <point x="1223" y="1585" type="line" smooth="no"/>
      <point x="1286" y="1428" type="line" smooth="no"/>
      <point x="1129" y="1365" type="line" smooth="no"/>
      <point x="1281" y="1142"/>
      <point x="1300" y="751" type="qcurve" smooth="yes"/>
      <point x="1301" y="731"/>
      <point x="1301" y="691" type="qcurve" smooth="yes"/>
      <point x="1301" y="574"/>
      <point x="1256" y="367"/>
      <point x="1157" y="187"/>
      <point x="1011" y="57"/>
      <point x="796" y="-18"/>
      <point x="663" y="-18" type="qcurve" smooth="yes"/>
      <point x="521" y="-18"/>
      <point x="285" y="79"/>
      <point x="136" y="239"/>
      <point x="55" y="436"/>
      <point x="55" y="540" type="qcurve" smooth="yes"/>
      <point x="55" y="616"/>
      <point x="100" y="758"/>
      <point x="196" y="883"/>
      <point x="335" y="975"/>
      <point x="535" y="1029"/>
      <point x="654" y="1029" type="qcurve" smooth="yes"/>
      <point x="687" y="1029" type="line" smooth="no"/>
      <point x="663" y="1121"/>
      <point x="639" y="1169" type="qcurve" smooth="no"/>
      <point x="388" y="1068" type="line" smooth="no"/>
      <point x="325" y="1225" type="line" smooth="no"/>
      <point x="505" y="1297" type="line" smooth="no"/>
      <point x="443" y="1321"/>
      <point x="359" y="1321" type="qcurve" smooth="yes"/>
      <point x="281" y="1321"/>
      <point x="234" y="1310" type="qcurve" smooth="no"/>
      <point x="234" y="1621" type="line" smooth="no"/>
      <point x="389" y="1654"/>
      <point x="528" y="1654" type="qcurve" smooth="yes"/>
      <point x="824" y="1654"/>
      <point x="1009" y="1499" type="qcurve" smooth="no"/>
    </contour>
    <contour>
      <point x="574" y="568" type="qcurve" smooth="yes"/>
      <point x="574" y="338"/>
      <point x="685" y="338" type="qcurve" smooth="yes"/>
      <point x="715" y="338"/>
      <point x="757" y="390"/>
      <point x="774" y="471"/>
      <point x="781" y="533"/>
      <point x="781" y="560" type="qcurve" smooth="yes"/>
      <point x="781" y="777"/>
      <point x="683" y="777" type="qcurve" smooth="yes"/>
      <point x="574" y="777"/>
    </contour>
  </outline>
</glyph>
<glyph name="ntilde" format="1">
  <advance width="1464"/>
  <unicode hex="00f1"/>
  <outline>
    <contour>
      <point x="677" y="1072" type="line" smooth="no"/>
      <point x="114" y="1072" type="line" smooth="no"/>
      <point x="114" y="761" type="line" smooth="no"/>
      <point x="190" y="761" type="line" smooth="no"/>
      <point x="190" y="305" type="line" smooth="no"/>
      <point x="107" y="305" type="line" smooth="no"/>
      <point x="107" y="0" type="line" smooth="no"/>
      <point x="765" y="0" type="line" smooth="no"/>
      <point x="765" y="305" type="line" smooth="no"/>
      <point x="677" y="305" type="line" smooth="no"/>
      <point x="677" y="624" type="line" smooth="yes"/>
      <point x="677" y="671"/>
      <point x="734" y="737"/>
      <point x="781" y="737" type="qcurve" smooth="yes"/>
      <point x="817" y="737"/>
      <point x="871" y="675"/>
      <point x="871" y="627" type="qcurve" smooth="yes"/>
      <point x="871" y="0" type="line" smooth="no"/>
      <point x="1445" y="0" type="line" smooth="no"/>
      <point x="1445" y="305" type="line" smooth="no"/>
      <point x="1365" y="305" type="line" smooth="no"/>
      <point x="1365" y="680" type="line" smooth="yes"/>
      <point x="1365" y="1092"/>
      <point x="1035" y="1092" type="qcurve" smooth="yes"/>
      <point x="917" y="1092"/>
      <point x="732" y="1001"/>
      <point x="677" y="916" type="qcurve" smooth="no"/>
    </contour>
    <contour>
      <point x="905" y="1523" type="qcurve" smooth="yes"/>
      <point x="949" y="1523"/>
      <point x="1021" y="1485"/>
      <point x="1073" y="1416"/>
      <point x="1112" y="1348"/>
      <point x="1159" y="1258"/>
      <point x="1177" y="1232" type="qcurve" smooth="no"/>
      <point x="1064" y="1158" type="line" smooth="no"/>
      <point x="991" y="1228"/>
      <point x="936" y="1266"/>
      <point x="917" y="1266" type="qcurve" smooth="yes"/>
      <point x="872" y="1266"/>
      <point x="615" y="1145"/>
      <point x="560" y="1145" type="qcurve" smooth="yes"/>
      <point x="515" y="1145"/>
      <point x="443" y="1182"/>
      <point x="390" y="1251"/>
      <point x="304" y="1409"/>
      <point x="286" y="1435" type="qcurve" smooth="no"/>
      <point x="400" y="1510" type="line" smooth="no"/>
      <point x="476" y="1437"/>
      <point x="532" y="1398"/>
      <point x="550" y="1398" type="qcurve" smooth="yes"/>
      <point x="586" y="1398"/>
      <point x="680" y="1437"/>
      <point x="758" y="1484"/>
      <point x="860" y="1523"/>
    </contour>
  </outline>
</glyph>
<glyph name="odieresis" format="1">
  <advance width="1358"/>
  <unicode hex="00f6"/>
  <outline>
    <contour>
      <point x="506" y="-18"/>
      <point x="235" y="114"/>
      <point x="82" y="372"/>
      <point x="82" y="547" type="qcurve" smooth="yes"/>
      <point x="82" y="807"/>
      <point x="404" y="1091"/>
      <point x="964" y="1091"/>
      <point x="1286" y="807"/>
      <point x="1286" y="547" type="qcurve" smooth="yes"/>
      <point x="1286" y="372"/>
      <point x="1133" y="114"/>
      <point x="862" y="-18"/>
    </contour>
    <contour>
      <point x="640" y="779"/>
      <point x="582" y="741"/>
      <point x="556" y="667"/>
      <point x="547" y="596"/>
      <point x="547" y="545" type="qcurve" smooth="yes"/>
      <point x="547" y="294"/>
      <point x="821" y="294"/>
      <point x="821" y="545" type="qcurve" smooth="yes"/>
      <point x="821" y="596"/>
      <point x="812" y="667"/>
      <point x="786" y="741"/>
      <point x="728" y="779"/>
    </contour>
    <contour>
      <point x="597" y="1342" type="qcurve" smooth="yes"/>
      <point x="597" y="1234"/>
      <point x="464" y="1112"/>
      <point x="373" y="1112" type="qcurve" smooth="yes"/>
      <point x="280" y="1112"/>
      <point x="145" y="1235"/>
      <point x="145" y="1345" type="qcurve" smooth="yes"/>
      <point x="145" y="1452"/>
      <point x="279" y="1572"/>
      <point x="463" y="1572"/>
      <point x="597" y="1451"/>
    </contour>
    <contour>
      <point x="1214" y="1342" type="qcurve" smooth="yes"/>
      <point x="1214" y="1234"/>
      <point x="1081" y="1112"/>
      <point x="990" y="1112" type="qcurve" smooth="yes"/>
      <point x="897" y="1112"/>
      <point x="762" y="1235"/>
      <point x="762" y="1345" type="qcurve" smooth="yes"/>
      <point x="762" y="1452"/>
      <point x="896" y="1572"/>
      <point x="1080" y="1572"/>
      <point x="1214" y="1451"/>
    </contour>
  </outline>
</glyph>
<glyph name="divide" format="1">
  <advance width="774"/>
  <unicode hex="00f7"/>
  <outline>
    <contour>
      <point x="0" y="761" type="line" smooth="no"/>
      <point x="0" y="538" type="line" smooth="no"/>
      <point x="774" y="538" type="line" smooth="no"/>
      <point x="774" y="761" type="line" smooth="no"/>
    </contour>
    <contour>
      <point x="403" y="-18" type="qcurve" smooth="yes"/>
      <point x="305" y="-18"/>
      <point x="175" y="93"/>
      <point x="175" y="188" type="qcurve" smooth="yes"/>
      <point x="175" y="280"/>
      <point x="302" y="389"/>
      <point x="403" y="389" type="qcurve" smooth="yes"/>
      <point x="507" y="389"/>
      <point x="639" y="280"/>
      <point x="639" y="188" type="qcurve" smooth="yes"/>
      <point x="639" y="93"/>
      <point x="503" y="-18"/>
    </contour>
    <contour>
      <point x="403" y="886" type="qcurve" smooth="yes"/>
      <point x="305" y="886"/>
      <point x="175" y="997"/>
      <point x="175" y="1092" type="qcurve" smooth="yes"/>
      <point x="175" y="1184"/>
      <point x="302" y="1293"/>
      <point x="403" y="1293" type="qcurve" smooth="yes"/>
      <point x="507" y="1293"/>
      <point x="639" y="1184"/>
      <point x="639" y="1092" type="qcurve" smooth="yes"/>
      <point x="639" y="997"/>
      <point x="503" y="886"/>
    </contour>
  </outline>
</glyph>
<glyph name="oslash" format="1">
  <advance width="1358"/>
  <unicode hex="00f8"/>
  <outline>
    <contour>
      <point x="506" y="-18"/>
      <point x="235" y="114"/>
      <point x="82" y="372"/>
      <point x="82" y="547" type="qcurve" smooth="yes"/>
      <point x="82" y="807"/>
      <point x="404" y="1091"/>
      <point x="964" y="1091"/>
      <point x="1286" y="807"/>
      <point x="1286" y="547" type="qcurve" smooth="yes"/>
      <point x="1286" y="372"/>
      <point x="1133" y="114"/>
      <point x="862" y="-18"/>
    </contour>
    <contour>
      <point x="640" y="779"/>
      <point x="582" y="741"/>
      <point x="556" y="667"/>
      <point x="547" y="596"/>
      <point x="547" y="545" type="qcurve" smooth="yes"/>
      <point x="547" y="294"/>
      <point x="821" y="294"/>
      <point x="821" y="545" type="qcurve" smooth="yes"/>
      <point x="821" y="596"/>
      <point x="812" y="667"/>
      <point x="786" y="741"/>
      <point x="728" y="779"/>
    </contour>
    <contour>
      <point x="285" y="-54" type="line" smooth="no"/>
      <point x="986" y="1192" type="line" smooth="no"/>
      <point x="1073" y="1142" type="line" smooth="no"/>
      <point x="372" y="-104" type="line" smooth="no"/>
    </contour>
  </outline>
</glyph>
<glyph name="ugrave" format="1">
  <advance width="1468"/>
  <unicode hex="00f9"/>
  <outline>
    <contour>
      <point x="827" y="0" type="line" smooth="no"/>
      <point x="1397" y="0" type="line" smooth="no"/>
      <point x="1397" y="305" type="line" smooth="no"/>
      <point x="1321" y="305" type="line" smooth="no"/>
      <point x="1321" y="1072" type="line" smooth="no"/>
      <point x="746" y="1072" type="line" smooth="no"/>
      <point x="746" y="761" type="line" smooth="no"/>
      <point x="827" y="761" type="line" smooth="no"/>
      <point x="827" y="438" type="line" smooth="yes"/>
      <point x="827" y="387"/>
      <point x="770" y="318"/>
      <point x="723" y="318" type="qcurve" smooth="yes"/>
      <point x="687" y="318"/>
      <point x="633" y="385"/>
      <point x="633" y="438" type="qcurve" smooth="yes"/>
      <point x="633" y="1072" type="line" smooth="no"/>
      <point x="59" y="1072" type="line" smooth="no"/>
      <point x="59" y="761" type="line" smooth="no"/>
      <point x="139" y="761" type="line" smooth="no"/>
      <point x="139" y="385" type="line" smooth="yes"/>
      <point x="139" y="-18"/>
      <point x="469" y="-18" type="qcurve" smooth="yes"/>
      <point x="587" y="-18"/>
      <point x="772" y="71"/>
      <point x="827" y="156" type="qcurve" smooth="no"/>
    </contour>
    <contour>
      <point x="589" y="1708" type="line" smooth="no"/>
      <point x="1063" y="1271" type="line" smooth="no"/>
      <point x="959" y="1130" type="line" smooth="no"/>
      <point x="405" y="1443" type="line" smooth="no"/>
    </contour>
  </outline>
</glyph>
<glyph name="ucircumflex" format="1">
  <advance width="1468"/>
  <unicode hex="00fb"/>
  <outline>
    <contour>
      <point x="827" y="0" type="line" smooth="no"/>
      <point x="1397" y="0" type="line" smooth="no"/>
      <point x="1397" y="305" type="line" smooth="no"/>
      <point x="1321" y="305" type="line" smooth="no"/>
      <point x="1321" y="1072" type="line" smooth="no"/>
      <point x="746" y="1072" type="line" smooth="no"/>
      <point x="746" y="761" type="line" smooth="no"/>
      <point x="827" y="761" type="line" smooth="no"/>
      <point x="827" y="438" type="line" smooth="yes"/>
      <point x="827" y="387"/>
      <point x="770" y="318"/>
      <point x="723" y="318" type="qcurve" smooth="yes"/>
      <point x="687" y="318"/>
      <point x="633" y="385"/>
      <point x="633" y="438" type="qcurve" smooth="yes"/>
      <point x="633" y="1072" type="line" smooth="no"/>
      <point x="59" y="1072" type="line" smooth="no"/>
      <point x="59" y="761" type="line" smooth="no"/>
      <point x="139" y="761" type="line" smooth="no"/>
      <point x="139" y="385" type="line" smooth="yes"/>
      <point x="139" y="-18"/>
      <point x="469" y="-18" type="qcurve" smooth="yes"/>
      <point x="587" y="-18"/>
      <point x="772" y="71"/>
      <point x="827" y="156" type="qcurve" smooth="no"/>
    </contour>
    <contour>
      <point x="598" y="1601" type="line" smooth="no"/>
      <point x="325" y="1224" type="line" smooth="no"/>
      <point x="479" y="1123" type="line" smooth="no"/>
      <point x="734" y="1368" type="line" smooth="no"/>
      <point x="989" y="1123" type="line" smooth="no"/>
      <point x="1143" y="1224" type="line" smooth="no"/>
      <point x="869" y="1600" type="line" smooth="no"/>
    </contour>
  </outline>
</glyph>
<glyph name="udieresis" format="1">
  <advance width="1468"/>
  <unicode hex="00fc"/>
  <outline>
    <contour>
      <point x="827" y="0" type="line" smooth="no"/>
      <point x="1397" y="0" type="line" smooth="no"/>
      <point x="1397" y="305" type="line" smooth="no"/>
      <point x="1321" y="305" type="line" smooth="no"/>
      <point x="1321" y="1072" type="line" smooth="no"/>
      <point x="746" y="1072" type="line" smooth="no"/>
      <point x="746" y="761" type="line" smooth="no"/>
      <point x="827" y="761" type="line" smooth="no"/>
      <point x="827" y="438" type="line" smooth="yes"/>
      <point x="827" y="387"/>
      <point x="770" y="318"/>
      <point x="723" y="318" type="qcurve" smooth="yes"/>
      <point x="687" y="318"/>
      <point x="633" y="385"/>
      <point x="633" y="438" type="qcurve" smooth="yes"/>
      <point x="633" y="1072" type="line" smooth="no"/>
      <point x="59" y="1072" type="line" smooth="no"/>
      <point x="59" y="761" type="line" smooth="no"/>
      <point x="139" y="761" type="line" smooth="no"/>
      <point x="139" y="385" type="line" smooth="yes"/>
      <point x="139" y="-18"/>
      <point x="469" y="-18" type="qcurve" smooth="yes"/>
      <point x="587" y="-18"/>
      <point x="772" y="71"/>
      <point x="827" y="156" type="qcurve" smooth="no"/>
    </contour>
    <contour>
      <point x="652" y="1342" type="qcurve" smooth="yes"/>
      <point x="652" y="1234"/>
      <point x="519" y="1112"/>
      <point x="428" y="1112" type="qcurve" smooth="yes"/>
      <point x="335" y="1112"/>
      <point x="200" y="1235"/>
      <point x="200" y="1345" type="qcurve" smooth="yes"/>
      <point x="200" y="1452"/>
      <point x="334" y="1572"/>
      <point x="518" y="1572"/>
      <point x="652" y="1451"/>
    </contour>
    <contour>
      <point x="1269" y="1342" type="qcurve" smooth="yes"/>
      <point x="1269" y="1234"/>
      <point x="1136" y="1112"/>
      <point x="1045" y="1112" type="qcurve" smooth="yes"/>
      <point x="952" y="1112"/>
      <point x="817" y="1235"/>
      <point x="817" y="1345" type="qcurve" smooth="yes"/>
      <point x="817" y="1452"/>
      <point x="951" y="1572"/>
      <point x="1135" y="1572"/>
      <point x="1269" y="1451"/>
    </contour>
  </outline>
</glyph>
